<?xml version="1.0" standalone="no"?>
<!DOCTYPE svg PUBLIC "-//W3C//DTD SVG 1.1//EN" "http://www.w3.org/Graphics/SVG/1.1/DTD/svg11.dtd" >
<svg xmlns="http://www.w3.org/2000/svg" xmlns:xlink="http://www.w3.org/1999/xlink" version="1.1">
<metadata>
Created by FontForge 20161013 at Sat Jan 16 02:33:57 2016
 By ,,,
Copyright (c) 2015 Typotheque.com All rights reserved.
</metadata>
<defs>
<font id="VitaStd-ThinIta" horiz-adv-x="531" >
  <font-face 
    font-family="Vita Std Thin"
    font-weight="250"
    font-style="italic"
    font-stretch="normal"
    units-per-em="1000"
    panose-1="0 0 0 0 0 0 0 0 0 0"
    ascent="798"
    descent="-202"
    x-height="519"
    cap-height="718"
    bbox="-220 -249 1267 1010"
    underline-thickness="50"
    underline-position="-200"
    unicode-range="U+0020-FB04"
  />
<missing-glyph horiz-adv-x="712" 
d="M305 375v27h27v-27h-27zM380 525v27h27v-27h-27zM305 525v27h27v-27h-27zM230 525v27h27v-27h-27zM80 0v27h27v-27h-27zM155 0v27h27v-27h-27zM230 0v27h27v-27h-27zM305 0v27h27v-27h-27zM380 0v27h27v-27h-27zM80 75v27h27v-27h-27zM80 150v27h27v-27h-27zM80 225v27
h27v-27h-27zM80 300v27h27v-27h-27zM80 375v27h27v-27h-27zM80 450v27h27v-27h-27zM80 525v27h27v-27h-27zM80 600v27h27v-27h-27zM80 675v27h27v-27h-27zM155 675v27h27v-27h-27zM230 675v27h27v-27h-27zM305 675v27h27v-27h-27zM380 675v27h27v-27h-27zM455 675v27h27v-27
h-27zM530 675v27h27v-27h-27zM530 0v27h27v-27h-27zM455 0v27h27v-27h-27zM605 0v27h27v-27h-27zM605 675v27h27v-27h-27zM305 300v27h27v-27h-27zM305 150v27h27v-27h-27zM380 375v27h27v-27h-27zM455 375v27h27v-27h-27zM455 450v27h27v-27h-27zM455 525v27h27v-27h-27z
M605 600v27h27v-27h-27zM605 525v27h27v-27h-27zM605 375v27h27v-27h-27zM605 300v27h27v-27h-27zM605 150v27h27v-27h-27zM605 75v27h27v-27h-27zM605 225v27h27v-27h-27zM605 450v27h27v-27h-27z" />
    <glyph glyph-name="f_f" unicode="ff" horiz-adv-x="611" 
d="M458 495l-58 -558q-9 -82 -43 -114.5t-93 -32.5q-42 0 -83 16l3 26q39 -17 82 -17q51 0 75.5 28.5t31.5 92.5l59 559h-278l-58 -558q-9 -82 -43 -114.5t-93 -32.5q-42 0 -83 16l3 26q39 -17 82 -17q51 0 75.5 28.5t31.5 92.5l59 559h-77l2 24h77l11 102q15 147 149 147
q51 0 90 -16l-3 -26q-39 17 -90 17q-57 0 -85 -29t-34 -92l-11 -103h277l11 102q15 147 149 147q51 0 90 -16l-3 -26q-39 17 -90 17q-57 0 -85 -29t-34 -92l-11 -103h163l-2 -24h-164z" />
    <glyph glyph-name="fi" unicode="fi" horiz-adv-x="527" 
d="M154 495l-58 -558q-9 -82 -43 -114.5t-93 -32.5q-42 0 -83 16l3 26q39 -17 82 -17q51 0 75.5 28.5t31.5 92.5l59 559h-77l2 24h77l11 102q15 147 149 147q51 0 90 -16l-3 -26q-39 17 -90 17q-57 0 -85 -29t-34 -92l-11 -103h163l-2 -24h-164zM462 519l-55 -519h-27
l55 519h27zM448 654l12 116h27l-12 -116h-27z" />
    <glyph glyph-name="fl" unicode="fl" horiz-adv-x="530" 
d="M154 495l-58 -558q-9 -82 -43 -114.5t-93 -32.5q-42 0 -83 16l3 26q39 -17 82 -17q51 0 75.5 28.5t31.5 92.5l59 559h-77l2 24h77l11 102q15 147 149 147q51 0 90 -16l-3 -26q-39 17 -90 17q-57 0 -85 -29t-34 -92l-11 -103h163l-2 -24h-164zM487 757l-79 -757h-27
l79 757h27z" />
    <glyph glyph-name="f_f_i" unicode="ffi" horiz-adv-x="837" 
d="M459 495l-58 -558q-9 -82 -43 -114.5t-93 -32.5q-42 0 -83 16l3 26q39 -17 82 -17q51 0 75.5 28.5t31.5 92.5l59 559h-279l-58 -558q-9 -82 -43 -114.5t-93 -32.5q-42 0 -83 16l3 26q39 -17 82 -17q51 0 75.5 28.5t31.5 92.5l59 559h-77l2 24h77l11 102q15 147 149 147
q51 0 90 -16l-3 -26q-39 17 -90 17q-57 0 -85 -29t-34 -92l-11 -103h278l11 102q15 147 149 147q51 0 90 -16l-3 -26q-39 17 -90 17q-57 0 -85 -29t-34 -92l-11 -103h163l-2 -24h-164zM772 519l-55 -519h-27l55 519h27zM758 654l12 116h27l-12 -116h-27z" />
    <glyph glyph-name="f_f_l" unicode="ffl" horiz-adv-x="839" 
d="M459 495l-58 -558q-9 -82 -43 -114.5t-93 -32.5q-42 0 -83 16l3 26q39 -17 82 -17q51 0 75.5 28.5t31.5 92.5l59 559h-279l-58 -558q-9 -82 -43 -114.5t-93 -32.5q-42 0 -83 16l3 26q39 -17 82 -17q51 0 75.5 28.5t31.5 92.5l59 559h-77l2 24h77l11 102q15 147 149 147
q51 0 90 -16l-3 -26q-39 17 -90 17q-57 0 -85 -29t-34 -92l-11 -103h278l11 102q15 147 149 147q51 0 90 -16l-3 -26q-39 17 -90 17q-57 0 -85 -29t-34 -92l-11 -103h163l-2 -24h-164zM796 757l-79 -757h-27l79 757h27z" />
    <glyph glyph-name="f_h" unicode="fh" horiz-adv-x="861" 
d="M786 376l-40 -376h-27l39 374q7 63 -20.5 96.5t-107.5 33.5q-96 0 -173 -41l-49 -463h-27l80 757h27l-28 -266q90 38 170 38q87 0 125.5 -37t30.5 -116zM154 495l-58 -558q-9 -82 -43 -114.5t-93 -32.5q-42 0 -83 16l3 26q39 -17 82 -17q51 0 75.5 28.5t31.5 92.5l59 559
h-77l2 24h77l11 102q15 147 149 147q51 0 90 -16l-3 -26q-39 17 -90 17q-57 0 -85 -29t-34 -92l-11 -103h163l-2 -24h-164z" />
    <glyph glyph-name="f_b" unicode="fb" horiz-adv-x="856" 
d="M382 3l79 754h27l-25 -238q56 10 108 10q114 0 170.5 -54.5t56.5 -173.5q0 -142 -73 -226.5t-207 -84.5q-47 0 -136 13zM520 15q67 0 117 23.5t78 64t41.5 89t13.5 105.5q0 107 -48.5 157t-152.5 50q-55 0 -109 -11l-49 -468q64 -10 109 -10zM154 495l-58 -558
q-9 -82 -43 -114.5t-93 -32.5q-42 0 -83 16l3 26q39 -17 82 -17q51 0 75.5 28.5t31.5 92.5l59 559h-77l2 24h77l11 102q15 147 149 147q51 0 90 -16l-3 -26q-39 17 -90 17q-57 0 -85 -29t-34 -92l-11 -103h163l-2 -24h-164z" />
    <glyph glyph-name="f_j" unicode="fj" horiz-adv-x="527" 
d="M154 495l-58 -558q-9 -82 -43 -114.5t-93 -32.5q-42 0 -83 16l3 26q39 -17 82 -17q51 0 75.5 28.5t31.5 92.5l59 559h-77l2 24h77l11 102q15 147 149 147q51 0 90 -16l-3 -26q-39 17 -90 17q-57 0 -85 -29t-34 -92l-11 -103h163l-2 -24h-164zM462 519l-54 -523
q-12 -115 -38.5 -160.5t-97.5 -45.5q-24 0 -62 7l3 26q33 -6 59 -6t44 8.5t29 20.5t18 38.5t10.5 48t7.5 63.5l55 523h26zM450 654l13 116h27l-13 -116h-27z" />
    <glyph glyph-name="f_k" unicode="fk" horiz-adv-x="773" 
d="M428 205l-21 -205h-27l80 757h27l-56 -525q105 53 196.5 139t92.5 148h27q0 -49 -53 -113t-134 -123l158 -283h-30l-149 269q-58 -40 -111 -64zM154 495l-58 -558q-9 -82 -43 -114.5t-93 -32.5q-42 0 -83 16l3 26q39 -17 82 -17q51 0 75.5 28.5t31.5 92.5l59 559h-77
l2 24h77l11 102q15 147 149 147q51 0 90 -16l-3 -26q-39 17 -90 17q-57 0 -85 -29t-34 -92l-11 -103h163l-2 -24h-164z" />
    <glyph glyph-name="f_f_j" unicode="ffj" horiz-adv-x="836" 
d="M154 495l-58 -558q-9 -82 -43 -114.5t-93 -32.5q-42 0 -83 16l3 26q39 -17 82 -17q51 0 75.5 28.5t31.5 92.5l59 559h-77l2 24h77l11 102q15 147 149 147q51 0 90 -16l-3 -26q-39 17 -90 17q-57 0 -85 -29t-34 -92l-11 -103h277l11 102q15 147 149 147q51 0 90 -16
l-3 -26q-39 17 -90 17q-57 0 -85 -29t-34 -92l-11 -103h163l-2 -24h-164l-58 -558q-9 -82 -43 -114.5t-93 -32.5q-42 0 -83 16l3 26q39 -17 82 -17q51 0 75.5 28.5t31.5 92.5l59 559h-278zM771 519l-54 -523q-12 -115 -38.5 -160.5t-97.5 -45.5q-24 0 -62 7l3 26
q33 -6 59 -6t44 8.5t29 20.5t18 38.5t10.5 48t7.5 63.5l55 523h26zM759 654l13 116h27l-13 -116h-27z" />
    <glyph glyph-name="f_igrave" unicode="f&#xec;" horiz-adv-x="527" 
d="M154 495l-58 -558q-9 -82 -43 -114.5t-93 -32.5q-42 0 -83 16l3 26q39 -17 82 -17q51 0 75.5 28.5t31.5 92.5l59 559h-77l2 24h77l11 102q15 147 149 147q51 0 90 -16l-3 -26q-39 17 -90 17q-57 0 -85 -29t-34 -92l-11 -103h163l-2 -24h-164zM462 519l-55 -519h-27
l55 519h27zM529 624l-21 -14l-97 178l23 15z" />
    <glyph glyph-name="f_idieresis" unicode="f&#xef;" horiz-adv-x="528" 
d="M154 495l-58 -558q-9 -82 -43 -114.5t-93 -32.5q-42 0 -83 16l3 26q39 -17 82 -17q51 0 75.5 28.5t31.5 92.5l59 559h-77l2 24h77l11 102q15 147 149 147q51 0 90 -16l-3 -26q-39 17 -90 17q-57 0 -85 -29t-34 -92l-11 -103h163l-2 -24h-164zM381 0l55 519h27l-55 -519
h-27zM449 749l-11 -105h-26l11 105h26zM559 644l11 105h26l-11 -105h-26z" />
    <glyph glyph-name=".notdef" horiz-adv-x="712" 
d="M305 375v27h27v-27h-27zM380 525v27h27v-27h-27zM305 525v27h27v-27h-27zM230 525v27h27v-27h-27zM80 0v27h27v-27h-27zM155 0v27h27v-27h-27zM230 0v27h27v-27h-27zM305 0v27h27v-27h-27zM380 0v27h27v-27h-27zM80 75v27h27v-27h-27zM80 150v27h27v-27h-27zM80 225v27
h27v-27h-27zM80 300v27h27v-27h-27zM80 375v27h27v-27h-27zM80 450v27h27v-27h-27zM80 525v27h27v-27h-27zM80 600v27h27v-27h-27zM80 675v27h27v-27h-27zM155 675v27h27v-27h-27zM230 675v27h27v-27h-27zM305 675v27h27v-27h-27zM380 675v27h27v-27h-27zM455 675v27h27v-27
h-27zM530 675v27h27v-27h-27zM530 0v27h27v-27h-27zM455 0v27h27v-27h-27zM605 0v27h27v-27h-27zM605 675v27h27v-27h-27zM305 300v27h27v-27h-27zM305 150v27h27v-27h-27zM380 375v27h27v-27h-27zM455 375v27h27v-27h-27zM455 450v27h27v-27h-27zM455 525v27h27v-27h-27z
M605 600v27h27v-27h-27zM605 525v27h27v-27h-27zM605 375v27h27v-27h-27zM605 300v27h27v-27h-27zM605 150v27h27v-27h-27zM605 75v27h27v-27h-27zM605 225v27h27v-27h-27zM605 450v27h27v-27h-27z" />
    <glyph glyph-name=".null" horiz-adv-x="0" 
 />
    <glyph glyph-name="nonmarkingreturn" horiz-adv-x="333" 
 />
    <glyph glyph-name="space" unicode=" " horiz-adv-x="267" 
 />
    <glyph glyph-name="exclam" unicode="!" horiz-adv-x="230" 
d="M69 0l13 121h27l-12 -121h-28zM172 718l-53 -496h-25l50 496h28z" />
    <glyph glyph-name="quotedbl" unicode="&#x22;" horiz-adv-x="380" 
d="M148 718l-29 -275h-25l27 275h27zM344 718l-29 -275h-25l27 275h27z" />
    <glyph glyph-name="numbersign" unicode="#" horiz-adv-x="604" 
d="M306 0l49 197h-172l-50 -197h-24l50 197h-122l6 22h121l44 174h-125l6 22h125l48 188h24l-48 -188h172l48 188h25l-48 -188h131l-6 -22h-131l-44 -174h134l-6 -22h-134l-50 -197h-23zM233 393l-45 -174h173l44 174h-172z" />
    <glyph glyph-name="dollar" unicode="$" horiz-adv-x="481" 
d="M183 17h20l30 285q-34 8 -51.5 13t-40.5 16t-34 24t-19.5 35t-8.5 52q0 81 51.5 122t134.5 48l10 89h24l-9 -87h12q51 0 135 -14l-3 -27q-80 16 -133 16h-14l-28 -267q38 -9 60 -16.5t46.5 -23.5t36 -42.5t11.5 -65.5q0 -83 -52 -127t-137 -52l-8 -83h-24l8 81
q-6 -1 -20 -1q-76 0 -151 18l2 26q66 -19 152 -19zM385 171q0 60 -30 84.5t-99 40.5l-29 -277q158 15 158 152zM106 443q0 -56 29.5 -77.5t99.5 -38.5l28 260q-157 -15 -157 -144z" />
    <glyph glyph-name="percent" unicode="%" horiz-adv-x="727" 
d="M153 0h-28l457 603h26zM192 305q-69 0 -99 32.5t-30 96.5q0 85 44.5 132.5t122.5 47.5q127 0 127 -137q0 -78 -39.5 -125t-125.5 -47zM192 326q141 0 141 148q0 119 -106 119q-66 0 -104 -41.5t-38 -113.5q0 -56 25 -84t82 -28zM502 -8q-70 0 -100.5 32t-30.5 97
q0 84 45.5 131.5t123.5 47.5q65 0 95 -34t30 -102q0 -172 -163 -172zM503 13q138 0 138 149q0 58 -24.5 87.5t-79.5 29.5q-67 0 -104.5 -41t-37.5 -114q0 -55 25 -83t83 -28z" />
    <glyph glyph-name="ampersand" unicode="&#x26;" horiz-adv-x="768" 
d="M472 377h273l-3 -25h-128q-15 -69 -55.5 -136.5t-97.5 -119.5q98 -80 171 -80q31 0 56 13l-2 -26q-27 -13 -58 -13q-83 0 -188 87q-108 -87 -220 -87q-84 0 -134.5 47t-50.5 116q0 67 46.5 113.5t131.5 91.5q-58 110 -58 187q0 73 50.5 129.5t138.5 56.5
q73 0 110.5 -40.5t37.5 -99.5q0 -34 -13.5 -64t-32.5 -51.5t-51.5 -43.5t-59 -36.5t-65.5 -34.5q-13 -7 -20 -10q77 -137 193 -240q55 50 93 115.5t51 125.5h-118zM225 17q104 0 197 75q-116 102 -197 245q-78 -41 -120 -82t-42 -100q0 -56 41.5 -97t120.5 -41zM340 706
q-71 0 -114 -48.5t-43 -111.5q0 -73 56 -175q113 59 147 84q78 59 78 133q0 52 -32.5 85t-91.5 33z" />
    <glyph glyph-name="quotesingle" unicode="'" horiz-adv-x="184" 
d="M148 718l-30 -275h-24l27 275h27z" />
    <glyph glyph-name="parenleft" unicode="(" horiz-adv-x="265" 
d="M189 -142h-27q-106 177 -106 383q0 290 214 522h26q-212 -236 -212 -520q0 -199 105 -385z" />
    <glyph glyph-name="parenright" unicode=")" horiz-adv-x="266" 
d="M78 763h27q106 -177 106 -383q0 -290 -214 -522h-26q212 236 212 520q0 199 -105 385z" />
    <glyph glyph-name="asterisk" unicode="*" horiz-adv-x="494" 
d="M411 447l-129 82l-15 -143h-24l15 143l-146 -82l-10 20l147 83l-130 82l14 21l129 -83l16 148h24l-16 -147l146 82l10 -21l-147 -83l130 -82z" />
    <glyph glyph-name="plus" unicode="+" horiz-adv-x="477" 
d="M208 141l19 177h-169l3 26h169l17 164h25l-17 -164h170l-3 -26h-170l-19 -177h-25z" />
    <glyph glyph-name="comma" unicode="," horiz-adv-x="187" 
d="M90 107q-13 -122 -76 -228h-25q62 113 74 228h27z" />
    <glyph glyph-name="hyphen" unicode="-" horiz-adv-x="358" 
d="M68 278l3 27h215l-2 -27h-216z" />
    <glyph glyph-name="hyphen" unicode="&#xad;" horiz-adv-x="358" 
d="M68 278l3 27h215l-2 -27h-216z" />
    <glyph glyph-name="period" unicode="." horiz-adv-x="182" 
d="M46 0l13 121h27l-12 -121h-28z" />
    <glyph glyph-name="slash" unicode="/" horiz-adv-x="417" 
d="M29 -50l-28 -1l401 817h26z" />
    <glyph glyph-name="zero" unicode="0" horiz-adv-x="608" 
d="M330 589q-78 0 -133 -47.5t-79.5 -121.5t-24.5 -168q0 -237 179 -237q62 0 110 28t76 75.5t42 105t14 121.5q0 113 -44.5 178.5t-139.5 65.5zM269 -10q-103 0 -153.5 68t-50.5 194q0 73 16.5 137t48.5 115t84.5 80.5t119.5 29.5q107 0 157.5 -72t50.5 -196
q0 -155 -72.5 -255.5t-200.5 -100.5z" />
    <glyph glyph-name="one" unicode="1" horiz-adv-x="332" 
d="M164 0l61 576l-159 -17l2 25l166 19h21l-63 -603h-28z" />
    <glyph glyph-name="two" unicode="2" horiz-adv-x="475" 
d="M15 0l3 22q67 51 118 95t113 107.5t97 129.5t35 125q0 53 -32 81.5t-106 28.5q-60 0 -138 -24l3 25q79 24 138 24q163 0 163 -132q0 -191 -352 -457h348l-3 -25h-387z" />
    <glyph glyph-name="three" unicode="3" horiz-adv-x="480" 
d="M258 257v-3q134 -24 134 -160q0 -106 -67.5 -163.5t-184.5 -57.5q-45 0 -125 19l2 25q76 -19 125 -19q112 0 167.5 53t55.5 141q0 74 -44.5 109.5t-147.5 35.5h-29l2 26h26q89 0 151 53.5t62 144.5q0 128 -147 128q-58 0 -138 -24l2 25q80 24 139 24q171 0 171 -151
q0 -76 -41 -130t-113 -76z" />
    <glyph glyph-name="four" unicode="4" horiz-adv-x="538" 
d="M485 95h-105l-22 -211h-28l22 211h-347l2 21l400 492h27l-52 -487h105zM397 559l-356 -438h313l47 438h-4z" />
    <glyph glyph-name="five" unicode="5" horiz-adv-x="506" 
d="M24 -81q69 -19 136 -19q119 0 179 57.5t60 156.5q0 91 -50.5 131t-161.5 40h-103l34 318h324l-3 -25h-297l-28 -268h77q130 0 182.5 -51.5t52.5 -140.5q0 -49 -14 -91t-43.5 -77t-83 -55t-126.5 -20q-62 0 -138 18z" />
    <glyph glyph-name="six" unicode="6" horiz-adv-x="546" 
d="M303 420q179 0 179 -177q0 -46 -11.5 -88.5t-36 -80.5t-69.5 -61t-105 -23q-47 0 -82.5 15t-56.5 39.5t-33.5 60.5t-17 72.5t-4.5 81.5q0 70 10 134.5t34.5 127t62.5 108.5t98.5 74t136.5 28q43 0 100 -10l-3 -26q-51 11 -107 11q-68 0 -122 -26.5t-89 -73.5
t-56.5 -105.5t-30.5 -129.5q96 49 203 49zM93 259q0 -42 3.5 -75t14.5 -66t29.5 -54.5t49.5 -35t73 -13.5q54 0 94 21.5t60 56.5t29 72t9 76q0 80 -38 117t-121 37q-96 0 -199 -48q-4 -39 -4 -88z" />
    <glyph glyph-name="seven" unicode="7" horiz-adv-x="472" 
d="M149 -115h-27l313 693h-367l2 25h396l-2 -20z" />
    <glyph glyph-name="eight" unicode="8" horiz-adv-x="551" 
d="M49 158q0 41 14.5 76t33 57.5t48.5 43t48.5 29.5t45.5 20q-129 51 -129 161q0 78 53.5 132t146.5 54q83 0 129 -42.5t46 -111.5q0 -133 -177 -192q38 -14 60 -24t51.5 -31.5t44 -54.5t14.5 -77q0 -97 -68.5 -152.5t-170.5 -55.5q-87 0 -138.5 42.5t-51.5 125.5zM450 198
q0 32 -9.5 56.5t-22.5 40.5t-41 31.5t-48.5 24t-62.5 23.5q-28 -12 -46 -20.5t-48.5 -28t-48.5 -40.5t-32 -54t-14 -71q0 -63 40 -104t126 -41q93 0 150 50.5t57 132.5zM137 545q0 -55 37 -89.5t108 -60.5q176 62 176 180q0 55 -35.5 92.5t-114.5 37.5q-48 0 -83.5 -16
t-53.5 -41.5t-26 -51t-8 -51.5z" />
    <glyph glyph-name="nine" unicode="9" horiz-adv-x="547" 
d="M244 184q-179 0 -179 177q0 46 11.5 88.5t36 80.5t69.5 61t105 23q58 0 98 -21.5t60 -62t28 -84.5t8 -101q0 -70 -10 -134.5t-34.5 -127t-62.5 -108.5t-98.5 -74t-136.5 -28q-43 0 -100 10l3 26q51 -11 107 -11q132 0 205 92.5t93 241.5q-96 -48 -203 -48zM454 345
q0 42 -3.5 75t-14.5 66t-29.5 54.5t-49.5 35t-73 13.5q-54 0 -94 -21.5t-60 -56.5t-29 -72t-9 -76q0 -80 38 -117t120 -37q98 0 199 48q5 48 5 88z" />
    <glyph glyph-name="colon" unicode=":" horiz-adv-x="185" 
d="M47 0l13 121h27l-12 -121h-28zM89 398l13 121h27l-12 -121h-28z" />
    <glyph glyph-name="semicolon" unicode=";" horiz-adv-x="216" 
d="M109 398l13 121h27l-12 -121h-28zM107 107q-13 -122 -76 -228h-25q62 113 74 228h27z" />
    <glyph glyph-name="less" unicode="&#x3c;" horiz-adv-x="423" 
d="M329 56l-285 265l2 20l340 265l-2 -30l-316 -246l264 -245z" />
    <glyph glyph-name="equal" unicode="=" horiz-adv-x="598" 
d="M93 419l3 26h434l-3 -26h-434zM71 206l3 26h434l-3 -26h-434z" />
    <glyph glyph-name="greater" unicode="&#x3e;" horiz-adv-x="424" 
d="M100 605l285 -265l-2 -20l-340 -265l2 30l316 246l-264 245z" />
    <glyph glyph-name="question" unicode="?" horiz-adv-x="419" 
d="M123 0l13 121h28l-13 -121h-28zM381 607q0 51 -34 74.5t-106 23.5q-88 0 -165 -24l2 25q78 25 167 25q164 0 164 -123q0 -46 -22 -82.5t-54 -60.5t-64.5 -46.5t-57.5 -51t-29 -62.5l-8 -79h-27l8 81q4 36 29 67t57.5 54t64 47t53.5 57.5t22 74.5z" />
    <glyph glyph-name="at" unicode="@" horiz-adv-x="929" 
d="M866 336q0 -178 -99.5 -262t-294.5 -84q-109 0 -165 31t-56 110q0 75 57 111.5t189 36.5q51 0 119 -6l9 82q1 10 1 29q0 64 -35.5 94t-115.5 30q-75 0 -154 -23l2 24q81 24 157 24q90 0 132 -36t42 -109q0 -10 -2 -32l-35 -327q113 26 168 101t55 205q0 71 -18 126.5
t-56 99.5t-104 67.5t-157 23.5q-67 0 -126 -13t-114.5 -44.5t-95 -80t-63.5 -125.5t-24 -175q0 -81 18 -142.5t49 -100.5t77 -64t97 -34.5t114 -9.5q99 0 189 21l-3 -25q-90 -21 -188 -21q-85 0 -150.5 18t-119 59.5t-81.5 116t-28 180.5q0 103 25 183.5t67.5 132.5t101 86
t121.5 48t135 14q169 0 264.5 -82.5t95.5 -257.5zM478 15q57 0 111 8l25 226q-70 6 -122 6q-121 0 -167 -31t-46 -92t45 -89t154 -28z" />
    <glyph glyph-name="A" unicode="A" horiz-adv-x="614" 
d="M521 0l-53 203h-343l-93 -203h-29l331 718h30l186 -718h-29zM343 678l-206 -449h325l-115 449h-4z" />
    <glyph glyph-name="B" unicode="B" horiz-adv-x="633" 
d="M149 718h217q209 0 209 -149q0 -69 -42 -121t-105 -71l-1 -3q133 -17 133 -162q0 -102 -69 -157t-209 -55h-208zM104 26h181q247 0 247 184q0 148 -164 148h-229zM141 384h223q22 0 50.5 10t59.5 30t52 57t21 83q0 59 -40 93.5t-142 34.5h-192z" />
    <glyph glyph-name="C" unicode="C" horiz-adv-x="609" 
d="M95 322q0 -154 78 -230t214 -76q73 0 156 13l-3 -25q-94 -14 -157 -14q-64 0 -118.5 17.5t-100 54.5t-71.5 103t-26 154q0 106 30.5 186t85.5 127.5t124.5 70.5t153.5 23q80 0 148 -16l-2 -26q-59 16 -147 16q-168 0 -266.5 -94t-98.5 -284z" />
    <glyph glyph-name="D" unicode="D" horiz-adv-x="721" 
d="M666 411q0 -61 -10 -115t-39 -110t-75 -95.5t-123 -65t-178 -25.5h-166l75 718h179q183 0 260 -77.5t77 -229.5zM322 692h-147l-71 -666h141q107 0 185.5 29.5t122.5 83.5t64.5 120.5t20.5 148.5q0 147 -71 215.5t-245 68.5z" />
    <glyph glyph-name="E" unicode="E" horiz-adv-x="587" 
d="M149 718h429l-2 -26h-403l-31 -298h364l-3 -25h-364l-36 -343h403l-3 -26h-429z" />
    <glyph glyph-name="F" unicode="F" horiz-adv-x="542" 
d="M555 718l-2 -26h-380l-36 -346h343l-3 -25h-343l-33 -321h-27l75 718h406z" />
    <glyph glyph-name="G" unicode="G" horiz-adv-x="669" 
d="M396 354h206l-35 -338q-97 -26 -180 -26q-50 0 -94.5 10t-87 33.5t-72.5 60t-48.5 93t-18.5 128.5q0 105 32 186.5t88 130.5t126.5 74t153.5 25q86 0 164 -18l-3 -25q-67 17 -162 17q-166 0 -268 -99t-102 -288q0 -153 80 -227.5t215 -74.5q76 0 152 17l29 295h-177z" />
    <glyph glyph-name="H" unicode="H" horiz-adv-x="707" 
d="M645 718l-75 -718h-28l37 358h-441l-37 -358h-27l75 718h27l-35 -335h441l35 335h28z" />
    <glyph glyph-name="I" unicode="I" horiz-adv-x="239" 
d="M176 718l-75 -718h-27l75 718h27z" />
    <glyph glyph-name="J" unicode="J" horiz-adv-x="379" 
d="M241 194l55 524h27l-54 -525q-12 -106 -59.5 -155t-138.5 -49q-51 0 -86 7l3 27q29 -7 85 -7q83 0 121 45.5t47 132.5z" />
    <glyph glyph-name="K" unicode="K" horiz-adv-x="576" 
d="M176 718l-35 -334h100l320 334h33l-330 -345l267 -373h-32l-258 358h-103l-37 -358h-27l75 718h27z" />
    <glyph glyph-name="L" unicode="L" horiz-adv-x="519" 
d="M176 718l-73 -692h374l-3 -26h-400l75 718h27z" />
    <glyph glyph-name="M" unicode="M" horiz-adv-x="891" 
d="M32 0l164 718h29l195 -678h2l329 678h29l14 -718h-27l-14 657h-3l-320 -657h-27l-190 660h-2l-152 -660h-27z" />
    <glyph glyph-name="N" unicode="N" horiz-adv-x="728" 
d="M565 0l-391 668h-3l-70 -668h-27l75 718h27l390 -666h4l68 666h28l-75 -718h-26z" />
    <glyph glyph-name="O" unicode="O" horiz-adv-x="757" 
d="M348 15q148 0 237 104.5t89 283.5q0 152 -66.5 227t-186.5 75q-152 0 -239.5 -109.5t-87.5 -282.5q0 -151 67.5 -224.5t186.5 -73.5zM345 -10q-123 0 -201 77t-78 243q0 186 97 303.5t261 117.5q131 0 204.5 -83t73.5 -243q0 -194 -101 -304.5t-256 -110.5z" />
    <glyph glyph-name="P" unicode="P" horiz-adv-x="605" 
d="M309 277h-179l-29 -277h-27l75 718h182q135 0 193.5 -48.5t58.5 -149.5q0 -36 -6.5 -68t-25.5 -65t-48.5 -56.5t-79 -38.5t-114.5 -15zM326 692h-153l-41 -389h178q244 0 244 215q0 88 -50.5 131t-177.5 43z" />
    <glyph glyph-name="Q" unicode="Q" horiz-adv-x="757" 
d="M345 -10q-123 0 -201 77t-78 243q0 186 97 303.5t261 117.5q131 0 204.5 -83t73.5 -243q0 -141 -55.5 -239.5t-150.5 -143.5l60 -137h-28l-55 128q-61 -23 -128 -23zM348 15q61 0 115 20l-82 190h28l78 -181q88 42 137.5 134.5t49.5 224.5q0 152 -66.5 227t-186.5 75
q-152 0 -239.5 -109.5t-87.5 -282.5q0 -151 67.5 -224.5t186.5 -73.5z" />
    <glyph glyph-name="R" unicode="R" horiz-adv-x="617" 
d="M332 718q132 0 187 -47t55 -143q0 -190 -188 -219l141 -309h-30l-138 306q-28 -2 -43 -2h-183l-32 -304h-27l75 718h183zM328 692h-155l-38 -362h180q129 0 180 53t51 142q0 86 -46.5 126.5t-171.5 40.5z" />
    <glyph glyph-name="S" unicode="S" 
d="M202 16q109 0 172.5 46.5t63.5 143.5q0 40 -10.5 66.5t-36 43.5t-53 26.5t-74.5 19.5q-35 7 -57 13.5t-47 19.5t-39.5 29t-24 43t-9.5 62q0 105 73 153.5t185 48.5q67 0 152 -18l-3 -26q-80 18 -150 18q-47 0 -85.5 -8t-72 -27t-52.5 -53.5t-19 -83.5q0 -32 9 -55.5
t21 -37.5t36.5 -25t43.5 -16.5t54 -12.5q36 -8 55.5 -13.5t49 -19t44.5 -30.5t27 -46.5t12 -69.5q0 -76 -38.5 -126.5t-96 -70.5t-131.5 -20q-83 0 -173 22l3 26q75 -22 171 -22z" />
    <glyph glyph-name="T" unicode="T" horiz-adv-x="561" 
d="M57 718h533l-3 -26h-253l-72 -692h-27l72 692h-252z" />
    <glyph glyph-name="U" unicode="U" horiz-adv-x="712" 
d="M121 258q-2 -26 -2 -39q0 -99 56.5 -151.5t153.5 -52.5q109 0 175.5 69t78.5 185l47 449h28l-48 -452q-12 -117 -84 -196.5t-200 -79.5q-100 0 -167.5 54.5t-67.5 167.5q0 27 2 42l49 464h28z" />
    <glyph glyph-name="V" unicode="V" horiz-adv-x="612" 
d="M104 718l173 -675h4l313 675h28l-332 -718h-30l-185 718h29z" />
    <glyph glyph-name="W" unicode="W" horiz-adv-x="914" 
d="M468 718l146 -671h4l272 671h28l-294 -718h-28l-116 533l-220 -533h-28l-155 718h29l144 -668h4l216 527l-30 141h28z" />
    <glyph glyph-name="X" unicode="X" horiz-adv-x="550" 
d="M23 0h-31l274 367l-190 351h30l177 -329l245 329h32l-263 -351l200 -367h-31l-187 345z" />
    <glyph glyph-name="Y" unicode="Y" horiz-adv-x="586" 
d="M108 718l182 -417h4l268 417h30l-289 -447l-28 -271h-27l28 269l-198 449h30z" />
    <glyph glyph-name="Z" unicode="Z" horiz-adv-x="542" 
d="M89 692l2 26h455l-2 -23l-509 -669h440l-2 -26h-475l2 23l508 669h-419z" />
    <glyph glyph-name="bracketleft" unicode="[" horiz-adv-x="303" 
d="M56 -140l98 933h173l-3 -24h-145l-93 -886h145l-2 -23h-173z" />
    <glyph glyph-name="backslash" unicode="\" horiz-adv-x="407" 
d="M337 -51l-28 1l-227 816h27z" />
    <glyph glyph-name="bracketright" unicode="]" horiz-adv-x="303" 
d="M252 792l-98 -933h-173l3 24h145l93 886h-145l2 23h173z" />
    <glyph glyph-name="asciicircum" unicode="^" horiz-adv-x="524" 
d="M301 695l-205 -281h-30l223 304h28l168 -303h-28z" />
    <glyph glyph-name="underscore" unicode="_" horiz-adv-x="504" 
d="M-38 -106l3 25h493l-3 -25h-493z" />
    <glyph glyph-name="grave" unicode="`" horiz-adv-x="293" 
d="M258 660l-12 -20l-179 117l13 21z" />
    <glyph glyph-name="a" unicode="a" horiz-adv-x="528" 
d="M466 517l-55 -512q-68 -15 -131 -15q-113 0 -172 51.5t-59 178.5q0 146 77.5 227.5t215.5 81.5q53 0 124 -12zM282 15q49 0 104 11l51 471q-50 7 -99 7q-132 0 -196.5 -77.5t-64.5 -207.5q0 -106 47.5 -155t157.5 -49z" />
    <glyph glyph-name="b" unicode="b" horiz-adv-x="530" 
d="M55 3l79 754h27l-25 -238q56 10 108 10q114 0 170.5 -54.5t56.5 -173.5q0 -142 -73 -226.5t-207 -84.5q-47 0 -136 13zM193 15q67 0 117 23.5t78 64t41.5 89t13.5 105.5q0 107 -48.5 157t-152.5 50q-55 0 -109 -11l-49 -468q64 -10 109 -10z" />
    <glyph glyph-name="c" unicode="c" horiz-adv-x="416" 
d="M388 492q-48 12 -80 12q-66 0 -113 -25t-71.5 -68t-35 -89.5t-10.5 -99.5q0 -103 41.5 -155t139.5 -52q50 0 93 14l-2 -25q-47 -14 -83 -14q-112 0 -164 55.5t-52 175.5q0 140 65.5 224t188.5 84q45 0 85 -13z" />
    <glyph glyph-name="d" unicode="d" horiz-adv-x="529" 
d="M439 521l25 236h27l-79 -751q-74 -16 -136 -16q-226 0 -226 232q0 144 76 225.5t215 81.5q42 0 98 -8zM337 504q-132 0 -195.5 -76t-63.5 -202q0 -113 49.5 -162t151.5 -49q57 0 108 12l49 468q-43 9 -99 9z" />
    <glyph glyph-name="e" unicode="e" horiz-adv-x="465" 
d="M426 402q0 -23 -7 -43t-17 -35.5t-28 -28.5t-33.5 -21.5t-42 -16.5t-43.5 -12t-47 -8.5t-45 -6.5t-45 -5l-40 -4q2 -206 198 -206q51 0 104 15l-1 -25q-57 -15 -111 -15q-218 0 -218 236q0 137 66 220t169 83q64 0 102.5 -34t38.5 -93zM284 504q-94 0 -147.5 -73
t-58.5 -186q145 14 202 31q119 37 119 123q0 42 -26 73.5t-89 31.5z" />
    <glyph glyph-name="f" unicode="f" horiz-adv-x="307" 
d="M154 495l-58 -558q-9 -82 -43 -114.5t-93 -32.5q-42 0 -83 16l3 26q39 -17 82 -17q51 0 75.5 28.5t31.5 92.5l59 559h-77l2 24h77l11 102q15 147 149 147q51 0 90 -16l-3 -26q-39 17 -90 17q-57 0 -85 -29t-34 -92l-11 -103h163l-2 -24h-164z" />
    <glyph glyph-name="g" unicode="g" horiz-adv-x="530" 
d="M465 517h1l-59 -557q-16 -170 -219 -170q-83 0 -157 24l2 25q74 -24 155 -24q177 0 192 144l8 76q-58 -25 -127 -25q-210 0 -210 224q0 144 76.5 219.5t208.5 75.5q57 0 129 -12zM332 504q-123 0 -188 -71t-65 -196q0 -107 46.5 -154.5t140.5 -47.5q64 0 125 26l45 434
q-56 9 -104 9z" />
    <glyph glyph-name="h" unicode="h" horiz-adv-x="535" 
d="M460 376l-40 -376h-27l39 374q7 63 -20.5 96.5t-107.5 33.5q-96 0 -173 -41l-49 -463h-27l80 757h27l-28 -266q90 38 170 38q87 0 125.5 -37t30.5 -116z" />
    <glyph glyph-name="i" unicode="i" horiz-adv-x="201" 
d="M123 654l12 116h27l-12 -116h-27zM137 519l-55 -519h-27l55 519h27z" />
    <glyph glyph-name="j" unicode="j" horiz-adv-x="201" 
d="M124 654l13 116h27l-13 -116h-27zM136 519l-54 -523q-12 -115 -38.5 -160.5t-97.5 -45.5q-24 0 -62 7l3 26q33 -6 59 -6t44 8.5t29 20.5t18 38.5t10.5 48t7.5 63.5l55 523h26z" />
    <glyph glyph-name="k" unicode="k" horiz-adv-x="448" 
d="M103 205l-21 -205h-27l80 757h27l-56 -525q105 53 196.5 139t92.5 148h27q0 -49 -53 -113t-134 -123l158 -283h-30l-149 269q-58 -40 -111 -64z" />
    <glyph glyph-name="l" unicode="l" horiz-adv-x="207" 
d="M164 757l-79 -757h-27l79 757h27z" />
    <glyph glyph-name="m" unicode="m" horiz-adv-x="836" 
d="M761 376l-39 -376h-27l39 374q7 66 -21 98t-109 32q-83 0 -172 -38q14 -33 10 -90l-40 -376h-27l40 374q2 22 2 30q0 54 -33 77t-120 23q-80 0 -130 -9l-52 -495h-27l54 517q73 12 156 12q112 0 151 -40q101 40 190 40q157 0 157 -124q0 -9 -2 -29z" />
    <glyph glyph-name="n" unicode="n" horiz-adv-x="535" 
d="M460 376l-40 -376h-27l40 374q7 71 -28 100.5t-138 29.5q-85 0 -134 -9l-51 -495h-27l54 517q69 12 158 12q113 0 157 -34t36 -119z" />
    <glyph glyph-name="o" unicode="o" horiz-adv-x="521" 
d="M278 504q-97 0 -148 -77.5t-51 -208.5q0 -99 34 -151t115 -52q102 0 153 78t51 201q0 210 -154 210zM226 -10q-175 0 -175 229q0 141 60.5 225.5t169.5 84.5q179 0 179 -236q0 -144 -64 -223.5t-170 -79.5z" />
    <glyph glyph-name="p" unicode="p" 
d="M34 -202l76 719q72 12 132 12q115 0 172.5 -53.5t57.5 -176.5q0 -143 -73 -226t-210 -83q-41 0 -107 9l-21 -201h-27zM189 15q134 0 194.5 79t60.5 204q0 110 -49 158t-155 48q-57 0 -106 -8l-49 -471q63 -10 104 -10z" />
    <glyph glyph-name="q" unicode="q" 
d="M467 516l-76 -718h-27l21 202q-57 -10 -108 -10q-110 0 -168.5 54t-58.5 178q0 144 76 225.5t213 81.5q57 0 128 -13zM338 504q-133 0 -196.5 -77t-63.5 -204q0 -107 48 -157.5t154 -50.5q57 0 108 12l50 468q-58 9 -100 9z" />
    <glyph glyph-name="r" unicode="r" horiz-adv-x="318" 
d="M302 528l-3 -25q-5 0 -15.5 0.5t-16.5 0.5q-84 0 -133 -9l-52 -495h-27l54 517q69 12 158 12q23 0 35 -1z" />
    <glyph glyph-name="s" unicode="s" horiz-adv-x="425" 
d="M28 32q49 -16 125 -16q95 0 139 29.5t44 92.5q0 26 -8 45t-17.5 29.5t-31 19t-35 11.5t-43.5 9q-34 7 -53 13.5t-42 20t-33.5 37t-10.5 58.5q0 148 198 148q38 0 107 -12l-4 -26q-60 12 -104 12q-79 0 -124 -26t-45 -93q0 -30 8.5 -49.5t29 -31t36.5 -16t49 -11.5
q32 -7 48 -11.5t39.5 -14.5t34.5 -23t20 -34.5t9 -50.5q0 -152 -212 -152q-62 0 -127 16z" />
    <glyph glyph-name="t" unicode="t" horiz-adv-x="333" 
d="M40 495l2 24h85l14 135h27l-15 -135h180l-2 -24h-180l-39 -370q-5 -58 19 -84t80 -26q41 0 90 20l-2 -27q-53 -18 -95 -18q-133 0 -119 133l39 372h-84z" />
    <glyph glyph-name="u" unicode="u" horiz-adv-x="532" 
d="M66 143l40 376h27l-40 -374q-6 -66 25 -98t119 -32q95 0 156 34l50 470h27l-51 -486q-73 -43 -183 -43q-98 0 -138 37t-32 116z" />
    <glyph glyph-name="v" unicode="v" horiz-adv-x="458" 
d="M450 519l-235 -519h-26l-141 519h28l128 -475h4l214 475h28z" />
    <glyph glyph-name="w" unicode="w" horiz-adv-x="707" 
d="M697 519l-222 -519h-26l-90 374l-151 -374h-25l-134 519h27l123 -475h3l148 367l-26 108h27l113 -475h4l202 475h27z" />
    <glyph glyph-name="x" unicode="x" horiz-adv-x="422" 
d="M412 519l-191 -255l142 -264h-30l-128 243l-180 -243h-31l197 263l-134 256h29l123 -234l172 234h31z" />
    <glyph glyph-name="y" unicode="y" horiz-adv-x="551" 
d="M486 519l-58 -559q-10 -89 -61 -129.5t-157 -40.5q-82 0 -157 24l3 25q72 -24 158 -24q89 0 134 34t53 111l8 77q-92 -37 -168 -37q-172 0 -172 161q0 12 2 38l33 320h27l-33 -316q-2 -26 -2 -37q0 -75 38.5 -108t113.5 -33q82 0 164 41l48 453h26z" />
    <glyph glyph-name="z" unicode="z" horiz-adv-x="426" 
d="M65 519h341l-3 -22l-363 -472h319l-2 -25h-352l2 21l362 473h-307z" />
    <glyph glyph-name="braceleft" unicode="{" horiz-adv-x="354" 
d="M91 339q61 -18 54 -105l-23 -213q-8 -74 24 -104t110 -30h26l-3 -25h-29q-78 0 -118 27.5t-40 98.5q0 8 2 32l23 217q4 40 -14.5 65t-48.5 25h-19l3 24h19q30 0 54 25.5t28 66.5l20 193q10 91 58 122.5t130 31.5h29l-2 -24h-26q-79 0 -116.5 -28t-44.5 -102l-19 -188
q-2 -18 -8 -37t-24 -41t-45 -28v-3z" />
    <glyph glyph-name="bar" unicode="|" horiz-adv-x="233" 
d="M63 -71l89 841h27l-89 -841h-27z" />
    <glyph glyph-name="braceright" unicode="}" horiz-adv-x="353" 
d="M267 313q-61 18 -54 105l23 213q8 74 -24 104t-110 30h-26l3 25h29q78 0 118 -27.5t40 -98.5q0 -8 -2 -32l-23 -217q-4 -40 14.5 -65t48.5 -25h19l-3 -24h-19q-30 0 -54 -25.5t-28 -66.5l-20 -193q-10 -91 -58 -122.5t-130 -31.5h-29l2 24h26q79 0 116.5 28t44.5 102
l19 188q2 18 8 37t24 41t45 28v3z" />
    <glyph glyph-name="asciitilde" unicode="~" horiz-adv-x="709" 
d="M80 283q63 74 154 74q50 0 134.5 -37.5t120.5 -37.5q71 0 145 75l-4 -32q-67 -70 -146 -70q-36 0 -119.5 37.5t-132.5 37.5q-87 0 -155 -76z" />
    <glyph glyph-name="exclamdown" unicode="&#xa1;" horiz-adv-x="215" 
d="M144 520l-13 -121h-27l12 121h28zM41 -198l53 496h25l-50 -496h-28z" />
    <glyph glyph-name="cent" unicode="&#xa2;" horiz-adv-x="503" 
d="M460 488q-70 20 -125 20h-14l-52 -493h15q53 0 134 24l-4 -25q-73 -24 -137 -24h-10l-10 -95h-24l10 97q-93 9 -141 70.5t-48 172.5q0 131 65 208t181 88l11 104h24l-11 -102h11q69 0 128 -20zM82 239q0 -202 163 -222l52 489q-111 -11 -163 -85t-52 -182z" />
    <glyph glyph-name="sterling" unicode="&#xa3;" horiz-adv-x="561" 
d="M373 589q-85 0 -134.5 -43.5t-57.5 -122.5l-10 -92h245l-3 -25h-245l-12 -114q-13 -122 -85 -167h386l-2 -25h-436l3 26q40 1 70 48.5t36 111.5l13 120h-83l2 25h83l11 94q9 89 66 139t156 50q75 0 141 -22l-2 -26q-75 23 -142 23z" />
    <glyph glyph-name="currency" unicode="&#xa4;" horiz-adv-x="535" 
d="M160 439l-72 84l16 16l74 -84q50 38 109 38t100 -39l93 85l13 -16l-92 -85q31 -40 31 -94q0 -73 -54 -125l75 -84l-17 -15l-75 84q-48 -37 -107 -37t-99 38l-95 -85l-13 15l93 86q-31 40 -31 95q0 70 51 123zM131 317q0 -54 34.5 -91.5t89.5 -37.5q62 0 108 46t46 108
q0 54 -35 92t-91 38q-62 0 -107 -46.5t-45 -108.5z" />
    <glyph glyph-name="yen" unicode="&#xa5;" horiz-adv-x="553" 
d="M112 603l159 -348h3l230 348h29l-238 -357h155l-3 -23h-165l-11 -96h166l-2 -23h-166l-11 -104h-26l10 104h-169l2 23h170l10 96h-170l3 23h158l-164 357h30z" />
    <glyph glyph-name="brokenbar" unicode="&#xa6;" horiz-adv-x="231" 
d="M112 400l39 370h27l-39 -370h-27zM62 -71l39 370h28l-40 -370h-27z" />
    <glyph glyph-name="section" unicode="&#xa7;" horiz-adv-x="558" 
d="M294 705l-2 2q-97 -1 -149.5 -50t-52.5 -124q0 -59 34 -139t74.5 -146t74.5 -142t34 -128q0 -47 -20 -90t-49 -60l1 -3q105 7 164.5 54.5t59.5 117.5q0 50 -34.5 133t-75.5 158t-75.5 158.5t-34.5 134.5q0 73 51 124zM49 -148q73 -28 126 -28q29 0 51.5 18.5t33.5 45
t16.5 50t5.5 40.5q0 51 -34 125.5t-75 140t-75 147t-34 143.5q0 36 11.5 68t38 62.5t77.5 48t122 17.5q96 0 168 -33v-25q-18 10 -62.5 21.5t-67.5 11.5q-41 0 -61.5 -38.5t-20.5 -83.5q0 -52 34.5 -135t76 -157t76 -158t34.5 -138q0 -86 -78.5 -141.5t-208.5 -55.5
q-78 0 -154 27v27z" />
    <glyph glyph-name="dieresis" unicode="&#xa8;" horiz-adv-x="361" 
d="M144 641l10 96h25l-10 -96h-25zM317 641l10 96h25l-10 -96h-25z" />
    <glyph glyph-name="copyright" unicode="&#xa9;" horiz-adv-x="740" 
d="M367 -10q-127 0 -214.5 86t-87.5 225t87.5 226t214.5 87q131 0 219.5 -86t88.5 -227q0 -138 -88.5 -224.5t-219.5 -86.5zM367 11q122 0 203.5 80.5t81.5 209.5q0 132 -81 212t-204 80q-119 0 -199.5 -80.5t-80.5 -211.5q0 -130 80.5 -210t199.5 -80zM180 304
q0 107 56 160.5t145 53.5q46 0 86 -9v-122h-20v106q-30 5 -65 5q-84 0 -132 -49t-48 -145q0 -188 179 -188q41 0 89 8v-19q-59 -9 -91 -9q-86 0 -142.5 48t-56.5 160z" />
    <glyph glyph-name="ordfeminine" unicode="&#xaa;" horiz-adv-x="499" 
d="M431 764l-42 -398q-58 -12 -108 -12q-86 0 -132 40t-46 137q0 113 62 177t171 64q40 0 95 -8zM284 376q38 0 83 8l39 361q-40 6 -76 6q-101 0 -152 -60.5t-51 -160.5q0 -80 36.5 -117t120.5 -37zM79 277l2 22h358l-2 -22h-358z" />
    <glyph glyph-name="guillemotleft" unicode="&#xab;" horiz-adv-x="426" 
d="M148 16h-24l-73 246l124 240h24l-121 -240zM337 16h-24l-73 246l124 240h24l-121 -240z" />
    <glyph glyph-name="logicalnot" unicode="&#xac;" horiz-adv-x="687" 
d="M557 104l23 214h-492l3 26h518l-26 -240h-26z" />
    <glyph glyph-name="registered" unicode="&#xae;" horiz-adv-x="650" 
d="M341 203q-109 0 -182.5 72.5t-73.5 190.5t74 191.5t183 73.5t184 -73t75 -190q0 -118 -75 -191.5t-185 -73.5zM341 223q102 0 170 68t68 177t-68 176t-169 67t-168.5 -67.5t-67.5 -177.5q0 -109 67 -176t168 -67zM449 295l-91 140h-94v-140h-19v358h87q135 0 135 -104
q0 -42 -22.5 -72t-65.5 -39l93 -143h-23zM330 636h-66v-184h80q103 0 103 95q0 41 -24 65t-93 24z" />
    <glyph glyph-name="macron" unicode="&#xaf;" horiz-adv-x="357" 
d="M114 686l2 23h270l-2 -23h-270z" />
    <glyph glyph-name="degree" unicode="&#xb0;" horiz-adv-x="474" 
d="M243 366q-82 0 -122.5 42.5t-40.5 114.5q0 89 53.5 147t150.5 58q80 0 119.5 -43.5t39.5 -115.5q0 -88 -51 -145.5t-149 -57.5zM246 388q84 0 127.5 50.5t43.5 127.5q0 139 -135 139q-85 0 -131 -51t-46 -127q0 -65 34.5 -102t106.5 -37z" />
    <glyph glyph-name="plusminus" unicode="&#xb1;" horiz-adv-x="528" 
d="M235 143l18 177h-169l2 26h169l18 170h25l-18 -170h170l-2 -26h-170l-18 -177h-25zM52 21l3 26h364l-3 -26h-364z" />
    <glyph glyph-name="twosuperior" unicode="&#xb2;" horiz-adv-x="315" 
d="M274 708q0 73 -93 73q-39 0 -86 -13l2 22q42 14 87 14q58 0 86.5 -26t28.5 -68q0 -119 -220 -307h209l-2 -23h-243l1 17q230 200 230 311z" />
    <glyph glyph-name="threesuperior" unicode="&#xb3;" horiz-adv-x="316" 
d="M202 597v-2q38 -6 61.5 -29.5t23.5 -64.5q0 -61 -42.5 -94t-110.5 -33q-40 0 -80 11l2 22q46 -11 77 -11q61 0 95.5 28t34.5 75q0 83 -121 83h-16l2 21h16q52 0 91 30.5t39 79.5q0 69 -85 69q-47 0 -89 -14l3 22q45 14 88 14q53 0 80 -24.5t27 -63.5q0 -43 -26 -74.5
t-70 -44.5z" />
    <glyph glyph-name="acute" unicode="&#xb4;" horiz-adv-x="293" 
d="M40 640l-11 20l178 118l13 -21z" />
    <glyph glyph-name="mu" unicode="&#xb5;" horiz-adv-x="574" 
d="M34 -202l76 721h26l-39 -374q-7 -64 29.5 -97t124.5 -33q49 0 102 10t83 24l50 470h26l-51 -486q-32 -18 -93 -30.5t-122 -12.5q-126 0 -159 65l-27 -257h-26z" />
    <glyph glyph-name="paragraph" unicode="&#xb6;" horiz-adv-x="582" 
d="M307 718h63l-97 -920h-27l50 470h-22q-111 0 -167 56.5t-56 148.5q0 105 70 175t186 70zM389 -202l97 920h27l-97 -920h-27z" />
    <glyph glyph-name="periodcentered" unicode="&#xb7;" horiz-adv-x="184" 
d="M69 227l13 122h28l-13 -122h-28z" />
    <glyph glyph-name="cedilla" unicode="&#xb8;" horiz-adv-x="275" 
d="M229 -132q0 -45 -32.5 -71t-98.5 -26q-46 0 -80 12l2 23q24 -12 80 -12q104 0 104 72q0 60 -89 60q-20 0 -41 -3l8 78h24l-6 -56q129 7 129 -77z" />
    <glyph glyph-name="onesuperior" unicode="&#xb9;" horiz-adv-x="243" 
d="M151 380l41 391l-121 -14l2 22l128 17h18l-44 -416h-24z" />
    <glyph glyph-name="ordmasculine" unicode="&#xba;" horiz-adv-x="498" 
d="M70 277l2 22h358l-2 -22h-358zM292 751q-75 0 -114.5 -59t-39.5 -159q0 -76 26.5 -116.5t89.5 -40.5q78 0 117 60t39 154q0 161 -118 161zM252 354q-138 0 -138 179q0 109 47.5 174t132.5 65q141 0 141 -183q0 -111 -50.5 -173t-132.5 -62z" />
    <glyph glyph-name="guillemotright" unicode="&#xbb;" horiz-adv-x="427" 
d="M242 16h-24l120 240l-69 246h24l73 -246zM53 16h-24l120 240l-69 246h24l73 -246z" />
    <glyph glyph-name="onequarter" unicode="&#xbc;" horiz-adv-x="753" 
d="M690 118h-58l-12 -118h-23l12 118h-209l2 20l239 278h23l-29 -275h57zM635 379l-206 -238h183l25 238h-2zM118 0h-28l549 718h28zM151 303l41 391l-121 -14l2 22l128 17h18l-44 -416h-24z" />
    <glyph glyph-name="onehalf" unicode="&#xbd;" horiz-adv-x="781" 
d="M109 0h-28l549 718h28zM696 328q0 73 -93 73q-39 0 -86 -13l2 22q42 14 87 14q58 0 86.5 -26t28.5 -68q0 -119 -220 -307h209l-2 -23h-243l1 17q230 200 230 311zM151 303l41 391l-121 -14l2 22l128 17h18l-44 -416h-24z" />
    <glyph glyph-name="threequarters" unicode="&#xbe;" horiz-adv-x="762" 
d="M703 118h-58l-12 -118h-23l12 118h-209l2 20l239 278h23l-29 -275h57zM648 379l-206 -238h183l25 238h-2zM137 0h-28l549 718h28zM203 524v-2q38 -6 61.5 -29.5t23.5 -64.5q0 -61 -42.5 -94t-110.5 -33q-40 0 -80 11l2 22q46 -11 77 -11q61 0 95.5 28t34.5 75
q0 83 -121 83h-16l2 21h16q52 0 91 30.5t39 79.5q0 69 -85 69q-47 0 -89 -14l3 22q45 14 88 14q53 0 80 -24.5t27 -63.5q0 -43 -26 -74.5t-70 -44.5z" />
    <glyph glyph-name="questiondown" unicode="&#xbf;" horiz-adv-x="415" 
d="M284 519l-13 -121h-28l13 121h28zM26 -88q0 -51 34 -74.5t106 -23.5q88 0 165 24l-2 -25q-78 -25 -167 -25q-164 0 -164 123q0 46 22 82.5t54 60.5t64.5 46.5t57.5 51t29 62.5l8 79h27l-8 -81q-4 -36 -29 -67t-57.5 -54t-64 -47t-53.5 -57.5t-22 -74.5z" />
    <glyph glyph-name="Agrave" unicode="&#xc0;" horiz-adv-x="614" 
d="M521 0l-53 203h-343l-93 -203h-29l331 718h30l186 -718h-29zM343 678l-206 -449h325l-115 449h-4zM372 816l-6 -22l-207 57l6 23z" />
    <glyph glyph-name="Aacute" unicode="&#xc1;" horiz-adv-x="614" 
d="M521 0l-53 203h-343l-93 -203h-29l331 718h30l186 -718h-29zM343 678l-206 -449h325l-115 449h-4zM348 794l-5 23l206 58l6 -24z" />
    <glyph glyph-name="Acircumflex" unicode="&#xc2;" horiz-adv-x="614" 
d="M521 0l-53 203h-343l-93 -203h-29l331 718h30l186 -718h-29zM343 678l-206 -449h325l-115 449h-4zM364 904l-133 -104l-12 18l137 108h20l113 -110l-17 -17z" />
    <glyph glyph-name="Atilde" unicode="&#xc3;" horiz-adv-x="614" 
d="M521 0l-53 203h-343l-93 -203h-29l331 718h30l186 -718h-29zM343 678l-206 -449h325l-115 449h-4zM226 828q29 36 76 36q25 0 63.5 -19.5t57.5 -19.5q41 0 73 40l-2 -29q-33 -36 -72 -36q-20 0 -57.5 20t-64.5 20q-42 0 -76 -39z" />
    <glyph glyph-name="Adieresis" unicode="&#xc4;" horiz-adv-x="614" 
d="M521 0l-53 203h-343l-93 -203h-29l331 718h30l186 -718h-29zM343 678l-206 -449h325l-115 449h-4zM255 812l10 95h25l-10 -95h-25zM428 812l10 95h25l-10 -95h-25z" />
    <glyph glyph-name="Aring" unicode="&#xc5;" horiz-adv-x="614" 
d="M521 0l-53 203h-343l-93 -203h-29l331 718h30l186 -718h-29zM343 678l-206 -449h325l-115 449h-4zM350 768q-47 0 -72.5 24.5t-25.5 69.5q0 52 33 87.5t89 35.5q48 0 73 -27t25 -71q0 -52 -32.5 -85.5t-89.5 -33.5zM353 789q44 0 70.5 27.5t26.5 68.5q0 35 -20.5 57
t-58.5 22q-45 0 -70.5 -28.5t-25.5 -70.5q0 -36 20 -56t58 -20z" />
    <glyph glyph-name="AE" unicode="&#xc6;" horiz-adv-x="835" 
d="M829 718l-2 -26h-358l-31 -297h308l-2 -26h-309l-36 -343h357l-2 -26h-384l21 203h-261l-130 -203h-30l460 718h399zM146 229h247l49 463z" />
    <glyph glyph-name="Ccedilla" unicode="&#xc7;" horiz-adv-x="609" 
d="M510 -132q0 -45 -32.5 -71t-98.5 -26q-46 0 -80 12l2 23q24 -12 80 -12q104 0 104 72q0 60 -89 60q-20 0 -41 -3l7 68q-129 6 -212 85t-83 243q0 106 30.5 186t85.5 127.5t124.5 70.5t153.5 23q80 0 148 -16l-2 -26q-59 16 -147 16q-168 0 -266.5 -94t-98.5 -284
q0 -154 78 -230t214 -76q73 0 156 13l-3 -25q-92 -14 -154 -14l-5 -45q129 7 129 -77z" />
    <glyph glyph-name="Egrave" unicode="&#xc8;" horiz-adv-x="587" 
d="M149 718h429l-2 -26h-403l-31 -298h364l-3 -25h-364l-36 -343h403l-3 -26h-429zM442 816l-6 -22l-207 57l6 23z" />
    <glyph glyph-name="Eacute" unicode="&#xc9;" horiz-adv-x="587" 
d="M149 718h429l-2 -26h-403l-31 -298h364l-3 -25h-364l-36 -343h403l-3 -26h-429zM306 794l-5 23l206 58l6 -24z" />
    <glyph glyph-name="Ecircumflex" unicode="&#xca;" horiz-adv-x="587" 
d="M149 718h429l-2 -26h-403l-31 -298h364l-3 -25h-364l-36 -343h403l-3 -26h-429zM391 904l-133 -104l-12 18l137 108h20l113 -110l-17 -17z" />
    <glyph glyph-name="Edieresis" unicode="&#xcb;" horiz-adv-x="587" 
d="M149 718h429l-2 -26h-403l-31 -298h364l-3 -25h-364l-36 -343h403l-3 -26h-429zM271 812l10 95h25l-10 -95h-25zM444 812l10 95h25l-10 -95h-25z" />
    <glyph glyph-name="Igrave" unicode="&#xcc;" horiz-adv-x="239" 
d="M176 718l-75 -718h-27l75 718h27zM196 816l-6 -22l-207 57l6 23z" />
    <glyph glyph-name="Iacute" unicode="&#xcd;" horiz-adv-x="239" 
d="M176 718l-75 -718h-27l75 718h27zM157 794l-5 23l206 58l6 -24z" />
    <glyph glyph-name="Icircumflex" unicode="&#xce;" horiz-adv-x="239" 
d="M176 718l-75 -718h-27l75 718h27zM185 903l-133 -104l-12 18l137 108h20l113 -110l-17 -17z" />
    <glyph glyph-name="Idieresis" unicode="&#xcf;" horiz-adv-x="239" 
d="M176 718l-75 -718h-27l75 718h27zM73 812l10 95h25l-10 -95h-25zM246 812l10 95h25l-10 -95h-25z" />
    <glyph glyph-name="Eth" unicode="&#xd0;" horiz-adv-x="725" 
d="M671 411q0 -61 -10 -115t-39 -110t-75 -95.5t-123 -65t-178 -25.5h-166l37 357h-92l2 25h93l35 336h179q183 0 260 -77.5t77 -229.5zM320 357h-176l-35 -331h141q107 0 185.5 29.5t122.5 83.5t64.5 120.5t20.5 148.5q0 147 -71 215.5t-245 68.5h-147l-33 -310h175z" />
    <glyph glyph-name="Ntilde" unicode="&#xd1;" horiz-adv-x="728" 
d="M284 828q29 36 76 36q25 0 63.5 -19.5t57.5 -19.5q41 0 73 40l-2 -29q-33 -36 -72 -36q-20 0 -57.5 20t-64.5 20q-42 0 -76 -39zM565 0l-391 668h-3l-70 -668h-27l75 718h27l390 -666h4l68 666h28l-75 -718h-26z" />
    <glyph glyph-name="Ograve" unicode="&#xd2;" horiz-adv-x="757" 
d="M448 816l-6 -22l-207 57l6 23zM348 15q148 0 237 104.5t89 283.5q0 152 -66.5 227t-186.5 75q-152 0 -239.5 -109.5t-87.5 -282.5q0 -151 67.5 -224.5t186.5 -73.5zM345 -10q-123 0 -201 77t-78 243q0 186 97 303.5t261 117.5q131 0 204.5 -83t73.5 -243
q0 -194 -101 -304.5t-256 -110.5z" />
    <glyph glyph-name="Oacute" unicode="&#xd3;" horiz-adv-x="757" 
d="M381 794l-5 23l206 58l6 -24zM348 15q148 0 237 104.5t89 283.5q0 152 -66.5 227t-186.5 75q-152 0 -239.5 -109.5t-87.5 -282.5q0 -151 67.5 -224.5t186.5 -73.5zM345 -10q-123 0 -201 77t-78 243q0 186 97 303.5t261 117.5q131 0 204.5 -83t73.5 -243
q0 -194 -101 -304.5t-256 -110.5z" />
    <glyph glyph-name="Ocircumflex" unicode="&#xd4;" horiz-adv-x="757" 
d="M348 15q148 0 237 104.5t89 283.5q0 152 -66.5 227t-186.5 75q-152 0 -239.5 -109.5t-87.5 -282.5q0 -151 67.5 -224.5t186.5 -73.5zM345 -10q-123 0 -201 77t-78 243q0 186 97 303.5t261 117.5q131 0 204.5 -83t73.5 -243q0 -194 -101 -304.5t-256 -110.5zM446 904
l-133 -104l-12 18l137 108h20l113 -110l-17 -17z" />
    <glyph glyph-name="Otilde" unicode="&#xd5;" horiz-adv-x="757" 
d="M303 828q29 36 76 36q25 0 63.5 -19.5t57.5 -19.5q41 0 73 40l-2 -29q-33 -36 -72 -36q-20 0 -57.5 20t-64.5 20q-41 0 -76 -39zM348 15q148 0 237 104.5t89 283.5q0 152 -66.5 227t-186.5 75q-152 0 -239.5 -109.5t-87.5 -282.5q0 -151 67.5 -224.5t186.5 -73.5z
M345 -10q-123 0 -201 77t-78 243q0 186 97 303.5t261 117.5q131 0 204.5 -83t73.5 -243q0 -194 -101 -304.5t-256 -110.5z" />
    <glyph glyph-name="Odieresis" unicode="&#xd6;" horiz-adv-x="757" 
d="M336 812l10 95h25l-10 -95h-25zM509 812l10 95h25l-10 -95h-25zM348 15q148 0 237 104.5t89 283.5q0 152 -66.5 227t-186.5 75q-152 0 -239.5 -109.5t-87.5 -282.5q0 -151 67.5 -224.5t186.5 -73.5zM345 -10q-123 0 -201 77t-78 243q0 186 97 303.5t261 117.5
q131 0 204.5 -83t73.5 -243q0 -194 -101 -304.5t-256 -110.5z" />
    <glyph glyph-name="multiply" unicode="&#xd7;" horiz-adv-x="453" 
d="M81 181l-16 18l145 132l-113 127l20 18l113 -127l144 132l17 -17l-146 -133l121 -137l-21 -18l-119 136z" />
    <glyph glyph-name="Oslash" unicode="&#xd8;" horiz-adv-x="757" 
d="M345 -10q-124 0 -197 73l-53 -63h-30l68 80q-67 80 -67 230q0 186 97 303.5t261 117.5q125 0 197 -76l54 63h29l-68 -80q66 -85 66 -233q0 -194 -101 -304.5t-256 -110.5zM94 313q0 -137 57 -212l453 533q-65 71 -183 71q-152 0 -239.5 -109.5t-87.5 -282.5zM348 15
q148 0 237 104.5t89 283.5q0 138 -56 214l-452 -534q65 -68 182 -68z" />
    <glyph glyph-name="Ugrave" unicode="&#xd9;" horiz-adv-x="712" 
d="M476 816l-6 -22l-207 57l6 23zM121 258q-2 -26 -2 -39q0 -99 56.5 -151.5t153.5 -52.5q109 0 175.5 69t78.5 185l47 449h28l-48 -452q-12 -117 -84 -196.5t-200 -79.5q-100 0 -167.5 54.5t-67.5 167.5q0 27 2 42l49 464h28z" />
    <glyph glyph-name="Uacute" unicode="&#xda;" horiz-adv-x="712" 
d="M353 794l-5 23l206 58l6 -24zM121 258q-2 -26 -2 -39q0 -99 56.5 -151.5t153.5 -52.5q109 0 175.5 69t78.5 185l47 449h28l-48 -452q-12 -117 -84 -196.5t-200 -79.5q-100 0 -167.5 54.5t-67.5 167.5q0 27 2 42l49 464h28z" />
    <glyph glyph-name="Ucircumflex" unicode="&#xdb;" horiz-adv-x="712" 
d="M121 258q-2 -26 -2 -39q0 -99 56.5 -151.5t153.5 -52.5q109 0 175.5 69t78.5 185l47 449h28l-48 -452q-12 -117 -84 -196.5t-200 -79.5q-100 0 -167.5 54.5t-67.5 167.5q0 27 2 42l49 464h28zM418 904l-133 -104l-12 18l137 108h20l113 -110l-17 -17z" />
    <glyph glyph-name="Udieresis" unicode="&#xdc;" horiz-adv-x="712" 
d="M307 812l10 95h25l-10 -95h-25zM480 812l10 95h25l-10 -95h-25zM121 258q-2 -26 -2 -39q0 -99 56.5 -151.5t153.5 -52.5q109 0 175.5 69t78.5 185l47 449h28l-48 -452q-12 -117 -84 -196.5t-200 -79.5q-100 0 -167.5 54.5t-67.5 167.5q0 27 2 42l49 464h28z" />
    <glyph glyph-name="Yacute" unicode="&#xdd;" horiz-adv-x="586" 
d="M108 718l182 -417h4l268 417h30l-289 -447l-28 -271h-27l28 269l-198 449h30zM258 794l-5 23l206 58l6 -24z" />
    <glyph glyph-name="Thorn" unicode="&#xde;" horiz-adv-x="612" 
d="M176 718l-12 -110h161q134 0 192.5 -48.5t58.5 -149.5q0 -46 -12 -85.5t-40.5 -77t-85.5 -59t-137 -21.5h-183l-17 -167h-27l75 718h27zM319 582h-157l-41 -389h183q244 0 244 215q0 88 -50.5 131t-178.5 43z" />
    <glyph glyph-name="germandbls" unicode="&#xdf;" horiz-adv-x="591" 
d="M234 364q0 42 29.5 70.5t72 44t84.5 31.5t71.5 45t29.5 73q0 51 -39.5 83t-120.5 32q-100 0 -155.5 -47t-61.5 -106l-69 -653q-8 -82 -42.5 -114.5t-93.5 -32.5q-43 0 -82 16l3 26q39 -17 82 -17q52 0 76 28.5t30 92.5l69 654q8 80 78.5 129t170.5 49q81 0 132 -34.5
t51 -103.5q0 -49 -29.5 -82t-72 -49.5t-84.5 -31t-71.5 -39.5t-29.5 -62q0 -17 7 -30.5t16.5 -22t28 -15.5t33 -10.5t39.5 -8.5q38 -8 59.5 -15t45.5 -21t35 -38.5t11 -59.5q0 -75 -54 -115t-160 -40q-60 0 -125 16l2 26q51 -16 124 -16q96 0 140 31t44 95q0 40 -19.5 64
t-38.5 30.5t-64 15.5q-9 2 -13 3q-25 5 -40 9t-36 13t-33 19.5t-21 28t-9 39.5z" />
    <glyph glyph-name="agrave" unicode="&#xe0;" horiz-adv-x="528" 
d="M466 517l-55 -512q-68 -15 -131 -15q-113 0 -172 51.5t-59 178.5q0 146 77.5 227.5t215.5 81.5q53 0 124 -12zM282 15q49 0 104 11l51 471q-50 7 -99 7q-132 0 -196.5 -77.5t-64.5 -207.5q0 -106 47.5 -155t157.5 -49zM394 660l-12 -20l-179 117l13 21z" />
    <glyph glyph-name="aacute" unicode="&#xe1;" horiz-adv-x="528" 
d="M466 517l-55 -512q-68 -15 -131 -15q-113 0 -172 51.5t-59 178.5q0 146 77.5 227.5t215.5 81.5q53 0 124 -12zM282 15q49 0 104 11l51 471q-50 7 -99 7q-132 0 -196.5 -77.5t-64.5 -207.5q0 -106 47.5 -155t157.5 -49zM300 638l-11 20l178 118l13 -21z" />
    <glyph glyph-name="acircumflex" unicode="&#xe2;" horiz-adv-x="528" 
d="M466 517l-55 -512q-68 -15 -131 -15q-113 0 -172 51.5t-59 178.5q0 146 77.5 227.5t215.5 81.5q53 0 124 -12zM282 15q49 0 104 11l51 471q-50 7 -99 7q-132 0 -196.5 -77.5t-64.5 -207.5q0 -106 47.5 -155t157.5 -49zM348 738l-139 -125l-12 17l143 131h20l111 -132
l-15 -16z" />
    <glyph glyph-name="atilde" unicode="&#xe3;" horiz-adv-x="528" 
d="M466 517l-55 -512q-68 -15 -131 -15q-113 0 -172 51.5t-59 178.5q0 146 77.5 227.5t215.5 81.5q53 0 124 -12zM282 15q49 0 104 11l51 471q-50 7 -99 7q-132 0 -196.5 -77.5t-64.5 -207.5q0 -106 47.5 -155t157.5 -49zM203 676q31 36 76 36q25 0 62.5 -19.5t58.5 -19.5
q40 0 74 40l-2 -27q-34 -38 -74 -38q-22 0 -58 20t-68 20q-37 0 -72 -39z" />
    <glyph glyph-name="adieresis" unicode="&#xe4;" horiz-adv-x="528" 
d="M466 517l-55 -512q-68 -15 -131 -15q-113 0 -172 51.5t-59 178.5q0 146 77.5 227.5t215.5 81.5q53 0 124 -12zM282 15q49 0 104 11l51 471q-50 7 -99 7q-132 0 -196.5 -77.5t-64.5 -207.5q0 -106 47.5 -155t157.5 -49zM228 641l10 96h25l-10 -96h-25zM401 641l10 96h25
l-10 -96h-25z" />
    <glyph glyph-name="aring" unicode="&#xe5;" horiz-adv-x="528" 
d="M466 517l-55 -512q-68 -15 -131 -15q-113 0 -172 51.5t-59 178.5q0 146 77.5 227.5t215.5 81.5q53 0 124 -12zM282 15q49 0 104 11l51 471q-50 7 -99 7q-132 0 -196.5 -77.5t-64.5 -207.5q0 -106 47.5 -155t157.5 -49zM334 587q-47 0 -72.5 25.5t-25.5 70.5q0 51 33 86
t89 35q48 0 73.5 -27t25.5 -71q0 -51 -33 -85t-90 -34zM337 607q45 0 71 28t26 70q0 35 -20.5 56.5t-58.5 21.5q-45 0 -70.5 -28.5t-25.5 -70.5q0 -35 20.5 -56t57.5 -21z" />
    <glyph glyph-name="ae" unicode="&#xe6;" horiz-adv-x="779" 
d="M739 406q0 -36 -13 -64t-45 -46.5t-53.5 -30.5t-73 -21.5t-67.5 -11.5t-70 -8l-9 -1.5t-7.5 -1t-8.5 -0.5q2 -206 197 -206q52 0 105 15l-2 -25q-56 -15 -111 -15q-153 0 -198 115q-36 -50 -95 -82.5t-118 -32.5q-57 0 -100.5 32.5t-43.5 94.5q0 36 16 64t46.5 45
t62 28.5t76 16.5t73 7t67.5 3q1 10 5 30l5 48q9 80 -39 114.5t-127 34.5q-57 0 -131 -21l3 25q76 21 136 21q72 0 124.5 -31.5t58.5 -98.5q31 62 82 96t115 34t102 -34t38 -93zM598 508q-94 0 -147.5 -74.5t-58.5 -188.5q156 15 221 40q100 39 100 118q0 42 -26 73.5
t-89 31.5zM364 226q0 21 1 32q-313 -6 -313 -139q0 -46 32.5 -75t86.5 -29q58 0 114.5 33.5t89.5 80.5q-11 38 -11 97z" />
    <glyph glyph-name="ccedilla" unicode="&#xe7;" horiz-adv-x="416" 
d="M369 -132q0 -45 -32.5 -71t-98.5 -26q-46 0 -80 12l2 23q24 -12 80 -12q104 0 104 72q0 60 -89 60q-20 0 -41 -3l7 70q-88 10 -129.5 65t-41.5 163q0 140 65.5 224t188.5 84q45 0 85 -13l-2 -24q-48 12 -80 12q-66 0 -113 -25t-71.5 -68t-35 -89.5t-10.5 -99.5
q0 -103 41.5 -155t139.5 -52q50 0 93 14l-2 -25q-47 -14 -83 -14q-14 0 -21 1l-5 -46q129 7 129 -77z" />
    <glyph glyph-name="egrave" unicode="&#xe8;" horiz-adv-x="465" 
d="M426 402q0 -23 -7 -43t-17 -35.5t-28 -28.5t-33.5 -21.5t-42 -16.5t-43.5 -12t-47 -8.5t-45 -6.5t-45 -5l-40 -4q2 -206 198 -206q51 0 104 15l-1 -25q-57 -15 -111 -15q-218 0 -218 236q0 137 66 220t169 83q64 0 102.5 -34t38.5 -93zM284 504q-94 0 -147.5 -73
t-58.5 -186q145 14 202 31q119 37 119 123q0 42 -26 73.5t-89 31.5zM330 660l-12 -20l-179 117l13 21z" />
    <glyph glyph-name="eacute" unicode="&#xe9;" horiz-adv-x="465" 
d="M426 402q0 -23 -7 -43t-17 -35.5t-28 -28.5t-33.5 -21.5t-42 -16.5t-43.5 -12t-47 -8.5t-45 -6.5t-45 -5l-40 -4q2 -206 198 -206q51 0 104 15l-1 -25q-57 -15 -111 -15q-218 0 -218 236q0 137 66 220t169 83q64 0 102.5 -34t38.5 -93zM284 504q-94 0 -147.5 -73
t-58.5 -186q145 14 202 31q119 37 119 123q0 42 -26 73.5t-89 31.5zM259 640l-11 20l178 118l13 -21z" />
    <glyph glyph-name="ecircumflex" unicode="&#xea;" horiz-adv-x="465" 
d="M426 402q0 -23 -7 -43t-17 -35.5t-28 -28.5t-33.5 -21.5t-42 -16.5t-43.5 -12t-47 -8.5t-45 -6.5t-45 -5l-40 -4q2 -206 198 -206q51 0 104 15l-1 -25q-57 -15 -111 -15q-218 0 -218 236q0 137 66 220t169 83q64 0 102.5 -34t38.5 -93zM284 504q-94 0 -147.5 -73
t-58.5 -186q145 14 202 31q119 37 119 123q0 42 -26 73.5t-89 31.5zM304 738l-139 -125l-12 17l143 131h20l111 -132l-15 -16z" />
    <glyph glyph-name="edieresis" unicode="&#xeb;" horiz-adv-x="465" 
d="M426 402q0 -23 -7 -43t-17 -35.5t-28 -28.5t-33.5 -21.5t-42 -16.5t-43.5 -12t-47 -8.5t-45 -6.5t-45 -5l-40 -4q2 -206 198 -206q51 0 104 15l-1 -25q-57 -15 -111 -15q-218 0 -218 236q0 137 66 220t169 83q64 0 102.5 -34t38.5 -93zM284 504q-94 0 -147.5 -73
t-58.5 -186q145 14 202 31q119 37 119 123q0 42 -26 73.5t-89 31.5zM364 641l10 96h25l-10 -96h-25zM191 641l10 96h25l-10 -96h-25z" />
    <glyph glyph-name="igrave" unicode="&#xec;" horiz-adv-x="201" 
d="M137 519l-55 -519h-27l55 519h27zM158 660l-12 -20l-179 117l13 21z" />
    <glyph glyph-name="iacute" unicode="&#xed;" horiz-adv-x="201" 
d="M123 640l-11 20l178 118l13 -21zM137 519l-55 -519h-27l55 519h27z" />
    <glyph glyph-name="icircumflex" unicode="&#xee;" horiz-adv-x="201" 
d="M150 738l-139 -125l-12 17l143 131h20l111 -132l-15 -16zM137 519l-55 -519h-27l55 519h27z" />
    <glyph glyph-name="idieresis" unicode="&#xef;" horiz-adv-x="201" 
d="M35 641l10 96h25l-10 -96h-25zM208 641l10 96h25l-10 -96h-25zM137 519l-55 -519h-27l55 519h27z" />
    <glyph glyph-name="eth" unicode="&#xf0;" horiz-adv-x="542" 
d="M415 761l-79 -75q143 -141 143 -372q0 -65 -11.5 -119t-37.5 -102t-75 -75.5t-117 -27.5q-96 0 -141 58t-45 176q0 142 59.5 225.5t188.5 83.5q66 0 121 -26q-33 93 -104 161l-102 -97l-16 17l101 95q-37 34 -95 68l15 22q54 -31 100 -72l81 77zM451 313q0 88 -20 163
q-56 32 -131 32q-220 0 -220 -281q0 -104 36.5 -158t126.5 -54q208 0 208 298z" />
    <glyph glyph-name="ntilde" unicode="&#xf1;" horiz-adv-x="535" 
d="M460 376l-40 -376h-27l40 374q7 71 -28 100.5t-138 29.5q-85 0 -134 -9l-51 -495h-27l54 517q69 12 158 12q113 0 157 -34t36 -119zM169 676q31 36 76 36q25 0 62.5 -19.5t58.5 -19.5q40 0 74 40l-2 -27q-34 -38 -74 -38q-22 0 -58 20t-68 20q-37 0 -72 -39z" />
    <glyph glyph-name="ograve" unicode="&#xf2;" horiz-adv-x="521" 
d="M278 504q-97 0 -148 -77.5t-51 -208.5q0 -99 34 -151t115 -52q102 0 153 78t51 201q0 210 -154 210zM226 -10q-175 0 -175 229q0 141 60.5 225.5t169.5 84.5q179 0 179 -236q0 -144 -64 -223.5t-170 -79.5zM319 660l-12 -20l-179 117l13 21z" />
    <glyph glyph-name="oacute" unicode="&#xf3;" horiz-adv-x="521" 
d="M262 640l-11 20l178 118l13 -21zM278 504q-97 0 -148 -77.5t-51 -208.5q0 -99 34 -151t115 -52q102 0 153 78t51 201q0 210 -154 210zM226 -10q-175 0 -175 229q0 141 60.5 225.5t169.5 84.5q179 0 179 -236q0 -144 -64 -223.5t-170 -79.5z" />
    <glyph glyph-name="ocircumflex" unicode="&#xf4;" horiz-adv-x="521" 
d="M304 738l-139 -125l-12 17l143 131h20l111 -132l-15 -16zM278 504q-97 0 -148 -77.5t-51 -208.5q0 -99 34 -151t115 -52q102 0 153 78t51 201q0 210 -154 210zM226 -10q-175 0 -175 229q0 141 60.5 225.5t169.5 84.5q179 0 179 -236q0 -144 -64 -223.5t-170 -79.5z" />
    <glyph glyph-name="otilde" unicode="&#xf5;" horiz-adv-x="521" 
d="M278 504q-97 0 -148 -77.5t-51 -208.5q0 -99 34 -151t115 -52q102 0 153 78t51 201q0 210 -154 210zM226 -10q-175 0 -175 229q0 141 60.5 225.5t169.5 84.5q179 0 179 -236q0 -144 -64 -223.5t-170 -79.5zM159 676q31 36 76 36q25 0 62.5 -19.5t58.5 -19.5q40 0 74 40
l-2 -27q-34 -38 -74 -38q-22 0 -58 20t-68 20q-37 0 -72 -39z" />
    <glyph glyph-name="odieresis" unicode="&#xf6;" horiz-adv-x="521" 
d="M191 641l10 96h25l-10 -96h-25zM364 641l10 96h25l-10 -96h-25zM278 504q-97 0 -148 -77.5t-51 -208.5q0 -99 34 -151t115 -52q102 0 153 78t51 201q0 210 -154 210zM226 -10q-175 0 -175 229q0 141 60.5 225.5t169.5 84.5q179 0 179 -236q0 -144 -64 -223.5t-170 -79.5z
" />
    <glyph glyph-name="divide" unicode="&#xf7;" horiz-adv-x="538" 
d="M77 317l3 26h385l-3 -26h-385zM237 121l13 122h25l-12 -122h-26zM268 415l13 123h25l-12 -123h-26z" />
    <glyph glyph-name="oslash" unicode="&#xf8;" horiz-adv-x="521" 
d="M227 -10q-82 0 -126 50l-30 -40h-29l45 59q-35 57 -35 160q0 141 60.5 225.5t169.5 84.5q82 0 127 -51l31 41h29l-46 -60q38 -61 38 -166q0 -144 -64 -223.5t-170 -79.5zM433 294q0 91 -28 141l-287 -374q35 -46 111 -46q102 0 153 78t51 201zM279 504q-97 0 -148 -77.5
t-51 -208.5q0 -89 25 -136l286 374q-37 48 -112 48z" />
    <glyph glyph-name="ugrave" unicode="&#xf9;" horiz-adv-x="532" 
d="M66 143l40 376h27l-40 -374q-6 -66 25 -98t119 -32q95 0 156 34l50 470h27l-51 -486q-73 -43 -183 -43q-98 0 -138 37t-32 116zM335 660l-12 -20l-179 117l13 21z" />
    <glyph glyph-name="uacute" unicode="&#xfa;" horiz-adv-x="532" 
d="M66 143l40 376h27l-40 -374q-6 -66 25 -98t119 -32q95 0 156 34l50 470h27l-51 -486q-73 -43 -183 -43q-98 0 -138 37t-32 116zM269 640l-11 20l178 118l13 -21z" />
    <glyph glyph-name="ucircumflex" unicode="&#xfb;" horiz-adv-x="532" 
d="M66 143l40 376h27l-40 -374q-6 -66 25 -98t119 -32q95 0 156 34l50 470h27l-51 -486q-73 -43 -183 -43q-98 0 -138 37t-32 116zM307 738l-139 -125l-12 17l143 131h20l111 -132l-15 -16z" />
    <glyph glyph-name="udieresis" unicode="&#xfc;" horiz-adv-x="532" 
d="M66 143l40 376h27l-40 -374q-6 -66 25 -98t119 -32q95 0 156 34l50 470h27l-51 -486q-73 -43 -183 -43q-98 0 -138 37t-32 116zM368 641l10 96h25l-10 -96h-25zM195 641l10 96h25l-10 -96h-25z" />
    <glyph glyph-name="yacute" unicode="&#xfd;" horiz-adv-x="551" 
d="M486 519l-58 -559q-10 -89 -61 -129.5t-157 -40.5q-82 0 -157 24l3 25q72 -24 158 -24q89 0 134 34t53 111l8 77q-92 -37 -168 -37q-172 0 -172 161q0 12 2 38l33 320h27l-33 -316q-2 -26 -2 -37q0 -75 38.5 -108t113.5 -33q82 0 164 41l48 453h26zM256 640l-11 20
l178 118l13 -21z" />
    <glyph glyph-name="thorn" unicode="&#xfe;" horiz-adv-x="532" 
d="M82 -1l-21 -201h-27l101 959h27l-25 -234q59 10 106 10q115 0 173 -55t58 -179q0 -143 -74 -226t-211 -83q-43 0 -107 9zM189 15q69 0 120.5 23t80 63t42 89t13.5 107q0 112 -48.5 161.5t-155.5 49.5q-60 0 -106 -10l-50 -473q63 -10 104 -10z" />
    <glyph glyph-name="ydieresis" unicode="&#xff;" horiz-adv-x="551" 
d="M486 519l-58 -559q-10 -89 -61 -129.5t-157 -40.5q-82 0 -157 24l3 25q72 -24 158 -24q89 0 134 34t53 111l8 77q-92 -37 -168 -37q-172 0 -172 161q0 12 2 38l33 320h27l-33 -316q-2 -26 -2 -37q0 -75 38.5 -108t113.5 -33q82 0 164 41l48 453h26zM377 641l10 96h25
l-10 -96h-25zM204 641l10 96h25l-10 -96h-25z" />
    <glyph glyph-name="Amacron" unicode="&#x100;" horiz-adv-x="614" 
d="M521 0l-53 203h-343l-93 -203h-29l331 718h30l186 -718h-29zM343 678l-206 -449h325l-115 449h-4zM221 828l2 24h269l-2 -24h-269z" />
    <glyph glyph-name="amacron" unicode="&#x101;" horiz-adv-x="528" 
d="M466 517l-55 -512q-68 -15 -131 -15q-113 0 -172 51.5t-59 178.5q0 146 77.5 227.5t215.5 81.5q53 0 124 -12zM282 15q49 0 104 11l51 471q-50 7 -99 7q-132 0 -196.5 -77.5t-64.5 -207.5q0 -106 47.5 -155t157.5 -49zM193 686l2 23h270l-2 -23h-270z" />
    <glyph glyph-name="Abreve" unicode="&#x102;" horiz-adv-x="614" 
d="M521 0l-53 203h-343l-93 -203h-29l331 718h30l186 -718h-29zM343 678l-206 -449h325l-115 449h-4zM354 799q92 0 103 100h23q-6 -59 -39 -90.5t-90 -31.5q-55 0 -81.5 31t-20.5 91h23q-5 -42 13 -71t69 -29z" />
    <glyph glyph-name="abreve" unicode="&#x103;" horiz-adv-x="528" 
d="M466 517l-55 -512q-68 -15 -131 -15q-113 0 -172 51.5t-59 178.5q0 146 77.5 227.5t215.5 81.5q53 0 124 -12zM282 15q49 0 104 11l51 471q-50 7 -99 7q-132 0 -196.5 -77.5t-64.5 -207.5q0 -106 47.5 -155t157.5 -49zM341 648q89 0 101 111h24q-7 -60 -40.5 -96.5
t-87.5 -36.5q-51 0 -78.5 36.5t-20.5 96.5h22q-5 -43 12.5 -77t67.5 -34z" />
    <glyph glyph-name="Aogonek" unicode="&#x104;" horiz-adv-x="614" 
d="M562 -225q-46 -12 -77 -12q-43 0 -69 22t-26 68q0 96 128 156l-50 194h-343l-93 -203h-29l331 718h30l186 -718h-14q-122 -59 -122 -143q0 -71 73 -71q41 0 77 10zM343 678l-206 -449h325l-115 449h-4z" />
    <glyph glyph-name="aogonek" unicode="&#x105;" horiz-adv-x="528" 
d="M405 -225q-46 -12 -77 -12q-43 0 -69 22t-26 68q0 84 96 139q-36 -2 -49 -2q-113 0 -172 51.5t-59 178.5q0 146 77.5 227.5t215.5 81.5q53 0 124 -12l-55 -512q-13 -3 -37 -7q-117 -58 -117 -141q0 -71 73 -71q41 0 77 10zM282 15q49 0 104 11l51 471q-50 7 -99 7
q-132 0 -196.5 -77.5t-64.5 -207.5q0 -106 47.5 -155t157.5 -49z" />
    <glyph glyph-name="Cacute" unicode="&#x106;" horiz-adv-x="609" 
d="M95 322q0 -154 78 -230t214 -76q73 0 156 13l-3 -25q-94 -14 -157 -14q-64 0 -118.5 17.5t-100 54.5t-71.5 103t-26 154q0 106 30.5 186t85.5 127.5t124.5 70.5t153.5 23q80 0 148 -16l-2 -26q-59 16 -147 16q-168 0 -266.5 -94t-98.5 -284zM368 794l-5 23l206 58l6 -24z
" />
    <glyph glyph-name="cacute" unicode="&#x107;" horiz-adv-x="416" 
d="M232 640l-11 20l178 118l13 -21zM387 492q-48 12 -80 12q-66 0 -113 -25t-71.5 -68t-35 -89.5t-10.5 -99.5q0 -103 41.5 -155t139.5 -52q50 0 93 14l-2 -25q-47 -14 -83 -14q-112 0 -164 55.5t-52 175.5q0 140 65.5 224t188.5 84q45 0 85 -13z" />
    <glyph glyph-name="Ccircumflex" unicode="&#x108;" horiz-adv-x="609" 
d="M95 322q0 -154 78 -230t214 -76q73 0 156 13l-3 -25q-94 -14 -157 -14q-64 0 -118.5 17.5t-100 54.5t-71.5 103t-26 154q0 106 30.5 186t85.5 127.5t124.5 70.5t153.5 23q80 0 148 -16l-2 -26q-59 16 -147 16q-168 0 -266.5 -94t-98.5 -284zM453 904l-133 -104l-12 18
l137 108h20l113 -110l-17 -17z" />
    <glyph glyph-name="ccircumflex" unicode="&#x109;" horiz-adv-x="416" 
d="M295 738l-139 -125l-12 17l143 131h20l111 -132l-15 -16zM387 492q-48 12 -80 12q-66 0 -113 -25t-71.5 -68t-35 -89.5t-10.5 -99.5q0 -103 41.5 -155t139.5 -52q50 0 93 14l-2 -25q-47 -14 -83 -14q-112 0 -164 55.5t-52 175.5q0 140 65.5 224t188.5 84q45 0 85 -13z
" />
    <glyph glyph-name="Cdotaccent" unicode="&#x10a;" horiz-adv-x="609" 
d="M437 812l10 94h26l-10 -94h-26zM95 322q0 -154 78 -230t214 -76q73 0 156 13l-3 -25q-94 -14 -157 -14q-64 0 -118.5 17.5t-100 54.5t-71.5 103t-26 154q0 106 30.5 186t85.5 127.5t124.5 70.5t153.5 23q80 0 148 -16l-2 -26q-59 16 -147 16q-168 0 -266.5 -94
t-98.5 -284z" />
    <glyph glyph-name="cdotaccent" unicode="&#x10b;" horiz-adv-x="416" 
d="M387 492q-48 12 -80 12q-66 0 -113 -25t-71.5 -68t-35 -89.5t-10.5 -99.5q0 -103 41.5 -155t139.5 -52q50 0 93 14l-2 -25q-47 -14 -83 -14q-112 0 -164 55.5t-52 175.5q0 140 65.5 224t188.5 84q45 0 85 -13zM277 641l10 96h25l-10 -96h-25z" />
    <glyph glyph-name="Ccaron" unicode="&#x10c;" horiz-adv-x="609" 
d="M95 322q0 -154 78 -230t214 -76q73 0 156 13l-3 -25q-94 -14 -157 -14q-64 0 -118.5 17.5t-100 54.5t-71.5 103t-26 154q0 106 30.5 186t85.5 127.5t124.5 70.5t153.5 23q80 0 148 -16l-2 -26q-59 16 -147 16q-168 0 -266.5 -94t-98.5 -284zM436 806l132 103l12 -16
l-136 -111h-20l-113 109l16 17z" />
    <glyph glyph-name="ccaron" unicode="&#x10d;" horiz-adv-x="416" 
d="M285 637l137 126l14 -16l-143 -132h-20l-112 133l17 15zM387 492q-48 12 -80 12q-66 0 -113 -25t-71.5 -68t-35 -89.5t-10.5 -99.5q0 -103 41.5 -155t139.5 -52q50 0 93 14l-2 -25q-47 -14 -83 -14q-112 0 -164 55.5t-52 175.5q0 140 65.5 224t188.5 84q45 0 85 -13z" />
    <glyph glyph-name="Dcaron" unicode="&#x10e;" horiz-adv-x="720" 
d="M666 411q0 -61 -10 -115t-39 -110t-75 -95.5t-123 -65t-178 -25.5h-166l75 718h179q183 0 260 -77.5t77 -229.5zM322 692h-147l-71 -666h141q107 0 185.5 29.5t122.5 83.5t64.5 120.5t20.5 148.5q0 147 -71 215.5t-245 68.5zM368 806l132 103l12 -16l-136 -111h-20
l-113 109l16 17z" />
    <glyph glyph-name="dcaron" unicode="&#x10f;" horiz-adv-x="541" 
d="M439 521l25 236h27l-79 -751q-74 -16 -136 -16q-226 0 -226 232q0 144 76 225.5t215 81.5q42 0 98 -8zM337 504q-132 0 -195.5 -76t-63.5 -202q0 -113 49.5 -162t151.5 -49q57 0 108 12l49 468q-43 9 -99 9zM610 757l-31 -208h-24l30 208h25z" />
    <glyph glyph-name="Dcroat" unicode="&#x110;" horiz-adv-x="725" 
d="M671 411q0 -61 -10 -115t-39 -110t-75 -95.5t-123 -65t-178 -25.5h-166l37 357h-92l2 25h93l35 336h179q183 0 260 -77.5t77 -229.5zM320 357h-176l-35 -331h141q107 0 185.5 29.5t122.5 83.5t64.5 120.5t20.5 148.5q0 147 -71 215.5t-245 68.5h-147l-33 -310h175z" />
    <glyph glyph-name="dcroat" unicode="&#x111;" horiz-adv-x="529" 
d="M454 663l10 94h27l-10 -94h92l-2 -23h-93l-66 -634q-74 -16 -136 -16q-226 0 -226 232q0 144 76 225.5t215 81.5q42 0 98 -8l12 119h-198l2 23h199zM337 504q-132 0 -195.5 -76t-63.5 -202q0 -113 49.5 -162t151.5 -49q57 0 108 12l49 468q-43 9 -99 9z" />
    <glyph glyph-name="Emacron" unicode="&#x112;" horiz-adv-x="587" 
d="M149 718h429l-2 -26h-403l-31 -298h364l-3 -25h-364l-36 -343h403l-3 -26h-429zM238 828l2 24h269l-2 -24h-269z" />
    <glyph glyph-name="emacron" unicode="&#x113;" horiz-adv-x="465" 
d="M426 402q0 -23 -7 -43t-17 -35.5t-28 -28.5t-33.5 -21.5t-42 -16.5t-43.5 -12t-47 -8.5t-45 -6.5t-45 -5l-40 -4q2 -206 198 -206q51 0 104 15l-1 -25q-57 -15 -111 -15q-218 0 -218 236q0 137 66 220t169 83q64 0 102.5 -34t38.5 -93zM284 504q-94 0 -147.5 -73
t-58.5 -186q145 14 202 31q119 37 119 123q0 42 -26 73.5t-89 31.5zM167 686l2 23h270l-2 -23h-270z" />
    <glyph glyph-name="Ebreve" unicode="&#x114;" horiz-adv-x="587" 
d="M149 718h429l-2 -26h-403l-31 -298h364l-3 -25h-364l-36 -343h403l-3 -26h-429zM371 799q92 0 103 100h23q-6 -59 -39 -90.5t-90 -31.5q-55 0 -81.5 31t-20.5 91h23q-5 -42 13 -71t69 -29z" />
    <glyph glyph-name="ebreve" unicode="&#x115;" horiz-adv-x="465" 
d="M426 402q0 -23 -7 -43t-17 -35.5t-28 -28.5t-33.5 -21.5t-42 -16.5t-43.5 -12t-47 -8.5t-45 -6.5t-45 -5l-40 -4q2 -206 198 -206q51 0 104 15l-1 -25q-57 -15 -111 -15q-218 0 -218 236q0 137 66 220t169 83q64 0 102.5 -34t38.5 -93zM284 504q-94 0 -147.5 -73
t-58.5 -186q145 14 202 31q119 37 119 123q0 42 -26 73.5t-89 31.5zM289 649q89 0 101 111h24q-7 -60 -40.5 -96.5t-87.5 -36.5q-51 0 -78.5 36.5t-20.5 96.5h22q-5 -43 12.5 -77t67.5 -34z" />
    <glyph glyph-name="Edotaccent" unicode="&#x116;" horiz-adv-x="587" 
d="M149 718h429l-2 -26h-403l-31 -298h364l-3 -25h-364l-36 -343h403l-3 -26h-429zM368 812l10 94h26l-10 -94h-26z" />
    <glyph glyph-name="edotaccent" unicode="&#x117;" horiz-adv-x="465" 
d="M426 402q0 -23 -7 -43t-17 -35.5t-28 -28.5t-33.5 -21.5t-42 -16.5t-43.5 -12t-47 -8.5t-45 -6.5t-45 -5l-40 -4q2 -206 198 -206q51 0 104 15l-1 -25q-57 -15 -111 -15q-218 0 -218 236q0 137 66 220t169 83q64 0 102.5 -34t38.5 -93zM284 504q-94 0 -147.5 -73
t-58.5 -186q145 14 202 31q119 37 119 123q0 42 -26 73.5t-89 31.5zM274 641l10 96h25l-10 -96h-25z" />
    <glyph glyph-name="Eogonek" unicode="&#x118;" horiz-adv-x="587" 
d="M485 -225q-46 -12 -77 -12q-43 0 -69 22t-26 68q0 90 110 147h-349l75 718h429l-2 -26h-403l-31 -298h364l-3 -25h-364l-36 -343h403l-3 -26h-44q-122 -59 -122 -143q0 -71 73 -71q41 0 77 10z" />
    <glyph glyph-name="eogonek" unicode="&#x119;" horiz-adv-x="465" 
d="M380 -224q-46 -12 -77 -12q-43 0 -69 22t-26 68q0 83 92 137q-11 -1 -32 -1q-218 0 -218 236q0 137 66 220t169 83q64 0 102.5 -34t38.5 -93q0 -23 -7 -43t-17 -35.5t-28 -28.5t-33.5 -21.5t-42 -16.5t-43.5 -12t-47 -8.5t-45 -6.5t-45 -5l-40 -4q2 -206 198 -206
q51 0 104 15l-1 -25l-33 -7q-114 -59 -114 -140q0 -71 73 -71q41 0 77 10zM284 504q-94 0 -147.5 -73t-58.5 -186q145 14 202 31q119 37 119 123q0 42 -26 73.5t-89 31.5z" />
    <glyph glyph-name="Ecaron" unicode="&#x11a;" horiz-adv-x="587" 
d="M149 718h429l-2 -26h-403l-31 -298h364l-3 -25h-364l-36 -343h403l-3 -26h-429zM367 806l132 103l12 -16l-136 -111h-20l-113 109l16 17z" />
    <glyph glyph-name="ecaron" unicode="&#x11b;" horiz-adv-x="465" 
d="M426 402q0 -23 -7 -43t-17 -35.5t-28 -28.5t-33.5 -21.5t-42 -16.5t-43.5 -12t-47 -8.5t-45 -6.5t-45 -5l-40 -4q2 -206 198 -206q51 0 104 15l-1 -25q-57 -15 -111 -15q-218 0 -218 236q0 137 66 220t169 83q64 0 102.5 -34t38.5 -93zM284 504q-94 0 -147.5 -73
t-58.5 -186q145 14 202 31q119 37 119 123q0 42 -26 73.5t-89 31.5zM284 637l137 126l14 -16l-143 -132h-20l-112 133l17 15z" />
    <glyph glyph-name="Gcircumflex" unicode="&#x11c;" horiz-adv-x="669" 
d="M396 354h206l-35 -338q-97 -26 -180 -26q-50 0 -94.5 10t-87 33.5t-72.5 60t-48.5 93t-18.5 128.5q0 105 32 186.5t88 130.5t126.5 74t153.5 25q86 0 164 -18l-3 -25q-67 17 -162 17q-166 0 -268 -99t-102 -288q0 -153 80 -227.5t215 -74.5q76 0 152 17l29 295h-177z
M477 904l-133 -104l-12 18l137 108h20l113 -110l-17 -17z" />
    <glyph glyph-name="gcircumflex" unicode="&#x11d;" horiz-adv-x="530" 
d="M465 517h1l-59 -557q-16 -170 -219 -170q-83 0 -157 24l2 25q74 -24 155 -24q177 0 192 144l8 76q-58 -25 -127 -25q-210 0 -210 224q0 144 76.5 219.5t208.5 75.5q57 0 129 -12zM332 504q-123 0 -188 -71t-65 -196q0 -107 46.5 -154.5t140.5 -47.5q64 0 125 26l45 434
q-56 9 -104 9zM338 738l-139 -125l-12 17l143 131h20l111 -132l-15 -16z" />
    <glyph glyph-name="Gbreve" unicode="&#x11e;" horiz-adv-x="669" 
d="M396 354h206l-35 -338q-97 -26 -180 -26q-50 0 -94.5 10t-87 33.5t-72.5 60t-48.5 93t-18.5 128.5q0 105 32 186.5t88 130.5t126.5 74t153.5 25q86 0 164 -18l-3 -25q-67 17 -162 17q-166 0 -268 -99t-102 -288q0 -153 80 -227.5t215 -74.5q76 0 152 17l29 295h-177z
M463 799q92 0 103 100h23q-6 -59 -39 -90.5t-90 -31.5q-55 0 -81.5 31t-20.5 91h23q-5 -42 13 -71t69 -29z" />
    <glyph glyph-name="gbreve" unicode="&#x11f;" horiz-adv-x="530" 
d="M465 517h1l-59 -557q-16 -170 -219 -170q-83 0 -157 24l2 25q74 -24 155 -24q177 0 192 144l8 76q-58 -25 -127 -25q-210 0 -210 224q0 144 76.5 219.5t208.5 75.5q57 0 129 -12zM332 504q-123 0 -188 -71t-65 -196q0 -107 46.5 -154.5t140.5 -47.5q64 0 125 26l45 434
q-56 9 -104 9zM335 648q89 0 101 111h24q-7 -60 -40.5 -96.5t-87.5 -36.5q-51 0 -78.5 36.5t-20.5 96.5h22q-5 -43 12.5 -77t67.5 -34z" />
    <glyph glyph-name="Gdotaccent" unicode="&#x120;" horiz-adv-x="669" 
d="M396 354h206l-35 -338q-97 -26 -180 -26q-50 0 -94.5 10t-87 33.5t-72.5 60t-48.5 93t-18.5 128.5q0 105 32 186.5t88 130.5t126.5 74t153.5 25q86 0 164 -18l-3 -25q-67 17 -162 17q-166 0 -268 -99t-102 -288q0 -153 80 -227.5t215 -74.5q76 0 152 17l29 295h-177z
M444 812l10 94h26l-10 -94h-26z" />
    <glyph glyph-name="gdotaccent" unicode="&#x121;" horiz-adv-x="530" 
d="M465 517h1l-59 -557q-16 -170 -219 -170q-83 0 -157 24l2 25q74 -24 155 -24q177 0 192 144l8 76q-58 -25 -127 -25q-210 0 -210 224q0 144 76.5 219.5t208.5 75.5q57 0 129 -12zM332 504q-123 0 -188 -71t-65 -196q0 -107 46.5 -154.5t140.5 -47.5q64 0 125 26l45 434
q-56 9 -104 9zM320 641l10 96h25l-10 -96h-25z" />
    <glyph glyph-name="Gcommaaccent" unicode="&#x122;" horiz-adv-x="669" 
d="M396 354h206l-35 -338q-97 -26 -180 -26q-50 0 -94.5 10t-87 33.5t-72.5 60t-48.5 93t-18.5 128.5q0 105 32 186.5t88 130.5t126.5 74t153.5 25q86 0 164 -18l-3 -25q-67 17 -162 17q-166 0 -268 -99t-102 -288q0 -153 80 -227.5t215 -74.5q76 0 152 17l29 295h-177z
M345 -249l25 183h25l-27 -183h-23z" />
    <glyph glyph-name="gcommaaccent" unicode="&#x123;" horiz-adv-x="530" 
d="M465 517h1l-59 -557q-16 -170 -219 -170q-83 0 -157 24l2 25q74 -24 155 -24q177 0 192 144l8 76q-58 -25 -127 -25q-210 0 -210 224q0 144 76.5 219.5t208.5 75.5q57 0 129 -12zM332 504q-123 0 -188 -71t-65 -196q0 -107 46.5 -154.5t140.5 -47.5q64 0 125 26l45 434
q-56 9 -104 9zM365 814l-25 -183h-25l27 183h23z" />
    <glyph glyph-name="Hcircumflex" unicode="&#x124;" horiz-adv-x="707" 
d="M645 718l-75 -718h-28l37 358h-441l-37 -358h-27l75 718h27l-35 -335h441l35 335h28zM416 904l-133 -104l-12 18l137 108h20l113 -110l-17 -17z" />
    <glyph glyph-name="hcircumflex" unicode="&#x125;" horiz-adv-x="535" 
d="M460 376l-40 -376h-27l39 374q7 63 -20.5 96.5t-107.5 33.5q-96 0 -173 -41l-49 -463h-27l80 757h27l-28 -266q90 38 170 38q87 0 125.5 -37t30.5 -116zM166 909l-139 -125l-12 17l143 131h20l111 -132l-15 -16z" />
    <glyph glyph-name="Hbar" unicode="&#x126;" horiz-adv-x="710" 
d="M647 718l-12 -112h81l-3 -24h-80l-61 -582h-28l37 358h-441l-37 -358h-27l61 582h-74l2 24h74l12 112h27l-12 -112h441l12 112h28zM164 582l-21 -199h441l21 199h-441z" />
    <glyph glyph-name="hbar" unicode="&#x127;" horiz-adv-x="535" 
d="M461 376l-40 -376h-27l39 374q7 63 -20.5 96.5t-107.5 33.5q-96 0 -173 -41l-49 -463h-27l67 641h-89l3 23h89l10 93h27l-10 -93h201l-3 -23h-200l-16 -150q90 38 170 38q87 0 125.5 -37t30.5 -116z" />
    <glyph glyph-name="Itilde" unicode="&#x128;" horiz-adv-x="239" 
d="M176 718l-75 -718h-27l75 718h27zM39 828q29 36 76 36q25 0 63.5 -19.5t57.5 -19.5q41 0 73 40l-2 -29q-33 -36 -72 -36q-20 0 -57.5 20t-64.5 20q-41 0 -76 -39z" />
    <glyph glyph-name="itilde" unicode="&#x129;" horiz-adv-x="201" 
d="M137 519l-55 -519h-27l55 519h27zM8 676q31 36 76 36q25 0 62.5 -19.5t58.5 -19.5q40 0 74 40l-2 -27q-34 -38 -74 -38q-22 0 -58 20t-68 20q-37 0 -72 -39z" />
    <glyph glyph-name="Imacron" unicode="&#x12a;" horiz-adv-x="239" 
d="M176 718l-75 -718h-27l75 718h27zM39 828l2 24h269l-2 -24h-269z" />
    <glyph glyph-name="imacron" unicode="&#x12b;" horiz-adv-x="201" 
d="M137 519l-55 -519h-27l55 519h27zM8 686l2 23h270l-2 -23h-270z" />
    <glyph glyph-name="Ibreve" unicode="&#x12c;" horiz-adv-x="239" 
d="M176 718l-75 -718h-27l75 718h27zM173 799q92 0 103 100h23q-6 -59 -39 -90.5t-90 -31.5q-55 0 -81.5 31t-20.5 91h23q-5 -42 13 -71t69 -29z" />
    <glyph glyph-name="ibreve" unicode="&#x12d;" horiz-adv-x="201" 
d="M137 519l-55 -519h-27l55 519h27zM134 648q89 0 101 111h24q-7 -60 -40.5 -96.5t-87.5 -36.5q-51 0 -78.5 36.5t-20.5 96.5h22q-5 -43 12.5 -77t67.5 -34z" />
    <glyph glyph-name="Iogonek" unicode="&#x12e;" horiz-adv-x="239" 
d="M117 -225q-46 -12 -77 -12q-43 0 -69 22t-26 68q0 98 130 156l74 709h27l-75 -718h-10q-122 -59 -122 -143q0 -71 73 -71q41 0 77 10z" />
    <glyph glyph-name="iogonek" unicode="&#x12f;" horiz-adv-x="202" 
d="M99 -225q-46 -12 -77 -12q-43 0 -69 22t-26 68q0 96 129 156l54 510h27l-55 -519h-9q-122 -59 -122 -143q0 -71 73 -71q41 0 77 10zM123 654l12 116h27l-12 -116h-27z" />
    <glyph glyph-name="Idotaccent" unicode="&#x130;" horiz-adv-x="239" 
d="M176 718l-75 -718h-27l75 718h27zM160 812l10 94h26l-10 -94h-26z" />
    <glyph glyph-name="dotlessi" unicode="&#x131;" horiz-adv-x="201" 
d="M137 519l-55 -519h-27l55 519h27z" />
    <glyph glyph-name="IJ" unicode="&#x132;" horiz-adv-x="618" 
d="M176 718l-75 -718h-27l75 718h27zM480 194l55 524h27l-54 -525q-12 -106 -59.5 -155t-138.5 -49q-51 0 -86 7l3 27q29 -7 85 -7q83 0 121 45.5t47 132.5z" />
    <glyph glyph-name="ij" unicode="&#x133;" horiz-adv-x="402" 
d="M123 654l12 116h27l-12 -116h-27zM137 519l-55 -519h-27l55 519h27zM325 654l13 116h27l-13 -116h-27zM337 519l-54 -523q-12 -115 -38.5 -160.5t-97.5 -45.5q-24 0 -62 7l3 26q33 -6 59 -6t44 8.5t29 20.5t18 38.5t10.5 48t7.5 63.5l55 523h26z" />
    <glyph glyph-name="Jcircumflex" unicode="&#x134;" horiz-adv-x="379" 
d="M241 194l55 524h27l-54 -525q-12 -106 -59.5 -155t-138.5 -49q-51 0 -86 7l3 27q29 -7 85 -7q83 0 121 45.5t47 132.5zM322 904l-133 -104l-12 18l137 108h20l113 -110l-17 -17z" />
    <glyph glyph-name="jcircumflex" unicode="&#x135;" horiz-adv-x="201" 
d="M145 738l-139 -125l-12 17l143 131h20l111 -132l-15 -16zM136 519l-54 -523q-12 -115 -38.5 -160.5t-97.5 -45.5q-24 0 -62 7l3 26q33 -6 59 -6t44 8.5t29 20.5t18 38.5t10.5 48t7.5 63.5l55 523h26z" />
    <glyph glyph-name="Kcommaaccent" unicode="&#x136;" horiz-adv-x="576" 
d="M176 718l-35 -334h100l320 334h33l-330 -345l267 -373h-32l-258 358h-103l-37 -358h-27l75 718h27zM223 -249l25 183h25l-27 -183h-23z" />
    <glyph glyph-name="kcommaaccent" unicode="&#x137;" horiz-adv-x="448" 
d="M103 205l-21 -205h-27l80 757h27l-56 -525q105 53 196.5 139t92.5 148h27q0 -49 -53 -113t-134 -123l158 -283h-30l-149 269q-58 -40 -111 -64zM168 -249l25 183h25l-27 -183h-23z" />
    <glyph glyph-name="Lacute" unicode="&#x139;" horiz-adv-x="519" 
d="M176 718l-73 -692h374l-3 -26h-400l75 718h27zM157 794l-5 23l206 58l6 -24z" />
    <glyph glyph-name="lacute" unicode="&#x13a;" horiz-adv-x="207" 
d="M138 814l-5 23l206 58l6 -24zM164 757l-79 -757h-27l79 757h27z" />
    <glyph glyph-name="Lcommaaccent" unicode="&#x13b;" horiz-adv-x="519" 
d="M176 718l-73 -692h374l-3 -26h-400l75 718h27zM243 -249l25 183h25l-27 -183h-23z" />
    <glyph glyph-name="lcommaaccent" unicode="&#x13c;" horiz-adv-x="207" 
d="M27 -249l25 183h25l-27 -183h-23zM164 757l-79 -757h-27l79 757h27z" />
    <glyph glyph-name="Lcaron" unicode="&#x13d;" horiz-adv-x="521" 
d="M176 718l-73 -692h374l-3 -26h-400l75 718h27zM408 718l-31 -208h-24l30 208h25z" />
    <glyph glyph-name="lcaron" unicode="&#x13e;" horiz-adv-x="215" 
d="M164 757l-79 -757h-27l79 757h27zM283 757l-31 -208h-24l30 208h25z" />
    <glyph glyph-name="Ldot" unicode="&#x13f;" horiz-adv-x="519" 
d="M176 718l-73 -692h374l-3 -26h-400l75 718h27zM322 285l13 121h27l-12 -121h-28z" />
    <glyph glyph-name="ldot" unicode="&#x140;" horiz-adv-x="271" 
d="M164 757l-79 -757h-27l79 757h27zM222 279l13 121h27l-12 -121h-28z" />
    <glyph glyph-name="Lslash" unicode="&#x141;" 
d="M189 718l-36 -345l184 96l-3 -27l-184 -95l-34 -321h374l-3 -26h-400l34 332l-117 -61l3 26l117 61l38 360h27z" />
    <glyph glyph-name="lslash" unicode="&#x142;" horiz-adv-x="299" 
d="M207 757l-37 -352l115 61l-3 -27l-115 -61l-39 -378h-27l38 363l-111 -58l3 26l110 58l39 368h27z" />
    <glyph glyph-name="Nacute" unicode="&#x143;" horiz-adv-x="728" 
d="M354 794l-5 23l206 58l6 -24zM565 0l-391 668h-3l-70 -668h-27l75 718h27l390 -666h4l68 666h28l-75 -718h-26z" />
    <glyph glyph-name="nacute" unicode="&#x144;" horiz-adv-x="535" 
d="M460 376l-40 -376h-27l40 374q7 71 -28 100.5t-138 29.5q-85 0 -134 -9l-51 -495h-27l54 517q69 12 158 12q113 0 157 -34t36 -119zM277 640l-11 20l178 118l13 -21z" />
    <glyph glyph-name="Ncommaaccent" unicode="&#x145;" horiz-adv-x="728" 
d="M284 -249l25 183h25l-27 -183h-23zM565 0l-391 668h-3l-70 -668h-27l75 718h27l390 -666h4l68 666h28l-75 -718h-26z" />
    <glyph glyph-name="ncommaaccent" unicode="&#x146;" horiz-adv-x="535" 
d="M460 376l-40 -376h-27l40 374q7 71 -28 100.5t-138 29.5q-85 0 -134 -9l-51 -495h-27l54 517q69 12 158 12q113 0 157 -34t36 -119zM193 -249l25 183h25l-27 -183h-23z" />
    <glyph glyph-name="Ncaron" unicode="&#x147;" horiz-adv-x="728" 
d="M421 806l132 103l12 -16l-136 -111h-20l-113 109l16 17zM565 0l-391 668h-3l-70 -668h-27l75 718h27l390 -666h4l68 666h28l-75 -718h-26z" />
    <glyph glyph-name="ncaron" unicode="&#x148;" horiz-adv-x="535" 
d="M460 376l-40 -376h-27l40 374q7 71 -28 100.5t-138 29.5q-85 0 -134 -9l-51 -495h-27l54 517q69 12 158 12q113 0 157 -34t36 -119zM300 637l137 126l14 -16l-143 -132h-20l-112 133l17 15z" />
    <glyph glyph-name="napostrophe" unicode="&#x149;" horiz-adv-x="535" 
d="M460 376l-40 -376h-27l40 374q7 71 -28 100.5t-138 29.5q-85 0 -134 -9l-51 -495h-27l54 517q69 12 158 12q113 0 157 -34t36 -119zM186 848q-13 -121 -81 -228h-27q67 114 79 228h29z" />
    <glyph glyph-name="Eng" unicode="&#x14a;" horiz-adv-x="728" 
d="M564 2l-390 664h-3l-70 -666h-27l75 718h27l390 -665h3l69 665h28l-76 -721q-11 -102 -57.5 -139.5t-136.5 -37.5q-49 0 -88 7l3 27q31 -7 88 -7q80 0 116.5 34.5t48.5 120.5z" />
    <glyph glyph-name="eng" unicode="&#x14b;" horiz-adv-x="534" 
d="M392 -4l40 381q2 22 2 30q0 51 -31.5 75.5t-112.5 24.5t-158 -22l-51 -485h-27l53 504q86 28 184 28q90 0 130 -29.5t40 -94.5q0 -9 -2 -29l-41 -383q-12 -115 -38 -160.5t-97 -45.5q-24 0 -62 7l3 26q33 -6 59 -6t44.5 8.5t29 20.5t18 38.5t10.5 48.5t7 63z" />
    <glyph glyph-name="Omacron" unicode="&#x14c;" horiz-adv-x="757" 
d="M298 828l2 24h269l-2 -24h-269zM348 15q148 0 237 104.5t89 283.5q0 152 -66.5 227t-186.5 75q-152 0 -239.5 -109.5t-87.5 -282.5q0 -151 67.5 -224.5t186.5 -73.5zM345 -10q-123 0 -201 77t-78 243q0 186 97 303.5t261 117.5q131 0 204.5 -83t73.5 -243
q0 -194 -101 -304.5t-256 -110.5z" />
    <glyph glyph-name="omacron" unicode="&#x14d;" horiz-adv-x="521" 
d="M163 686l2 23h270l-2 -23h-270zM278 504q-97 0 -148 -77.5t-51 -208.5q0 -99 34 -151t115 -52q102 0 153 78t51 201q0 210 -154 210zM226 -10q-175 0 -175 229q0 141 60.5 225.5t169.5 84.5q179 0 179 -236q0 -144 -64 -223.5t-170 -79.5z" />
    <glyph glyph-name="Obreve" unicode="&#x14e;" horiz-adv-x="757" 
d="M432 799q92 0 103 100h23q-6 -59 -39 -90.5t-90 -31.5q-55 0 -81.5 31t-20.5 91h23q-5 -42 13 -71t69 -29zM348 15q148 0 237 104.5t89 283.5q0 152 -66.5 227t-186.5 75q-152 0 -239.5 -109.5t-87.5 -282.5q0 -151 67.5 -224.5t186.5 -73.5zM345 -10q-123 0 -201 77
t-78 243q0 186 97 303.5t261 117.5q131 0 204.5 -83t73.5 -243q0 -194 -101 -304.5t-256 -110.5z" />
    <glyph glyph-name="obreve" unicode="&#x14f;" horiz-adv-x="521" 
d="M278 504q-97 0 -148 -77.5t-51 -208.5q0 -99 34 -151t115 -52q102 0 153 78t51 201q0 210 -154 210zM226 -10q-175 0 -175 229q0 141 60.5 225.5t169.5 84.5q179 0 179 -236q0 -144 -64 -223.5t-170 -79.5zM289 648q89 0 101 111h24q-7 -60 -40.5 -96.5t-87.5 -36.5
q-51 0 -78.5 36.5t-20.5 96.5h22q-5 -43 12.5 -77t67.5 -34z" />
    <glyph glyph-name="Ohungarumlaut" unicode="&#x150;" horiz-adv-x="757" 
d="M348 15q148 0 237 104.5t89 283.5q0 152 -66.5 227t-186.5 75q-152 0 -239.5 -109.5t-87.5 -282.5q0 -151 67.5 -224.5t186.5 -73.5zM345 -10q-123 0 -201 77t-78 243q0 186 97 303.5t261 117.5q131 0 204.5 -83t73.5 -243q0 -194 -101 -304.5t-256 -110.5zM437 794
l-5 22l206 60l6 -25zM300 793l-15 17l165 136l16 -19z" />
    <glyph glyph-name="ohungarumlaut" unicode="&#x151;" horiz-adv-x="521" 
d="M345 641l-10 20l190 119l10 -22zM199 640l-15 18l168 149l15 -18zM278 504q-97 0 -148 -77.5t-51 -208.5q0 -99 34 -151t115 -52q102 0 153 78t51 201q0 210 -154 210zM226 -10q-175 0 -175 229q0 141 60.5 225.5t169.5 84.5q179 0 179 -236q0 -144 -64 -223.5
t-170 -79.5z" />
    <glyph glyph-name="OE" unicode="&#x152;" horiz-adv-x="971" 
d="M546 718h416l-2 -26h-403l-31 -298h364l-3 -25h-364l-36 -343h403l-3 -26h-422q-49 -10 -103 -10q-61 0 -112.5 18t-94 55.5t-66.5 101.5t-24 149q0 186 107 301.5t268 115.5q54 0 106 -13zM364 16q56 0 96 9l70 668q-40 12 -85 12q-156 0 -253.5 -107.5t-97.5 -280.5
q0 -148 73.5 -224.5t196.5 -76.5z" />
    <glyph glyph-name="oe" unicode="&#x153;" horiz-adv-x="855" 
d="M226 -10q-175 0 -175 229q0 141 60.5 225.5t169.5 84.5q156 0 176 -180q26 85 83.5 132.5t134.5 47.5q64 0 102.5 -34t38.5 -93q0 -23 -7 -43t-17 -35.5t-28 -28.5t-33.5 -21.5t-42 -16.5t-43.5 -12t-47 -8.5t-45 -6.5t-45 -5l-40 -4q2 -206 198 -206q51 0 104 15l-1 -25
q-57 -15 -111 -15q-190 0 -214 177q-24 -86 -81.5 -131.5t-136.5 -45.5zM278 504q-97 0 -148 -77.5t-51 -208.5q0 -99 34 -151t115 -52q102 0 153 78t51 201q0 210 -154 210zM674 504q-94 0 -147.5 -73t-58.5 -186q145 14 202 31q119 37 119 123q0 42 -26 73.5t-89 31.5z
" />
    <glyph glyph-name="Racute" unicode="&#x154;" horiz-adv-x="617" 
d="M497 0l-138 306q-28 -2 -43 -2h-183l-32 -304h-27l75 718h183q132 0 187 -47t55 -143q0 -190 -188 -219l141 -309h-30zM328 692h-155l-38 -362h180q129 0 180 53t51 142q0 86 -46.5 126.5t-171.5 40.5zM278 794l-5 23l206 58l6 -24z" />
    <glyph glyph-name="racute" unicode="&#x155;" horiz-adv-x="318" 
d="M302 528l-3 -25q-5 0 -15.5 0.5t-16.5 0.5q-84 0 -133 -9l-52 -495h-27l54 517q69 12 158 12q23 0 35 -1zM188 640l-11 20l178 118l13 -21z" />
    <glyph glyph-name="Rcommaaccent" unicode="&#x156;" horiz-adv-x="617" 
d="M332 718q132 0 187 -47t55 -143q0 -190 -188 -219l141 -309h-30l-138 306q-28 -2 -43 -2h-183l-32 -304h-27l75 718h183zM328 692h-155l-38 -362h180q129 0 180 53t51 142q0 86 -46.5 126.5t-171.5 40.5zM235 -249l25 183h25l-27 -183h-23z" />
    <glyph glyph-name="rcommaaccent" unicode="&#x157;" horiz-adv-x="318" 
d="M302 528l-3 -25q-5 0 -15.5 0.5t-16.5 0.5q-84 0 -133 -9l-52 -495h-27l54 517q69 12 158 12q23 0 35 -1zM26 -249l25 183h25l-27 -183h-23z" />
    <glyph glyph-name="Rcaron" unicode="&#x158;" horiz-adv-x="617" 
d="M497 0l-138 306q-28 -2 -43 -2h-183l-32 -304h-27l75 718h183q132 0 187 -47t55 -143q0 -190 -188 -219l141 -309h-30zM328 692h-155l-38 -362h180q129 0 180 53t51 142q0 86 -46.5 126.5t-171.5 40.5zM350 806l132 103l12 -16l-136 -111h-20l-113 109l16 17z" />
    <glyph glyph-name="rcaron" unicode="&#x159;" horiz-adv-x="318" 
d="M302 528l-3 -25q-5 0 -15.5 0.5t-16.5 0.5q-84 0 -133 -9l-52 -495h-27l54 517q69 12 158 12q23 0 35 -1zM244 637l137 126l14 -16l-143 -132h-20l-112 133l17 15z" />
    <glyph glyph-name="Sacute" unicode="&#x15a;" 
d="M202 16q109 0 172.5 46.5t63.5 143.5q0 40 -10.5 66.5t-36 43.5t-53 26.5t-74.5 19.5q-35 7 -57 13.5t-47 19.5t-39.5 29t-24 43t-9.5 62q0 105 73 153.5t185 48.5q67 0 152 -18l-3 -26q-80 18 -150 18q-47 0 -85.5 -8t-72 -27t-52.5 -53.5t-19 -83.5q0 -32 9 -55.5
t21 -37.5t36.5 -25t43.5 -16.5t54 -12.5q36 -8 55.5 -13.5t49 -19t44.5 -30.5t27 -46.5t12 -69.5q0 -76 -38.5 -126.5t-96 -70.5t-131.5 -20q-83 0 -173 22l3 26q75 -22 171 -22zM267 794l-5 23l206 58l6 -24z" />
    <glyph glyph-name="sacute" unicode="&#x15b;" horiz-adv-x="425" 
d="M202 640l-11 20l178 118l13 -21zM28 32q49 -16 125 -16q95 0 139 29.5t44 92.5q0 26 -8 45t-17.5 29.5t-31 19t-35 11.5t-43.5 9q-34 7 -53 13.5t-42 20t-33.5 37t-10.5 58.5q0 148 198 148q38 0 107 -12l-4 -26q-60 12 -104 12q-79 0 -124 -26t-45 -93q0 -30 8.5 -49.5
t29 -31t36.5 -16t49 -11.5q32 -7 48 -11.5t39.5 -14.5t34.5 -23t20 -34.5t9 -50.5q0 -152 -212 -152q-62 0 -127 16z" />
    <glyph glyph-name="Scircumflex" unicode="&#x15c;" 
d="M349 904l-133 -104l-12 18l137 108h20l113 -110l-17 -17zM202 16q109 0 172.5 46.5t63.5 143.5q0 40 -10.5 66.5t-36 43.5t-53 26.5t-74.5 19.5q-35 7 -57 13.5t-47 19.5t-39.5 29t-24 43t-9.5 62q0 105 73 153.5t185 48.5q67 0 152 -18l-3 -26q-80 18 -150 18
q-47 0 -85.5 -8t-72 -27t-52.5 -53.5t-19 -83.5q0 -32 9 -55.5t21 -37.5t36.5 -25t43.5 -16.5t54 -12.5q36 -8 55.5 -13.5t49 -19t44.5 -30.5t27 -46.5t12 -69.5q0 -76 -38.5 -126.5t-96 -70.5t-131.5 -20q-83 0 -173 22l3 26q75 -22 171 -22z" />
    <glyph glyph-name="scircumflex" unicode="&#x15d;" horiz-adv-x="425" 
d="M257 738l-139 -125l-12 17l143 131h20l111 -132l-15 -16zM28 32q49 -16 125 -16q95 0 139 29.5t44 92.5q0 26 -8 45t-17.5 29.5t-31 19t-35 11.5t-43.5 9q-34 7 -53 13.5t-42 20t-33.5 37t-10.5 58.5q0 148 198 148q38 0 107 -12l-4 -26q-60 12 -104 12q-79 0 -124 -26
t-45 -93q0 -30 8.5 -49.5t29 -31t36.5 -16t49 -11.5q32 -7 48 -11.5t39.5 -14.5t34.5 -23t20 -34.5t9 -50.5q0 -152 -212 -152q-62 0 -127 16z" />
    <glyph glyph-name="Scedilla" unicode="&#x15e;" 
d="M202 16q109 0 172.5 46.5t63.5 143.5q0 40 -10.5 66.5t-36 43.5t-53 26.5t-74.5 19.5q-35 7 -57 13.5t-47 19.5t-39.5 29t-24 43t-9.5 62q0 105 73 153.5t185 48.5q67 0 152 -18l-3 -26q-80 18 -150 18q-47 0 -85.5 -8t-72 -27t-52.5 -53.5t-19 -83.5q0 -32 9 -55.5
t21 -37.5t36.5 -25t43.5 -16.5t54 -12.5q36 -8 55.5 -13.5t49 -19t44.5 -30.5t27 -46.5t12 -69.5q0 -105 -66.5 -157t-171.5 -59l-5 -46q129 7 129 -77q0 -45 -32.5 -71t-98.5 -26q-46 0 -80 12l2 23q24 -12 80 -12q104 0 104 72q0 60 -89 60q-20 0 -41 -3l7 67h-4
q-83 0 -173 22l3 26q75 -22 171 -22z" />
    <glyph glyph-name="scedilla" unicode="&#x15f;" horiz-adv-x="425" 
d="M297 -132q0 -45 -32.5 -71t-98.5 -26q-46 0 -80 12l2 23q24 -12 80 -12q104 0 104 72q0 60 -89 60q-20 0 -41 -3l7 67q-54 0 -124 16l3 26q49 -16 125 -16q95 0 139 29.5t44 92.5q0 26 -8 45t-17.5 29.5t-31 19t-35 11.5t-43.5 9q-34 7 -53 13.5t-42 20t-33.5 37
t-10.5 58.5q0 148 198 148q38 0 107 -12l-4 -26q-60 12 -104 12q-79 0 -124 -26t-45 -93q0 -30 8.5 -49.5t29 -31t36.5 -16t49 -11.5q32 -7 48 -11.5t39.5 -14.5t34.5 -23t20 -34.5t9 -50.5q0 -144 -191 -151l-5 -46q129 7 129 -77z" />
    <glyph glyph-name="Scaron" unicode="&#x160;" 
d="M333 806l132 103l12 -16l-136 -111h-20l-113 109l16 17zM202 16q109 0 172.5 46.5t63.5 143.5q0 40 -10.5 66.5t-36 43.5t-53 26.5t-74.5 19.5q-35 7 -57 13.5t-47 19.5t-39.5 29t-24 43t-9.5 62q0 105 73 153.5t185 48.5q67 0 152 -18l-3 -26q-80 18 -150 18
q-47 0 -85.5 -8t-72 -27t-52.5 -53.5t-19 -83.5q0 -32 9 -55.5t21 -37.5t36.5 -25t43.5 -16.5t54 -12.5q36 -8 55.5 -13.5t49 -19t44.5 -30.5t27 -46.5t12 -69.5q0 -76 -38.5 -126.5t-96 -70.5t-131.5 -20q-83 0 -173 22l3 26q75 -22 171 -22z" />
    <glyph glyph-name="scaron" unicode="&#x161;" horiz-adv-x="425" 
d="M234 637l137 126l14 -16l-143 -132h-20l-112 133l17 15zM28 32q49 -16 125 -16q95 0 139 29.5t44 92.5q0 26 -8 45t-17.5 29.5t-31 19t-35 11.5t-43.5 9q-34 7 -53 13.5t-42 20t-33.5 37t-10.5 58.5q0 148 198 148q38 0 107 -12l-4 -26q-60 12 -104 12q-79 0 -124 -26
t-45 -93q0 -30 8.5 -49.5t29 -31t36.5 -16t49 -11.5q32 -7 48 -11.5t39.5 -14.5t34.5 -23t20 -34.5t9 -50.5q0 -152 -212 -152q-62 0 -127 16z" />
    <glyph glyph-name="Tcommaaccent" unicode="&#x162;" horiz-adv-x="561" 
d="M57 718h533l-3 -26h-253l-72 -692h-27l72 692h-252zM205 -249l25 183h25l-27 -183h-23z" />
    <glyph glyph-name="tcommaaccent" unicode="&#x163;" horiz-adv-x="333" 
d="M40 495l2 24h85l14 135h27l-15 -135h180l-2 -24h-180l-39 -370q-5 -58 19 -84t80 -26q41 0 90 20l-2 -27q-53 -18 -95 -18q-133 0 -119 133l39 372h-84zM141 -249l25 183h25l-27 -183h-23z" />
    <glyph glyph-name="Tcaron" unicode="&#x164;" horiz-adv-x="561" 
d="M57 718h533l-3 -26h-253l-72 -692h-27l72 692h-252zM329 806l132 103l12 -16l-136 -111h-20l-113 109l16 17z" />
    <glyph glyph-name="tcaron" unicode="&#x165;" horiz-adv-x="333" 
d="M40 495l2 24h85l14 135h27l-15 -135h180l-2 -24h-180l-39 -370q-5 -58 19 -84t80 -26q41 0 90 20l-2 -27q-53 -18 -95 -18q-133 0 -119 133l39 372h-84zM357 789l-31 -208h-24l30 208h25z" />
    <glyph glyph-name="Tbar" unicode="&#x166;" horiz-adv-x="594" 
d="M605 718l-3 -26h-253l-35 -337h186l-3 -25h-186l-34 -330h-27l34 330h-180l3 25h180l35 337h-252l2 26h533z" />
    <glyph glyph-name="tbar" unicode="&#x167;" horiz-adv-x="340" 
d="M46 495l2 24h85l14 135h27l-15 -135h180l-2 -24h-180l-20 -189h171l-2 -26h-172l-16 -155q-5 -58 19 -84t80 -26q41 0 90 20l-2 -27q-53 -18 -95 -18q-133 0 -119 133l17 157h-81l2 26h81l20 189h-84z" />
    <glyph glyph-name="Utilde" unicode="&#x168;" horiz-adv-x="712" 
d="M267 828q29 36 76 36q25 0 63.5 -19.5t57.5 -19.5q41 0 73 40l-2 -29q-33 -36 -72 -36q-20 0 -57.5 20t-64.5 20q-41 0 -76 -39zM121 258q-2 -26 -2 -39q0 -99 56.5 -151.5t153.5 -52.5q109 0 175.5 69t78.5 185l47 449h28l-48 -452q-12 -117 -84 -196.5t-200 -79.5
q-100 0 -167.5 54.5t-67.5 167.5q0 27 2 42l49 464h28z" />
    <glyph glyph-name="utilde" unicode="&#x169;" horiz-adv-x="532" 
d="M66 143l40 376h27l-40 -374q-6 -66 25 -98t119 -32q95 0 156 34l50 470h27l-51 -486q-73 -43 -183 -43q-98 0 -138 37t-32 116zM177 676q31 36 76 36q25 0 62.5 -19.5t58.5 -19.5q40 0 74 40l-2 -27q-34 -38 -74 -38q-22 0 -58 20t-68 20q-37 0 -72 -39z" />
    <glyph glyph-name="Umacron" unicode="&#x16a;" horiz-adv-x="712" 
d="M280 828l2 24h269l-2 -24h-269zM121 258q-2 -26 -2 -39q0 -99 56.5 -151.5t153.5 -52.5q109 0 175.5 69t78.5 185l47 449h28l-48 -452q-12 -117 -84 -196.5t-200 -79.5q-100 0 -167.5 54.5t-67.5 167.5q0 27 2 42l49 464h28z" />
    <glyph glyph-name="umacron" unicode="&#x16b;" horiz-adv-x="532" 
d="M66 143l40 376h27l-40 -374q-6 -66 25 -98t119 -32q95 0 156 34l50 470h27l-51 -486q-73 -43 -183 -43q-98 0 -138 37t-32 116zM170 686l2 23h270l-2 -23h-270z" />
    <glyph glyph-name="Ubreve" unicode="&#x16c;" horiz-adv-x="712" 
d="M408 799q92 0 103 100h23q-6 -59 -39 -90.5t-90 -31.5q-55 0 -81.5 31t-20.5 91h23q-5 -42 13 -71t69 -29zM121 258q-2 -26 -2 -39q0 -99 56.5 -151.5t153.5 -52.5q109 0 175.5 69t78.5 185l47 449h28l-48 -452q-12 -117 -84 -196.5t-200 -79.5q-100 0 -167.5 54.5
t-67.5 167.5q0 27 2 42l49 464h28z" />
    <glyph glyph-name="ubreve" unicode="&#x16d;" horiz-adv-x="532" 
d="M66 143l40 376h27l-40 -374q-6 -66 25 -98t119 -32q95 0 156 34l50 470h27l-51 -486q-73 -43 -183 -43q-98 0 -138 37t-32 116zM295 648q89 0 101 111h24q-7 -60 -40.5 -96.5t-87.5 -36.5q-51 0 -78.5 36.5t-20.5 96.5h22q-5 -43 12.5 -77t67.5 -34z" />
    <glyph glyph-name="Uring" unicode="&#x16e;" horiz-adv-x="712" 
d="M121 258q-2 -26 -2 -39q0 -99 56.5 -151.5t153.5 -52.5q109 0 175.5 69t78.5 185l47 449h28l-48 -452q-12 -117 -84 -196.5t-200 -79.5q-100 0 -167.5 54.5t-67.5 167.5q0 27 2 42l49 464h28zM402 768q-47 0 -72.5 24.5t-25.5 69.5q0 52 33 87.5t89 35.5q48 0 73 -27
t25 -71q0 -52 -32.5 -85.5t-89.5 -33.5zM405 789q44 0 70.5 27.5t26.5 68.5q0 35 -20.5 57t-58.5 22q-45 0 -70.5 -28.5t-25.5 -70.5q0 -36 20 -56t58 -20z" />
    <glyph glyph-name="uring" unicode="&#x16f;" horiz-adv-x="532" 
d="M295 587q-47 0 -72.5 25.5t-25.5 70.5q0 51 33 86t89 35q48 0 73.5 -27t25.5 -71q0 -51 -33 -85t-90 -34zM66 143l40 376h27l-40 -374q-6 -66 25 -98t119 -32q95 0 156 34l50 470h27l-51 -486q-73 -43 -183 -43q-98 0 -138 37t-32 116zM298 607q45 0 71 28t26 70
q0 35 -20.5 56.5t-58.5 21.5q-45 0 -70.5 -28.5t-25.5 -70.5q0 -35 20.5 -56t57.5 -21z" />
    <glyph glyph-name="Uhungarumlaut" unicode="&#x170;" horiz-adv-x="712" 
d="M121 258q-2 -26 -2 -39q0 -99 56.5 -151.5t153.5 -52.5q109 0 175.5 69t78.5 185l47 449h28l-48 -452q-12 -117 -84 -196.5t-200 -79.5q-100 0 -167.5 54.5t-67.5 167.5q0 27 2 42l49 464h28zM415 794l-5 22l206 60l6 -25zM278 793l-15 17l165 136l16 -19z" />
    <glyph glyph-name="uhungarumlaut" unicode="&#x171;" horiz-adv-x="532" 
d="M66 143l40 376h27l-40 -374q-6 -66 25 -98t119 -32q95 0 156 34l50 470h27l-51 -486q-73 -43 -183 -43q-98 0 -138 37t-32 116zM196 640l-15 18l168 149l15 -18zM342 641l-10 20l190 119l10 -22z" />
    <glyph glyph-name="Uogonek" unicode="&#x172;" horiz-adv-x="712" 
d="M121 258q-2 -26 -2 -39q0 -99 56.5 -151.5t153.5 -52.5q109 0 175.5 69t78.5 185l47 449h28l-48 -452q-11 -103 -68 -178t-157 -93q-112 -57 -112 -138q0 -71 73 -71q41 0 77 10l-2 -21q-46 -12 -77 -12q-43 0 -69 22t-26 68q0 83 93 137h-16q-100 0 -167.5 54.5
t-67.5 167.5q0 27 2 42l49 464h28z" />
    <glyph glyph-name="uogonek" unicode="&#x173;" horiz-adv-x="532" 
d="M66 143l40 376h27l-40 -374q-6 -66 25 -98t119 -32q95 0 156 34l50 470h27l-51 -486q-42 -25 -98 -35q-116 -59 -116 -141q0 -71 73 -71q41 0 77 10l-2 -21q-46 -12 -77 -12q-43 0 -69 22t-26 68q0 85 95 139q-26 -2 -40 -2q-98 0 -138 37t-32 116z" />
    <glyph glyph-name="Wcircumflex" unicode="&#x174;" horiz-adv-x="914" 
d="M468 718l146 -671h4l272 671h28l-294 -718h-28l-116 533l-220 -533h-28l-155 718h29l144 -668h4l216 527l-30 141h28zM491 904l-133 -104l-12 18l137 108h20l113 -110l-17 -17z" />
    <glyph glyph-name="wcircumflex" unicode="&#x175;" horiz-adv-x="707" 
d="M697 519l-222 -519h-26l-90 374l-151 -374h-25l-134 519h27l123 -475h3l148 367l-26 108h27l113 -475h4l202 475h27zM380 738l-139 -125l-12 17l143 131h20l111 -132l-15 -16z" />
    <glyph glyph-name="Ycircumflex" unicode="&#x176;" horiz-adv-x="586" 
d="M108 718l182 -417h4l268 417h30l-289 -447l-28 -271h-27l28 269l-198 449h30zM343 904l-133 -104l-12 18l137 108h20l113 -110l-17 -17z" />
    <glyph glyph-name="ycircumflex" unicode="&#x177;" horiz-adv-x="551" 
d="M486 519l-58 -559q-10 -89 -61 -129.5t-157 -40.5q-82 0 -157 24l3 25q72 -24 158 -24q89 0 134 34t53 111l8 77q-92 -37 -168 -37q-172 0 -172 161q0 12 2 38l33 320h27l-33 -316q-2 -26 -2 -37q0 -75 38.5 -108t113.5 -33q82 0 164 41l48 453h26zM323 738l-139 -125
l-12 17l143 131h20l111 -132l-15 -16z" />
    <glyph glyph-name="Ydieresis" unicode="&#x178;" horiz-adv-x="586" 
d="M108 718l182 -417h4l268 417h30l-289 -447l-28 -271h-27l28 269l-198 449h30zM406 812l10 95h25l-10 -95h-25zM233 812l10 95h25l-10 -95h-25z" />
    <glyph glyph-name="Zacute" unicode="&#x179;" horiz-adv-x="542" 
d="M89 692l2 26h455l-2 -23l-509 -669h440l-2 -26h-475l2 23l508 669h-419zM249 794l-5 23l206 58l6 -24z" />
    <glyph glyph-name="zacute" unicode="&#x17a;" horiz-adv-x="426" 
d="M65 519h341l-3 -22l-363 -472h319l-2 -25h-352l2 21l362 473h-307zM208 640l-11 20l178 118l13 -21z" />
    <glyph glyph-name="Zdotaccent" unicode="&#x17b;" horiz-adv-x="542" 
d="M89 692l2 26h455l-2 -23l-509 -669h440l-2 -26h-475l2 23l508 669h-419zM313 812l10 94h26l-10 -94h-26z" />
    <glyph glyph-name="zdotaccent" unicode="&#x17c;" horiz-adv-x="426" 
d="M65 519h341l-3 -22l-363 -472h319l-2 -25h-352l2 21l362 473h-307zM244 641l10 96h25l-10 -96h-25z" />
    <glyph glyph-name="Zcaron" unicode="&#x17d;" horiz-adv-x="542" 
d="M89 692l2 26h455l-2 -23l-509 -669h440l-2 -26h-475l2 23l508 669h-419zM324 806l132 103l12 -16l-136 -111h-20l-113 109l16 17z" />
    <glyph glyph-name="zcaron" unicode="&#x17e;" horiz-adv-x="426" 
d="M65 519h341l-3 -22l-363 -472h319l-2 -25h-352l2 21l362 473h-307zM246 637l137 126l14 -16l-143 -132h-20l-112 133l17 15z" />
    <glyph glyph-name="uni018F" unicode="&#x18f;" horiz-adv-x="685" 
d="M52 351h545q0 5 0.5 16.5t0.5 17.5q0 170 -71 245t-213 75q-98 0 -182 -18l3 26q81 18 184 18q148 0 227.5 -80.5t79.5 -261.5q0 -204 -89.5 -301.5t-237.5 -97.5q-250 0 -250 285q0 5 0.5 15t0.5 15zM300 16q131 0 207 78t88 232h-517v-25q-2 -147 49.5 -216t172.5 -69z
" />
    <glyph glyph-name="florin" unicode="&#x192;" horiz-adv-x="363" 
d="M24 255l2 25h123l17 113q17 117 54.5 169t112.5 52q43 0 89 -12l-3 -26q-49 13 -86 13q-65 0 -96 -48.5t-46 -151.5l-16 -109h156l-3 -25h-157l-29 -203q-6 -43 -11.5 -71.5t-16 -60t-25 -49.5t-37.5 -30t-53 -12q-23 0 -68 7l2 25q41 -7 61 -7q61 0 84 44.5t38 153.5
l30 203h-122z" />
    <glyph glyph-name="uni01C4" unicode="&#x1c4;" horiz-adv-x="1263" 
d="M666 411q0 -61 -10 -115t-39 -110t-75 -95.5t-123 -65t-178 -25.5h-166l75 718h179q183 0 260 -77.5t77 -229.5zM322 692h-147l-71 -666h141q107 0 185.5 29.5t122.5 83.5t64.5 120.5t20.5 148.5q0 147 -71 215.5t-245 68.5zM810 692l2 26h455l-2 -23l-509 -669h440
l-2 -26h-475l2 23l508 669h-419zM1045 806l132 103l12 -16l-136 -111h-20l-113 109l16 17z" />
    <glyph glyph-name="uni01C5" unicode="&#x1c5;" horiz-adv-x="1147" 
d="M666 411q0 -61 -10 -115t-39 -110t-75 -95.5t-123 -65t-178 -25.5h-166l75 718h179q183 0 260 -77.5t77 -229.5zM322 692h-147l-71 -666h141q107 0 185.5 29.5t122.5 83.5t64.5 120.5t20.5 148.5q0 147 -71 215.5t-245 68.5zM786 519h341l-3 -22l-363 -472h319l-2 -25
h-352l2 21l362 473h-307zM967 637l137 126l14 -16l-143 -132h-20l-112 133l17 15z" />
    <glyph glyph-name="uni01C6" unicode="&#x1c6;" horiz-adv-x="955" 
d="M439 521l25 236h27l-79 -751q-74 -16 -136 -16q-226 0 -226 232q0 144 76 225.5t215 81.5q42 0 98 -8zM337 504q-132 0 -195.5 -76t-63.5 -202q0 -113 49.5 -162t151.5 -49q57 0 108 12l49 468q-43 9 -99 9zM594 519h341l-3 -22l-363 -472h319l-2 -25h-352l2 21l362 473
h-307zM775 637l137 126l14 -16l-143 -132h-20l-112 133l17 15z" />
    <glyph glyph-name="uni01C7" unicode="&#x1c7;" horiz-adv-x="898" 
d="M176 718l-73 -692h374l-3 -26h-400l75 718h27zM760 194l55 524h27l-54 -525q-12 -106 -59.5 -155t-138.5 -49q-51 0 -86 7l3 27q29 -7 85 -7q83 0 121 45.5t47 132.5z" />
    <glyph glyph-name="uni01C8" unicode="&#x1c8;" horiz-adv-x="720" 
d="M176 718l-73 -692h374l-3 -26h-400l75 718h27zM655 519l-54 -523q-12 -115 -38.5 -160.5t-97.5 -45.5q-24 0 -62 7l3 26q33 -6 59 -6t44 8.5t29 20.5t18 38.5t10.5 48t7.5 63.5l55 523h26zM643 654l13 116h27l-13 -116h-27z" />
    <glyph glyph-name="uni01C9" unicode="&#x1c9;" horiz-adv-x="408" 
d="M164 757l-79 -757h-27l79 757h27zM331 654l13 116h27l-13 -116h-27zM343 519l-54 -523q-12 -115 -38.5 -160.5t-97.5 -45.5q-24 0 -62 7l3 26q33 -6 59 -6t44 8.5t29 20.5t18 38.5t10.5 48t7.5 63.5l55 523h26z" />
    <glyph glyph-name="uni01CA" unicode="&#x1ca;" horiz-adv-x="1108" 
d="M565 0l-391 668h-3l-70 -668h-27l75 718h27l390 -666h4l68 666h28l-75 -718h-26zM969 194l55 524h27l-54 -525q-12 -106 -59.5 -155t-138.5 -49q-51 0 -86 7l3 27q29 -7 85 -7q83 0 121 45.5t47 132.5z" />
    <glyph glyph-name="uni01CB" unicode="&#x1cb;" horiz-adv-x="929" 
d="M565 0l-391 668h-3l-70 -668h-27l75 718h27l390 -666h4l68 666h28l-75 -718h-26zM852 654l13 116h27l-13 -116h-27zM864 519l-54 -523q-12 -115 -38.5 -160.5t-97.5 -45.5q-24 0 -62 7l3 26q33 -6 59 -6t44 8.5t29 20.5t18 38.5t10.5 48t7.5 63.5l55 523h26z" />
    <glyph glyph-name="uni01CC" unicode="&#x1cc;" horiz-adv-x="736" 
d="M460 376l-40 -376h-27l40 374q7 71 -28 100.5t-138 29.5q-85 0 -134 -9l-51 -495h-27l54 517q69 12 158 12q113 0 157 -34t36 -119zM671 519l-54 -523q-12 -115 -38.5 -160.5t-97.5 -45.5q-24 0 -62 7l3 26q33 -6 59 -6t44 8.5t29 20.5t18 38.5t10.5 48t7.5 63.5l55 523
h26zM659 654l13 116h27l-13 -116h-27z" />
    <glyph glyph-name="uni01D3" unicode="&#x1d3;" horiz-adv-x="712" 
d="M398 806l132 103l12 -16l-136 -111h-20l-113 109l16 17zM121 258q-2 -26 -2 -39q0 -99 56.5 -151.5t153.5 -52.5q109 0 175.5 69t78.5 185l47 449h28l-48 -452q-12 -117 -84 -196.5t-200 -79.5q-100 0 -167.5 54.5t-67.5 167.5q0 27 2 42l49 464h28z" />
    <glyph glyph-name="uni01D4" unicode="&#x1d4;" horiz-adv-x="532" 
d="M66 143l40 376h27l-40 -374q-6 -66 25 -98t119 -32q95 0 156 34l50 470h27l-51 -486q-73 -43 -183 -43q-98 0 -138 37t-32 116zM307 637l137 126l14 -16l-143 -132h-20l-112 133l17 15z" />
    <glyph glyph-name="AEmacron" unicode="&#x1e2;" horiz-adv-x="834" 
d="M430 718h399l-2 -26h-358l-31 -297h308l-2 -26h-309l-36 -343h357l-2 -26h-384l21 203h-261l-130 -203h-30zM146 229h247l49 463zM516 828l2 24h269l-2 -24h-269z" />
    <glyph glyph-name="aemacron" unicode="&#x1e3;" horiz-adv-x="779" 
d="M739 406q0 -36 -13 -64t-45 -46.5t-53.5 -30.5t-73 -21.5t-67.5 -11.5t-70 -8l-9 -1.5t-7.5 -1t-8.5 -0.5q2 -206 197 -206q52 0 105 15l-2 -25q-56 -15 -111 -15q-153 0 -198 115q-36 -50 -95 -82.5t-118 -32.5q-57 0 -100.5 32.5t-43.5 94.5q0 36 16 64t46.5 45
t62 28.5t76 16.5t73 7t67.5 3q1 10 5 30l5 48q9 80 -39 114.5t-127 34.5q-57 0 -131 -21l3 25q76 21 136 21q72 0 124.5 -31.5t58.5 -98.5q31 62 82 96t115 34t102 -34t38 -93zM598 508q-94 0 -147.5 -74.5t-58.5 -188.5q156 15 221 40q100 39 100 118q0 42 -26 73.5
t-89 31.5zM364 226q0 21 1 32q-313 -6 -313 -139q0 -46 32.5 -75t86.5 -29q58 0 114.5 33.5t89.5 80.5q-11 38 -11 97zM292 686l2 23h270l-2 -23h-270z" />
    <glyph glyph-name="uni01F1" unicode="&#x1f1;" horiz-adv-x="1245" 
d="M666 411q0 -61 -10 -115t-39 -110t-75 -95.5t-123 -65t-178 -25.5h-166l75 718h179q183 0 260 -77.5t77 -229.5zM322 692h-147l-71 -666h141q107 0 185.5 29.5t122.5 83.5t64.5 120.5t20.5 148.5q0 147 -71 215.5t-245 68.5zM792 692l2 26h455l-2 -23l-509 -669h440
l-2 -26h-475l2 23l508 669h-419z" />
    <glyph glyph-name="uni01F2" unicode="&#x1f2;" horiz-adv-x="1147" 
d="M666 411q0 -61 -10 -115t-39 -110t-75 -95.5t-123 -65t-178 -25.5h-166l75 718h179q183 0 260 -77.5t77 -229.5zM322 692h-147l-71 -666h141q107 0 185.5 29.5t122.5 83.5t64.5 120.5t20.5 148.5q0 147 -71 215.5t-245 68.5zM786 519h341l-3 -22l-363 -472h319l-2 -25
h-352l2 21l362 473h-307z" />
    <glyph glyph-name="uni01F3" unicode="&#x1f3;" horiz-adv-x="955" 
d="M439 521l25 236h27l-79 -751q-74 -16 -136 -16q-226 0 -226 232q0 144 76 225.5t215 81.5q42 0 98 -8zM337 504q-132 0 -195.5 -76t-63.5 -202q0 -113 49.5 -162t151.5 -49q57 0 108 12l49 468q-43 9 -99 9zM594 519h341l-3 -22l-363 -472h319l-2 -25h-352l2 21l362 473
h-307z" />
    <glyph glyph-name="AEacute" unicode="&#x1fc;" horiz-adv-x="834" 
d="M430 718h399l-2 -26h-358l-31 -297h308l-2 -26h-309l-36 -343h357l-2 -26h-384l21 203h-261l-130 -203h-30zM146 229h247l49 463zM587 794l-5 23l206 58l6 -24z" />
    <glyph glyph-name="aeacute" unicode="&#x1fd;" horiz-adv-x="779" 
d="M739 406q0 -36 -13 -64t-45 -46.5t-53.5 -30.5t-73 -21.5t-67.5 -11.5t-70 -8l-9 -1.5t-7.5 -1t-8.5 -0.5q2 -206 197 -206q52 0 105 15l-2 -25q-56 -15 -111 -15q-153 0 -198 115q-36 -50 -95 -82.5t-118 -32.5q-57 0 -100.5 32.5t-43.5 94.5q0 36 16 64t46.5 45
t62 28.5t76 16.5t73 7t67.5 3q1 10 5 30l5 48q9 80 -39 114.5t-127 34.5q-57 0 -131 -21l3 25q76 21 136 21q72 0 124.5 -31.5t58.5 -98.5q31 62 82 96t115 34t102 -34t38 -93zM598 508q-94 0 -147.5 -74.5t-58.5 -188.5q156 15 221 40q100 39 100 118q0 42 -26 73.5
t-89 31.5zM364 226q0 21 1 32q-313 -6 -313 -139q0 -46 32.5 -75t86.5 -29q58 0 114.5 33.5t89.5 80.5q-11 38 -11 97zM418 640l-11 20l178 118l13 -21z" />
    <glyph glyph-name="Oslashacute" unicode="&#x1fe;" horiz-adv-x="757" 
d="M345 -10q-124 0 -197 73l-53 -63h-30l68 80q-67 80 -67 230q0 186 97 303.5t261 117.5q125 0 197 -76l54 63h29l-68 -80q66 -85 66 -233q0 -194 -101 -304.5t-256 -110.5zM94 313q0 -137 57 -212l453 533q-65 71 -183 71q-152 0 -239.5 -109.5t-87.5 -282.5zM348 15
q148 0 237 104.5t89 283.5q0 138 -56 214l-452 -534q65 -68 182 -68zM373 794l-5 23l206 58l6 -24z" />
    <glyph glyph-name="oslashacute" unicode="&#x1ff;" horiz-adv-x="521" 
d="M227 -10q-82 0 -126 50l-30 -40h-29l45 59q-35 57 -35 160q0 141 60.5 225.5t169.5 84.5q82 0 127 -51l31 41h29l-46 -60q38 -61 38 -166q0 -144 -64 -223.5t-170 -79.5zM433 294q0 91 -28 141l-287 -374q35 -46 111 -46q102 0 153 78t51 201zM279 504q-97 0 -148 -77.5
t-51 -208.5q0 -89 25 -136l286 374q-37 48 -112 48zM255 640l-11 20l178 118l13 -21z" />
    <glyph glyph-name="FL989" unicode="&#x200;" horiz-adv-x="614" 
d="M521 0l-53 203h-343l-93 -203h-29l331 718h30l186 -718h-29zM343 678l-206 -449h325l-115 449h-4zM342 818l-5 -24l-207 57l6 25zM489 812l-16 -19l-165 134l16 19z" />
    <glyph glyph-name="FL990" unicode="&#x201;" horiz-adv-x="528" 
d="M466 517l-55 -512q-68 -15 -131 -15q-113 0 -172 51.5t-59 178.5q0 146 77.5 227.5t215.5 81.5q53 0 124 -12zM282 15q49 0 104 11l51 471q-50 7 -99 7q-132 0 -196.5 -77.5t-64.5 -207.5q0 -106 47.5 -155t157.5 -49zM434 659l-16 -19l-154 149l18 19zM283 662l-12 -21
l-179 117l13 22z" />
    <glyph glyph-name="FL991" unicode="&#x202;" horiz-adv-x="614" 
d="M521 0l-53 203h-343l-93 -203h-29l331 718h30l186 -718h-29zM343 678l-206 -449h325l-115 449h-4zM363 876q-91 0 -102 -99h-23q6 59 39 90.5t88 31.5q56 0 83 -31t21 -91h-24q5 41 -13 70t-69 29z" />
    <glyph glyph-name="FL992" unicode="&#x203;" horiz-adv-x="528" 
d="M466 517l-55 -512q-68 -15 -131 -15q-113 0 -172 51.5t-59 178.5q0 146 77.5 227.5t215.5 81.5q53 0 124 -12zM282 15q49 0 104 11l51 471q-50 7 -99 7q-132 0 -196.5 -77.5t-64.5 -207.5q0 -106 47.5 -155t157.5 -49zM337 739q-51 0 -76 -35t-30 -78h-22q6 61 40 98
t89 37q56 0 82 -37.5t20 -97.5h-24q5 45 -12 79t-67 34z" />
    <glyph glyph-name="FL993" unicode="&#x204;" horiz-adv-x="587" 
d="M578 718l-2 -26h-403l-31 -298h364l-3 -25h-364l-36 -343h403l-3 -26h-429l75 718h429zM355 818l-5 -24l-207 57l6 25zM502 812l-16 -19l-165 134l16 19z" />
    <glyph glyph-name="FL994" unicode="&#x205;" horiz-adv-x="465" 
d="M426 402q0 -23 -7 -43t-17 -35.5t-28 -28.5t-33.5 -21.5t-42 -16.5t-43.5 -12t-47 -8.5t-45 -6.5t-45 -5l-40 -4q2 -206 198 -206q51 0 104 15l-1 -25q-57 -15 -111 -15q-218 0 -218 236q0 137 66 220t169 83q64 0 102.5 -34t38.5 -93zM284 504q-94 0 -147.5 -73
t-58.5 -186q145 14 202 31q119 37 119 123q0 42 -26 73.5t-89 31.5zM423 659l-16 -19l-154 149l18 19zM272 662l-12 -21l-179 117l13 22z" />
    <glyph glyph-name="FL995" unicode="&#x206;" horiz-adv-x="587" 
d="M149 718h429l-2 -26h-403l-31 -298h364l-3 -25h-364l-36 -343h403l-3 -26h-429zM392 876q-91 0 -102 -99h-23q6 59 39 90.5t88 31.5q56 0 83 -31t21 -91h-24q5 41 -13 70t-69 29z" />
    <glyph glyph-name="FL996" unicode="&#x207;" horiz-adv-x="465" 
d="M426 402q0 -23 -7 -43t-17 -35.5t-28 -28.5t-33.5 -21.5t-42 -16.5t-43.5 -12t-47 -8.5t-45 -6.5t-45 -5l-40 -4q2 -206 198 -206q51 0 104 15l-1 -25q-57 -15 -111 -15q-218 0 -218 236q0 137 66 220t169 83q64 0 102.5 -34t38.5 -93zM284 504q-94 0 -147.5 -73
t-58.5 -186q145 14 202 31q119 37 119 123q0 42 -26 73.5t-89 31.5zM301 739q-51 0 -76 -35t-30 -78h-22q6 61 40 98t89 37q56 0 82 -37.5t20 -97.5h-24q5 45 -12 79t-67 34z" />
    <glyph glyph-name="FL997" unicode="&#x208;" horiz-adv-x="239" 
d="M176 718l-75 -718h-27l75 718h27zM274 812l-16 -19l-165 134l16 19zM127 818l-5 -24l-207 57l6 25z" />
    <glyph glyph-name="FL998" unicode="&#x209;" horiz-adv-x="201" 
d="M137 519l-55 -519h-27l55 519h27zM247 659l-16 -19l-154 149l18 19zM96 662l-12 -21l-179 117l13 22z" />
    <glyph glyph-name="FL999" unicode="&#x20a;" horiz-adv-x="239" 
d="M176 718l-75 -718h-27l75 718h27zM174 876q-91 0 -102 -99h-23q6 59 39 90.5t88 31.5q56 0 83 -31t21 -91h-24q5 41 -13 70t-69 29z" />
    <glyph glyph-name="FL1000" unicode="&#x20b;" horiz-adv-x="201" 
d="M137 519l-55 -519h-27l55 519h27zM155 739q-51 0 -76 -35t-30 -78h-22q6 61 40 98t89 37q56 0 82 -37.5t20 -97.5h-24q5 45 -12 79t-67 34z" />
    <glyph glyph-name="FL1001" unicode="&#x20c;" horiz-adv-x="757" 
d="M348 15q148 0 237 104.5t89 283.5q0 152 -66.5 227t-186.5 75q-152 0 -239.5 -109.5t-87.5 -282.5q0 -151 67.5 -224.5t186.5 -73.5zM345 -10q-123 0 -201 77t-78 243q0 186 97 303.5t261 117.5q131 0 204.5 -83t73.5 -243q0 -194 -101 -304.5t-256 -110.5zM519 812
l-16 -19l-165 134l16 19zM372 818l-5 -24l-207 57l6 25z" />
    <glyph glyph-name="FL1002" unicode="&#x20d;" horiz-adv-x="521" 
d="M278 504q-97 0 -148 -77.5t-51 -208.5q0 -99 34 -151t115 -52q102 0 153 78t51 201q0 210 -154 210zM226 -10q-175 0 -175 229q0 141 60.5 225.5t169.5 84.5q179 0 179 -236q0 -144 -64 -223.5t-170 -79.5zM394 659l-16 -19l-154 149l18 19zM243 662l-12 -21l-179 117
l13 22z" />
    <glyph glyph-name="FL1003" unicode="&#x20e;" horiz-adv-x="757" 
d="M348 15q148 0 237 104.5t89 283.5q0 152 -66.5 227t-186.5 75q-152 0 -239.5 -109.5t-87.5 -282.5q0 -151 67.5 -224.5t186.5 -73.5zM345 -10q-123 0 -201 77t-78 243q0 186 97 303.5t261 117.5q131 0 204.5 -83t73.5 -243q0 -194 -101 -304.5t-256 -110.5zM442 876
q-91 0 -102 -99h-23q6 59 39 90.5t88 31.5q56 0 83 -31t21 -91h-24q5 41 -13 70t-69 29z" />
    <glyph glyph-name="FL1004" unicode="&#x20f;" horiz-adv-x="521" 
d="M278 504q-97 0 -148 -77.5t-51 -208.5q0 -99 34 -151t115 -52q102 0 153 78t51 201q0 210 -154 210zM226 -10q-175 0 -175 229q0 141 60.5 225.5t169.5 84.5q179 0 179 -236q0 -144 -64 -223.5t-170 -79.5zM300 739q-51 0 -76 -35t-30 -78h-22q6 61 40 98t89 37
q56 0 82 -37.5t20 -97.5h-24q5 45 -12 79t-67 34z" />
    <glyph glyph-name="FL1009" unicode="&#x214;" horiz-adv-x="712" 
d="M121 258q-2 -26 -2 -39q0 -99 56.5 -151.5t153.5 -52.5q109 0 175.5 69t78.5 185l47 449h28l-48 -452q-12 -117 -84 -196.5t-200 -79.5q-100 0 -167.5 54.5t-67.5 167.5q0 27 2 42l49 464h28zM520 812l-16 -19l-165 134l16 19zM373 818l-5 -24l-207 57l6 25z" />
    <glyph glyph-name="FL1010" unicode="&#x215;" horiz-adv-x="532" 
d="M66 143l40 376h27l-40 -374q-6 -66 25 -98t119 -32q95 0 156 34l50 470h27l-51 -486q-73 -43 -183 -43q-98 0 -138 37t-32 116zM404 659l-16 -19l-154 149l18 19zM253 662l-12 -21l-179 117l13 22z" />
    <glyph glyph-name="FL1011" unicode="&#x216;" horiz-adv-x="712" 
d="M121 258q-2 -26 -2 -39q0 -99 56.5 -151.5t153.5 -52.5q109 0 175.5 69t78.5 185l47 449h28l-48 -452q-12 -117 -84 -196.5t-200 -79.5q-100 0 -167.5 54.5t-67.5 167.5q0 27 2 42l49 464h28zM413 876q-91 0 -102 -99h-23q6 59 39 90.5t88 31.5q56 0 83 -31t21 -91h-24
q5 41 -13 70t-69 29z" />
    <glyph glyph-name="FL1012" unicode="&#x217;" horiz-adv-x="532" 
d="M66 143l40 376h27l-40 -374q-6 -66 25 -98t119 -32q95 0 156 34l50 470h27l-51 -486q-73 -43 -183 -43q-98 0 -138 37t-32 116zM306 739q-51 0 -76 -35t-30 -78h-22q6 61 40 98t89 37q56 0 82 -37.5t20 -97.5h-24q5 45 -12 79t-67 34z" />
    <glyph glyph-name="Scommaaccent" unicode="&#x218;" 
d="M192 -249l25 183h25l-27 -183h-23zM202 16q109 0 172.5 46.5t63.5 143.5q0 40 -10.5 66.5t-36 43.5t-53 26.5t-74.5 19.5q-35 7 -57 13.5t-47 19.5t-39.5 29t-24 43t-9.5 62q0 105 73 153.5t185 48.5q67 0 152 -18l-3 -26q-80 18 -150 18q-47 0 -85.5 -8t-72 -27
t-52.5 -53.5t-19 -83.5q0 -32 9 -55.5t21 -37.5t36.5 -25t43.5 -16.5t54 -12.5q36 -8 55.5 -13.5t49 -19t44.5 -30.5t27 -46.5t12 -69.5q0 -76 -38.5 -126.5t-96 -70.5t-131.5 -20q-83 0 -173 22l3 26q75 -22 171 -22z" />
    <glyph glyph-name="scommaaccent" unicode="&#x219;" horiz-adv-x="425" 
d="M146 -249l25 183h25l-27 -183h-23zM28 32q49 -16 125 -16q95 0 139 29.5t44 92.5q0 26 -8 45t-17.5 29.5t-31 19t-35 11.5t-43.5 9q-34 7 -53 13.5t-42 20t-33.5 37t-10.5 58.5q0 148 198 148q38 0 107 -12l-4 -26q-60 12 -104 12q-79 0 -124 -26t-45 -93
q0 -30 8.5 -49.5t29 -31t36.5 -16t49 -11.5q32 -7 48 -11.5t39.5 -14.5t34.5 -23t20 -34.5t9 -50.5q0 -152 -212 -152q-62 0 -127 16z" />
    <glyph glyph-name="uni021A" unicode="&#x21a;" horiz-adv-x="561" 
d="M57 718h533l-3 -26h-253l-72 -692h-27l72 692h-252zM205 -249l25 183h25l-27 -183h-23z" />
    <glyph glyph-name="uni021B" unicode="&#x21b;" horiz-adv-x="333" 
d="M40 495l2 24h85l14 135h27l-15 -135h180l-2 -24h-180l-39 -370q-5 -58 19 -84t80 -26q41 0 90 20l-2 -27q-53 -18 -95 -18q-133 0 -119 133l39 372h-84zM141 -249l25 183h25l-27 -183h-23z" />
    <glyph glyph-name="Ymacron" unicode="&#x232;" horiz-adv-x="586" 
d="M108 718l182 -417h4l268 417h30l-289 -447l-28 -271h-27l28 269l-198 449h30zM204 828l2 24h269l-2 -24h-269z" />
    <glyph glyph-name="ymacron" unicode="&#x233;" horiz-adv-x="551" 
d="M486 519l-58 -559q-10 -89 -61 -129.5t-157 -40.5q-82 0 -157 24l3 25q72 -24 158 -24q89 0 134 34t53 111l8 77q-92 -37 -168 -37q-172 0 -172 161q0 12 2 38l33 320h27l-33 -316q-2 -26 -2 -37q0 -75 38.5 -108t113.5 -33q82 0 164 41l48 453h26zM174 686l2 23h270
l-2 -23h-270z" />
    <glyph glyph-name="dotlessj" unicode="&#x237;" horiz-adv-x="201" 
d="M136 519l-54 -523q-12 -115 -38.5 -160.5t-97.5 -45.5q-24 0 -62 7l3 26q33 -6 59 -6t44 8.5t29 20.5t18 38.5t10.5 48t7.5 63.5l55 523h26z" />
    <glyph glyph-name="schwa" unicode="&#x259;" horiz-adv-x="465" 
d="M30 121q0 26 7 47.5t23 37.5t31.5 28.5t43 22t46.5 15.5t52 11.5t50 8t51 6t44 4.5q-3 206 -198 206q-51 0 -104 -15l1 25q57 15 111 15q218 0 218 -236q0 -137 -66 -220t-169 -83q-64 0 -102.5 34t-38.5 93zM172 19q93 0 147 73t58 185q-144 -14 -200 -31
q-120 -37 -120 -122q0 -42 26 -73.5t89 -31.5z" />
    <glyph glyph-name="circumflex" unicode="&#x2c6;" horiz-adv-x="360" 
d="M262 738l-139 -125l-12 17l143 131h20l111 -132l-15 -16z" />
    <glyph glyph-name="caron" unicode="&#x2c7;" horiz-adv-x="360" 
d="M249 637l137 126l14 -16l-143 -132h-20l-112 133l17 15z" />
    <glyph glyph-name="breve" unicode="&#x2d8;" horiz-adv-x="313" 
d="M223 648q89 0 101 111h24q-7 -60 -40.5 -96.5t-87.5 -36.5q-51 0 -78.5 36.5t-20.5 96.5h22q-5 -43 12.5 -77t67.5 -34z" />
    <glyph glyph-name="dotaccent" unicode="&#x2d9;" horiz-adv-x="211" 
d="M158 641l10 96h25l-10 -96h-25z" />
    <glyph glyph-name="ring" unicode="&#x2da;" horiz-adv-x="278" 
d="M200 587q-47 0 -72.5 25.5t-25.5 70.5q0 51 33 86t89 35q48 0 73.5 -27t25.5 -71q0 -51 -33 -85t-90 -34zM203 607q45 0 71 28t26 70q0 35 -20.5 56.5t-58.5 21.5q-45 0 -70.5 -28.5t-25.5 -70.5q0 -35 20.5 -56t57.5 -21z" />
    <glyph glyph-name="ogonek" unicode="&#x2db;" horiz-adv-x="269" 
d="M201 -225q-46 -12 -77 -12q-43 0 -69 22t-26 68q0 58 38.5 95.5t99.5 64.5l12 -11q-62 -30 -94 -64.5t-32 -80.5q0 -71 73 -71q41 0 77 10z" />
    <glyph glyph-name="tilde" unicode="&#x2dc;" horiz-adv-x="400" 
d="M138 676q31 36 76 36q25 0 62.5 -19.5t58.5 -19.5q40 0 74 40l-2 -27q-34 -38 -74 -38q-22 0 -58 20t-68 20q-37 0 -72 -39z" />
    <glyph glyph-name="hungarumlaut" unicode="&#x2dd;" horiz-adv-x="463" 
d="M308 641l-10 20l190 119l10 -22zM162 640l-15 18l168 149l15 -18z" />
    <glyph glyph-name="dotbelowcmb" unicode="&#x323;" horiz-adv-x="223" 
d="M78 -191l10 96h27l-10 -96h-27z" />
    <glyph glyph-name="uni0394" unicode="&#x394;" horiz-adv-x="589" 
d="M-1 0l342 750l186 -750h-528zM37 25h458l-162 652z" />
    <glyph glyph-name="Sigma" unicode="&#x3a3;" horiz-adv-x="596" 
d="M288 367l-2 -15l-240 -327h465l-3 -25h-497l2 21l248 341l-177 336l2 20h497l-3 -25h-465z" />
    <glyph glyph-name="pi" unicode="&#x3c0;" horiz-adv-x="609" 
d="M446 0l52 494h-348l-52 -494h-26l55 519h401l-55 -519h-27z" />
    <glyph glyph-name="uni1E46" unicode="&#x1e46;" horiz-adv-x="728" 
d="M310 -209l10 96h25l-10 -96h-25zM565 0l-391 668h-3l-70 -668h-27l75 718h27l390 -666h4l68 666h28l-75 -718h-26z" />
    <glyph glyph-name="uni1E47" unicode="&#x1e47;" horiz-adv-x="535" 
d="M460 376l-40 -376h-27l40 374q7 71 -28 100.5t-138 29.5q-85 0 -134 -9l-51 -495h-27l54 517q69 12 158 12q113 0 157 -34t36 -119zM213 -204l10 96h25l-10 -96h-25z" />
    <glyph glyph-name="uni1E62" unicode="&#x1e62;" 
d="M205 -208l10 96h25l-10 -96h-25zM202 16q109 0 172.5 46.5t63.5 143.5q0 40 -10.5 66.5t-36 43.5t-53 26.5t-74.5 19.5q-35 7 -57 13.5t-47 19.5t-39.5 29t-24 43t-9.5 62q0 105 73 153.5t185 48.5q67 0 152 -18l-3 -26q-80 18 -150 18q-47 0 -85.5 -8t-72 -27
t-52.5 -53.5t-19 -83.5q0 -32 9 -55.5t21 -37.5t36.5 -25t43.5 -16.5t54 -12.5q36 -8 55.5 -13.5t49 -19t44.5 -30.5t27 -46.5t12 -69.5q0 -76 -38.5 -126.5t-96 -70.5t-131.5 -20q-83 0 -173 22l3 26q75 -22 171 -22z" />
    <glyph glyph-name="uni1E63" unicode="&#x1e63;" horiz-adv-x="425" 
d="M28 32q49 -16 125 -16q95 0 139 29.5t44 92.5q0 26 -8 45t-17.5 29.5t-31 19t-35 11.5t-43.5 9q-34 7 -53 13.5t-42 20t-33.5 37t-10.5 58.5q0 148 198 148q38 0 107 -12l-4 -26q-60 12 -104 12q-79 0 -124 -26t-45 -93q0 -30 8.5 -49.5t29 -31t36.5 -16t49 -11.5
q32 -7 48 -11.5t39.5 -14.5t34.5 -23t20 -34.5t9 -50.5q0 -152 -212 -152q-62 0 -127 16zM157 -203l10 96h25l-10 -96h-25z" />
    <glyph glyph-name="Wgrave" unicode="&#x1e80;" horiz-adv-x="914" 
d="M468 718l146 -671h4l272 671h28l-294 -718h-28l-116 533l-220 -533h-28l-155 718h29l144 -668h4l216 527l-30 141h28zM511 816l-6 -22l-207 57l6 23z" />
    <glyph glyph-name="wgrave" unicode="&#x1e81;" horiz-adv-x="707" 
d="M697 519l-222 -519h-26l-90 374l-151 -374h-25l-134 519h27l123 -475h3l148 367l-26 108h27l113 -475h4l202 475h27zM374 660l-12 -20l-179 117l13 21z" />
    <glyph glyph-name="Wacute" unicode="&#x1e82;" horiz-adv-x="914" 
d="M468 718l146 -671h4l272 671h28l-294 -718h-28l-116 533l-220 -533h-28l-155 718h29l144 -668h4l216 527l-30 141h28zM445 794l-5 23l206 58l6 -24z" />
    <glyph glyph-name="wacute" unicode="&#x1e83;" horiz-adv-x="707" 
d="M697 519l-222 -519h-26l-90 374l-151 -374h-25l-134 519h27l123 -475h3l148 367l-26 108h27l113 -475h4l202 475h27zM326 640l-11 20l178 118l13 -21z" />
    <glyph glyph-name="Wdieresis" unicode="&#x1e84;" horiz-adv-x="914" 
d="M468 718l146 -671h4l272 671h28l-294 -718h-28l-116 533l-220 -533h-28l-155 718h29l144 -668h4l216 527l-30 141h28zM549 812l10 95h25l-10 -95h-25zM376 812l10 95h25l-10 -95h-25z" />
    <glyph glyph-name="wdieresis" unicode="&#x1e85;" horiz-adv-x="707" 
d="M697 519l-222 -519h-26l-90 374l-151 -374h-25l-134 519h27l123 -475h3l148 367l-26 108h27l113 -475h4l202 475h27zM444 641l10 96h25l-10 -96h-25zM271 641l10 96h25l-10 -96h-25z" />
    <glyph glyph-name="uni1EBC" unicode="&#x1ebc;" horiz-adv-x="587" 
d="M149 718h429l-2 -26h-403l-31 -298h364l-3 -25h-364l-36 -343h403l-3 -26h-429zM238 828q29 36 76 36q25 0 63.5 -19.5t57.5 -19.5q41 0 73 40l-2 -29q-33 -36 -72 -36q-20 0 -57.5 20t-64.5 20q-42 0 -76 -39z" />
    <glyph glyph-name="uni1EBD" unicode="&#x1ebd;" horiz-adv-x="465" 
d="M426 402q0 -23 -7 -43t-17 -35.5t-28 -28.5t-33.5 -21.5t-42 -16.5t-43.5 -12t-47 -8.5t-45 -6.5t-45 -5l-40 -4q2 -206 198 -206q51 0 104 15l-1 -25q-57 -15 -111 -15q-218 0 -218 236q0 137 66 220t169 83q64 0 102.5 -34t38.5 -93zM284 504q-94 0 -147.5 -73
t-58.5 -186q145 14 202 31q119 37 119 123q0 42 -26 73.5t-89 31.5zM157 676q31 36 76 36q25 0 62.5 -19.5t58.5 -19.5q40 0 74 40l-2 -27q-34 -38 -74 -38q-22 0 -58 20t-68 20q-37 0 -72 -39z" />
    <glyph glyph-name="Ygrave" unicode="&#x1ef2;" horiz-adv-x="586" 
d="M108 718l182 -417h4l268 417h30l-289 -447l-28 -271h-27l28 269l-198 449h30zM383 816l-6 -22l-207 57l6 23z" />
    <glyph glyph-name="ygrave" unicode="&#x1ef3;" horiz-adv-x="551" 
d="M486 519l-58 -559q-10 -89 -61 -129.5t-157 -40.5q-82 0 -157 24l3 25q72 -24 158 -24q89 0 134 34t53 111l8 77q-92 -37 -168 -37q-172 0 -172 161q0 12 2 38l33 320h27l-33 -316q-2 -26 -2 -37q0 -75 38.5 -108t113.5 -33q82 0 164 41l48 453h26zM335 660l-12 -20
l-179 117l13 21z" />
    <glyph glyph-name="uni2004" unicode="&#x2004;" horiz-adv-x="333" 
 />
    <glyph glyph-name="uni2007" unicode="&#x2007;" horiz-adv-x="600" 
 />
    <glyph glyph-name="uni2009" unicode="&#x2009;" horiz-adv-x="160" 
 />
    <glyph glyph-name="uni200A" unicode="&#x200a;" horiz-adv-x="80" 
 />
    <glyph glyph-name="uni200B" unicode="&#x200b;" horiz-adv-x="0" 
 />
    <glyph glyph-name="uni2012" unicode="&#x2012;" horiz-adv-x="441" 
d="M441 311h-441v25h441v-25z" />
    <glyph glyph-name="endash" unicode="&#x2013;" horiz-adv-x="578" 
d="M69 275l2 23h435l-2 -23h-435z" />
    <glyph glyph-name="emdash" unicode="&#x2014;" horiz-adv-x="1070" 
d="M69 275l2 23h927l-2 -23h-927z" />
    <glyph glyph-name="quoteleft" unicode="&#x2018;" horiz-adv-x="194" 
d="M87 490q13 122 76 228h25q-62 -113 -74 -228h-27z" />
    <glyph glyph-name="quoteright" unicode="&#x2019;" horiz-adv-x="196" 
d="M179 718q-13 -122 -76 -228h-25q62 113 74 228h27z" />
    <glyph glyph-name="quotesinglbase" unicode="&#x201a;" horiz-adv-x="182" 
d="M86 102q-13 -122 -76 -228h-25q62 113 74 228h27z" />
    <glyph glyph-name="quotedblleft" unicode="&#x201c;" horiz-adv-x="364" 
d="M87 490q13 122 76 228h25q-62 -113 -74 -228h-27zM258 490q13 122 76 228h25q-62 -113 -74 -228h-27z" />
    <glyph glyph-name="quotedblright" unicode="&#x201d;" horiz-adv-x="367" 
d="M179 718q-13 -122 -76 -228h-25q62 113 74 228h27zM350 718q-13 -122 -76 -228h-25q62 113 74 228h27z" />
    <glyph glyph-name="quotedblbase" unicode="&#x201e;" horiz-adv-x="352" 
d="M86 102q-13 -122 -76 -228h-25q62 113 74 228h27zM257 102q-13 -122 -76 -228h-25q62 113 74 228h27z" />
    <glyph glyph-name="dagger" unicode="&#x2020;" horiz-adv-x="485" 
d="M80 512h169l22 206h26l-22 -206h173l-3 -24h-172l-56 -531h-26l56 531h-170z" />
    <glyph glyph-name="daggerdbl" unicode="&#x2021;" horiz-adv-x="485" 
d="M78 485h169l25 233h25l-25 -233h174l-3 -24h-173l-25 -234h173l-2 -25h-173l-26 -245h-25l26 245h-170l2 25h170l25 234h-170z" />
    <glyph glyph-name="bullet" unicode="&#x2022;" horiz-adv-x="421" 
d="M84 273q0 54 41.5 94.5t95.5 40.5q47 0 78.5 -33t31.5 -80q0 -54 -41 -94.5t-95 -40.5q-47 0 -79 33t-32 80z" />
    <glyph glyph-name="ellipsis" unicode="&#x2026;" horiz-adv-x="656" 
d="M46 0l13 121h27l-12 -121h-28zM283 0l13 121h27l-13 -121h-27zM520 0l12 121h28l-13 -121h-27z" />
    <glyph glyph-name="perthousand" unicode="&#x2030;" horiz-adv-x="1056" 
d="M153 0h-28l457 603h26zM191 305q-69 0 -98.5 32.5t-29.5 96.5q0 84 43.5 132t123.5 48q127 0 127 -136q0 -78 -40 -125.5t-126 -47.5zM193 326q140 0 140 148q0 59 -25 89t-81 30q-68 0 -105 -42t-37 -113q0 -56 25.5 -84t82.5 -28zM502 -8q-70 0 -100.5 32.5t-30.5 96.5
q0 83 44.5 131t124.5 48q66 0 95.5 -34t29.5 -102q0 -79 -39 -125.5t-124 -46.5zM503 13q138 0 138 150q0 57 -24 86.5t-80 29.5q-68 0 -105 -41.5t-37 -113.5q0 -55 25 -83t83 -28zM834 -8q-69 0 -99 32.5t-30 96.5q0 83 44 131t124 48q127 0 127 -136q0 -79 -39.5 -125.5
t-126.5 -46.5zM837 13q73 0 106 41t33 109q0 58 -24.5 87t-81.5 29q-68 0 -104.5 -42t-36.5 -114q0 -55 24.5 -82.5t83.5 -27.5z" />
    <glyph glyph-name="guilsinglleft" unicode="&#x2039;" horiz-adv-x="237" 
d="M147 16h-23l-73 246l124 240h23l-120 -240z" />
    <glyph glyph-name="guilsinglright" unicode="&#x203a;" horiz-adv-x="238" 
d="M53 16h-24l121 246l-70 240h24l74 -240z" />
    <glyph glyph-name="uni203D" unicode="&#x203d;" horiz-adv-x="463" 
d="M98 703l102 -412q10 30 37.5 61.5t58.5 58.5t60.5 56t49 65.5t19.5 74.5q0 99 -137 99q-66 0 -124 -19l3 25q61 19 125 19q162 0 162 -122q0 -46 -22.5 -87t-56 -72.5t-67 -60.5t-58.5 -62.5t-29 -66.5l-3 -34h-22l-5 -2l-118 471zM167 0l13 121h28l-13 -121h-28z" />
    <glyph glyph-name="fraction" unicode="&#x2044;" horiz-adv-x="128" 
d="M-192 0h-28l549 718h28z" />
    <glyph glyph-name="zerosuperior" unicode="&#x2070;" horiz-adv-x="400" 
d="M213 396q66 0 105 64t39 168q0 154 -111 154q-69 0 -106 -61t-37 -164q0 -81 30 -121t80 -40zM210 374q-63 0 -97 48t-34 134q0 109 43.5 178.5t126.5 69.5q62 0 97 -44t35 -130q0 -110 -45 -183t-126 -73z" />
    <glyph glyph-name="i.superior" unicode="&#x2071;" horiz-adv-x="169" 
d="M134 883l9 90h24l-9 -90h-24zM147 780l-43 -400h-24l43 400h24z" />
    <glyph glyph-name="foursuperior" unicode="&#x2074;" horiz-adv-x="354" 
d="M340 498h-58l-12 -118h-23l12 118h-209l2 20l239 278h23l-29 -275h57zM285 759l-206 -238h183l25 238h-2z" />
    <glyph glyph-name="fivesuperior" unicode="&#x2075;" horiz-adv-x="328" 
d="M61 407q46 -11 77 -11q71 0 108 31t37 88q0 49 -29.5 70t-89.5 21h-70l20 190h202l-3 -22h-179l-15 -147h50q137 0 137 -110q0 -64 -41.5 -103.5t-124.5 -39.5q-40 0 -82 11z" />
    <glyph glyph-name="sixsuperior" unicode="&#x2076;" horiz-adv-x="353" 
d="M223 627q50 0 78 -27t28 -78q0 -61 -34.5 -104.5t-100.5 -43.5q-118 0 -118 158q0 116 54 194t160 78q20 0 57 -5l-2 -23q-30 6 -63 6q-73 0 -119 -49.5t-59 -132.5q58 27 119 27zM99 533q0 -137 98 -137q54 0 81.5 36.5t27.5 86.5q0 87 -90 87q-56 0 -115 -26
q-2 -30 -2 -47z" />
    <glyph glyph-name="sevensuperior" unicode="&#x2077;" horiz-adv-x="294" 
d="M125 380h-23l184 395h-211l2 21h237l-2 -14z" />
    <glyph glyph-name="eightsuperior" unicode="&#x2078;" horiz-adv-x="363" 
d="M67 474q0 82 114 128q-79 35 -79 98q0 45 35.5 74.5t91.5 29.5q50 0 80.5 -25t30.5 -65q0 -73 -107 -110q21 -8 35.5 -15.5t31 -20.5t25.5 -32t9 -44q0 -56 -43.5 -87t-102.5 -31q-54 0 -87.5 26.5t-33.5 73.5zM310 492q0 41 -26 61.5t-82 40.5q-62 -29 -83 -51
q-27 -28 -27 -66q0 -36 24.5 -58.5t73.5 -22.5q52 0 86 25t34 71zM126 699q0 -55 85 -87q47 18 76 41t29 59q0 30 -21.5 50t-67.5 20q-52 0 -76.5 -25t-24.5 -58z" />
    <glyph glyph-name="ninesuperior" unicode="&#x2079;" horiz-adv-x="354" 
d="M191 550q-50 0 -78.5 27t-28.5 78q0 61 34.5 104.5t100.5 43.5q118 0 118 -158q0 -116 -53.5 -194t-159.5 -78q-20 0 -57 5l2 23q30 -6 62 -6q72 0 118 49.5t60 131.5q-55 -26 -118 -26zM314 644q0 137 -97 137q-55 0 -82 -36.5t-27 -86.5q0 -87 89 -87q60 0 114 26
q3 23 3 47z" />
    <glyph glyph-name="plussuperior" unicode="&#x207a;" horiz-adv-x="396" 
d="M199 429l16 148h-146l2 23h147l14 138h24l-14 -138h146l-3 -23h-146l-16 -148h-24z" />
    <glyph glyph-name="minussuperior" unicode="&#x207b;" horiz-adv-x="423" 
d="M85 577l3 23h309l-3 -23h-309z" />
    <glyph glyph-name="equalsuperior" unicode="&#x207c;" horiz-adv-x="503" 
d="M102 672l2 22h376l-2 -22h-376zM83 492l2 22h376l-2 -22h-376z" />
    <glyph glyph-name="parenleftsuperior" unicode="&#x207d;" horiz-adv-x="242" 
d="M200 263h-25q-91 147 -91 317q0 243 181 430h24q-180 -194 -180 -428q0 -164 91 -319z" />
    <glyph glyph-name="parenrightsuperior" unicode="&#x207e;" horiz-adv-x="240" 
d="M111 1010h23q92 -142 92 -316q0 -242 -180 -431h-25q180 194 180 429q0 164 -90 318z" />
    <glyph glyph-name="n.superior" unicode="&#x207f;" horiz-adv-x="426" 
d="M397 672l-31 -292h-24l31 290q6 51 -16.5 75t-93.5 24q-64 0 -122 -17l-39 -372h-24l41 389q65 21 145 21q78 0 109 -27.5t24 -90.5z" />
    <glyph glyph-name="zeroinferior" unicode="&#x2080;" horiz-adv-x="400" 
d="M173 16q66 0 105 64t39 168q0 154 -111 154q-69 0 -106 -61t-37 -164q0 -81 30 -121t80 -40zM170 -6q-63 0 -97 48t-34 134q0 109 43.5 178.5t126.5 69.5q62 0 97 -44t35 -130q0 -110 -45 -183t-126 -73z" />
    <glyph glyph-name="oneinferior" unicode="&#x2081;" horiz-adv-x="243" 
d="M111 0l41 391l-121 -14l2 22l128 17h18l-44 -416h-24z" />
    <glyph glyph-name="twoinferior" unicode="&#x2082;" horiz-adv-x="315" 
d="M234 328q0 73 -93 73q-39 0 -86 -13l2 22q42 14 87 14q58 0 86.5 -26t28.5 -68q0 -119 -220 -307h209l-2 -23h-243l1 17q230 200 230 311z" />
    <glyph glyph-name="threeinferior" unicode="&#x2083;" horiz-adv-x="316" 
d="M162 217v-2q38 -6 61.5 -29.5t23.5 -64.5q0 -61 -42.5 -94t-110.5 -33q-40 0 -80 11l2 22q46 -11 77 -11q61 0 95.5 28t34.5 75q0 83 -121 83h-16l2 21h16q52 0 91 30.5t39 79.5q0 69 -85 69q-47 0 -89 -14l3 22q45 14 88 14q53 0 80 -24.5t27 -63.5q0 -43 -26 -74.5
t-70 -44.5z" />
    <glyph glyph-name="fourinferior" unicode="&#x2084;" horiz-adv-x="354" 
d="M300 118h-58l-12 -118h-23l12 118h-209l2 20l239 278h23l-29 -275h57zM245 379l-206 -238h183l25 238h-2z" />
    <glyph glyph-name="fiveinferior" unicode="&#x2085;" horiz-adv-x="328" 
d="M21 27q46 -11 77 -11q71 0 108 31t37 88q0 49 -29.5 70t-89.5 21h-70l20 190h202l-3 -22h-179l-15 -147h50q137 0 137 -110q0 -64 -41.5 -103.5t-124.5 -39.5q-40 0 -82 11z" />
    <glyph glyph-name="sixinferior" unicode="&#x2086;" horiz-adv-x="353" 
d="M183 247q50 0 78 -27t28 -78q0 -61 -34.5 -104.5t-100.5 -43.5q-118 0 -118 158q0 116 54 194t160 78q20 0 57 -5l-2 -23q-30 6 -63 6q-73 0 -119 -49.5t-59 -132.5q58 27 119 27zM59 153q0 -137 98 -137q54 0 81.5 36.5t27.5 86.5q0 87 -90 87q-56 0 -115 -26
q-2 -30 -2 -47z" />
    <glyph glyph-name="seveninferior" unicode="&#x2087;" horiz-adv-x="294" 
d="M85 0h-23l184 395h-211l2 21h237l-2 -14z" />
    <glyph glyph-name="eightinferior" unicode="&#x2088;" horiz-adv-x="363" 
d="M27 94q0 82 114 128q-79 35 -79 98q0 45 35.5 74.5t91.5 29.5q50 0 80.5 -25t30.5 -65q0 -73 -107 -110q21 -8 35.5 -15.5t31 -20.5t25.5 -32t9 -44q0 -56 -43.5 -87t-102.5 -31q-54 0 -87.5 26.5t-33.5 73.5zM270 112q0 41 -26 61.5t-82 40.5q-62 -29 -83 -51
q-27 -28 -27 -66q0 -36 24.5 -58.5t73.5 -22.5q52 0 86 25t34 71zM86 319q0 -55 85 -87q47 18 76 41t29 59q0 30 -21.5 50t-67.5 20q-52 0 -76.5 -25t-24.5 -58z" />
    <glyph glyph-name="nineinferior" unicode="&#x2089;" horiz-adv-x="354" 
d="M151 170q-50 0 -78.5 27t-28.5 78q0 61 34.5 104.5t100.5 43.5q118 0 118 -158q0 -116 -53.5 -194t-159.5 -78q-20 0 -57 5l2 23q30 -6 62 -6q72 0 118 49.5t60 131.5q-55 -26 -118 -26zM274 264q0 137 -97 137q-55 0 -82 -36.5t-27 -86.5q0 -87 89 -87q60 0 114 26
q3 23 3 47z" />
    <glyph glyph-name="plus.inferior" unicode="&#x208a;" horiz-adv-x="396" 
d="M159 49l16 148h-146l2 23h147l14 138h24l-14 -138h146l-3 -23h-146l-16 -148h-24z" />
    <glyph glyph-name="minus.inferior" unicode="&#x208b;" horiz-adv-x="423" 
d="M45 197l3 23h309l-3 -23h-309z" />
    <glyph glyph-name="equal.inferior" unicode="&#x208c;" horiz-adv-x="503" 
d="M62 292l2 22h376l-2 -22h-376zM43 112l2 22h376l-2 -22h-376z" />
    <glyph glyph-name="parenleft.inferior" unicode="&#x208d;" horiz-adv-x="242" 
d="M160 -117h-25q-91 147 -91 317q0 243 181 430h24q-180 -194 -180 -428q0 -164 91 -319z" />
    <glyph glyph-name="parenright.inferior" unicode="&#x208e;" horiz-adv-x="240" 
d="M71 630h23q92 -142 92 -316q0 -242 -180 -431h-25q180 194 180 429q0 164 -90 318z" />
    <glyph glyph-name="a.inferior" unicode="&#x2090;" horiz-adv-x="422" 
d="M361 402l-42 -398q-59 -12 -108 -12q-86 0 -132 40t-46 137q0 113 62 177t171 64q40 0 95 -8zM214 14q38 0 83 8l39 361q-40 6 -76 6q-101 0 -152 -60.5t-51 -160.5q0 -80 36.5 -117t120.5 -37z" />
    <glyph glyph-name="e.inferior" unicode="&#x2091;" horiz-adv-x="368" 
d="M327 312q0 -33 -18.5 -58t-39 -38t-64 -24t-63.5 -13.5t-67 -7.5q-12 -1 -17 -2q3 -155 152 -155q41 0 82 12l-1 -22q-45 -12 -88 -12q-169 0 -169 182q0 106 51.5 171t132.5 65q50 0 79.5 -26.5t29.5 -71.5zM216 389q-72 0 -113 -56.5t-45 -143.5l43.5 4.5t45 6.5t48 10
t41 14t36.5 20.5t22.5 28.5t9.5 37q0 32 -20 55.5t-68 23.5z" />
    <glyph glyph-name="o.inferior" unicode="&#x2092;" horiz-adv-x="413" 
d="M213 389q-75 0 -114.5 -59t-39.5 -159q0 -76 26.5 -116.5t89.5 -40.5q78 0 117 60t39 154q0 161 -118 161zM173 -8q-138 0 -138 179q0 109 47.5 174t132.5 65q141 0 141 -183q0 -111 -50.5 -173t-132.5 -62z" />
    <glyph glyph-name="x.inferior" unicode="&#x2093;" horiz-adv-x="335" 
d="M318 400l-148 -197l110 -203h-26l-99 186l-137 -186h-28l153 204l-105 196h24l96 -180l134 180h26z" />
    <glyph glyph-name="h.inferior" unicode="&#x2095;" horiz-adv-x="427" 
d="M357 292l-30 -292h-24l31 290q9 99 -94 99q-74 0 -140 -44l-36 -345h-24l62 584h24l-23 -215q72 41 143 41q125 0 111 -118z" />
    <glyph glyph-name="k.inferior" unicode="&#x2096;" horiz-adv-x="361" 
d="M81 157l-17 -157h-24l63 583h24l-44 -402q81 40 151 106t71 113h25q0 -38 -41 -87t-104 -94l122 -219h-27l-114 205q-49 -32 -85 -48z" />
    <glyph glyph-name="l.inferior" unicode="&#x2097;" horiz-adv-x="168" 
d="M126 583l-62 -583h-24l62 583h24z" />
    <glyph glyph-name="m.inferior" unicode="&#x2098;" horiz-adv-x="662" 
d="M593 292l-31 -292h-24l31 290q6 51 -12.5 75t-83.5 24q-16 0 -32 -2t-26.5 -4t-24 -6t-19.5 -6.5l-18 -7.5t-14 -6q9 -27 5 -65l-31 -292h-24l31 290q6 52 -13.5 75.5t-89.5 23.5q-56 0 -115 -16l-39 -373h-25l42 389q63 21 139 21q85 0 111 -34q76 34 145 34
q73 0 99 -28.5t19 -89.5z" />
    <glyph glyph-name="n.inferior" unicode="&#x2099;" horiz-adv-x="426" 
d="M357 292l-31 -292h-24l31 290q6 51 -16.5 75t-93.5 24q-64 0 -122 -17l-39 -372h-24l41 389q65 21 145 21q78 0 109 -27.5t24 -90.5z" />
    <glyph glyph-name="p.inferior" unicode="&#x209a;" horiz-adv-x="423" 
d="M23 -156l59 555q49 11 104 11q91 0 136 -42t45 -138q0 -110 -57 -174t-164 -64q-30 0 -83 8l-16 -156h-24zM145 14q104 0 151 60t47 154q0 85 -37.5 123t-119.5 38q-43 0 -82 -8l-38 -360q49 -7 79 -7z" />
    <glyph glyph-name="s.inferior" unicode="&#x209b;" horiz-adv-x="338" 
d="M18 27q42 -13 97 -13q74 0 107.5 23.5t33.5 72.5q0 24 -7 39.5t-24.5 24.5t-31 12.5t-41.5 8.5q-26 6 -41.5 11t-33.5 15.5t-26 28.5t-8 45q0 115 157 115q38 0 83 -9l-3 -22q-47 9 -81 9q-61 0 -96 -20t-35 -71q0 -22 6 -36t22 -22.5t28.5 -12.5t39.5 -10
q30 -6 46.5 -11.5t35.5 -16.5t27 -29.5t8 -45.5q0 -121 -167 -121q-49 0 -98 13z" />
    <glyph glyph-name="t.inferior" unicode="&#x209c;" horiz-adv-x="266" 
d="M14 379l2 21h65l13 104h22l-11 -104h139l-2 -21h-139l-29 -281q-4 -45 14 -64.5t61 -19.5q32 0 70 14l-2 -22q-42 -14 -74 -14q-105 0 -93 103l29 284h-65z" />
    <glyph glyph-name="colonsign" unicode="&#x20a1;" horiz-adv-x="703" 
d="M302 -89l36 82q-53 5 -96 22l-46 -104h-25l51 113q-152 75 -152 293q0 208 110 311t283 103q28 0 76 -4l30 67h24l-32 -70q35 -5 99 -18l40 88h25l-350 -778h14q71 0 157 13l-3 -25q-98 -14 -158 -14q-15 0 -22 1l-35 -80h-26zM99 319q0 -200 134 -270l294 653
q-30 3 -64 3q-166 0 -265 -97.5t-99 -288.5zM649 681q-53 13 -99 19l-296 -660q45 -19 96 -23z" />
    <glyph glyph-name="cruzeiro" unicode="&#x20a2;" horiz-adv-x="658" 
d="M96 322q0 -129 55.5 -203.5t154.5 -94.5l38 358h26l-10 -89q26 29 47.5 47.5t61.5 35t87 16.5q22 0 42 -3l-3 -28q-17 4 -41 4q-36 0 -67.5 -9t-56.5 -26.5t-40 -30.5t-33 -33l-26 -247q27 -3 57 -3q73 0 156 13l-3 -25q-94 -14 -157 -14q-64 0 -118.5 17.5t-100 54.5
t-71.5 103t-26 154q0 106 30.5 186t85.5 127.5t124.5 70.5t153.5 23q80 0 148 -16l-2 -26q-59 16 -147 16q-168 0 -266.5 -94t-98.5 -284z" />
    <glyph glyph-name="franc" unicode="&#x20a3;" horiz-adv-x="750" 
d="M724 400l-4 -28q-16 4 -40 4q-47 0 -89 -18t-61.5 -35t-46.5 -45l-29 -278h-27l38 367h-321l-38 -367h-28l75 718h383l-2 -26h-356l-31 -299h348l-9 -88q27 30 47 47t60.5 34t87.5 17q22 0 43 -3z" />
    <glyph glyph-name="lira" unicode="&#x20a4;" horiz-adv-x="619" 
d="M434 705q-95 0 -155 -52t-70 -148l-7 -62h285l-3 -25h-284l-13 -117h284l-2 -25h-284l-5 -50q-15 -145 -101 -200h449l-3 -26h-501l3 27q47 0 81.5 58t43.5 136l6 55h-97l3 25h96l13 117h-97l3 25h96l7 63q11 106 76 165.5t179 59.5q84 0 164 -26l-4 -28q-77 28 -163 28z
" />
    <glyph glyph-name="mill" unicode="&#x20a5;" horiz-adv-x="819" 
d="M751 376l-39 -376h-27l39 374q7 66 -21 98t-109 32q-49 0 -95 -12l-71 -155l-36 -337h-27l28 261l-185 -404h-28l221 482l4 35q2 22 2 30q0 54 -33 77t-120 23q-80 0 -130 -9l-52 -495h-27l54 517q74 12 156 12q112 0 151 -40q43 17 75 25l83 180h27l-79 -174q47 9 84 9
q157 0 157 -124q0 -9 -2 -29zM433 409l34 74q-20 -6 -45 -17q11 -25 11 -57z" />
    <glyph glyph-name="naira" unicode="&#x20a6;" horiz-adv-x="796" 
d="M65 427l3 24h83l28 267h27l156 -267h279l27 267h28l-28 -267h92l-2 -24h-93l-12 -117h92l-2 -24h-92l-30 -286h-26l-168 286h-266l-30 -286h-27l30 286h-84l3 24h83l12 117h-83zM376 427l69 -117h181l12 117h-262zM176 427l-13 -117h250l-68 117h-169zM596 52h4l24 234
h-165zM201 668l-23 -217h153l-127 217h-3z" />
    <glyph glyph-name="pesetas" unicode="&#x20a7;" horiz-adv-x="1291" 
d="M336 718q135 0 193.5 -48.5t58.5 -149.5q0 -36 -6.5 -68t-25.5 -65t-48.5 -56.5t-79 -38.5t-114.5 -15h-179l-29 -277h-27l75 718h182zM331 692h-153l-41 -389h178q244 0 244 215q0 88 -50.5 131t-177.5 43zM883 32q49 -16 125 -16q95 0 139 29.5t44 92.5q0 26 -8 45
t-17.5 29.5t-31 19t-35 11.5t-43.5 9q-34 7 -53 13.5t-42 20t-33.5 37t-10.5 58.5q0 148 198 148q38 0 107 -12l-4 -26q-60 12 -104 12q-79 0 -124 -26t-45 -93q0 -30 8.5 -49.5t29 -31t36.5 -16t49 -11.5q32 -7 48 -11.5t39.5 -14.5t34.5 -23t20 -34.5t9 -50.5
q0 -152 -212 -152q-62 0 -127 16zM600 495l2 24h85l14 135h27l-15 -135h180l-2 -24h-180l-39 -370q-5 -58 19 -84t80 -26q41 0 90 20l-2 -27q-53 -18 -95 -18q-133 0 -119 133l39 372h-84z" />
    <glyph glyph-name="rupee" unicode="&#x20a8;" horiz-adv-x="983" 
d="M731 -10q-110 0 -192.5 70t-187.5 240q-28 -4 -69 -4h-145l-31 -296h-28l76 719q52 9 152 9q137 0 196 -45.5t59 -152.5q0 -190 -183 -226q110 -168 182.5 -228t174.5 -60q152 0 152 118q0 33 -10 54t-35 34t-46 19t-63 14q-30 5 -47 9.5t-41 14t-37 22t-23 34t-10 50.5
q0 72 55.5 110t159.5 38q56 0 128 -12l-3 -26q-67 13 -127 13q-185 0 -185 -120q0 -21 4.5 -37t17 -27t21.5 -17.5t31 -12.5t31.5 -8t36.5 -7q32 -6 51 -10.5t44.5 -15t40 -24t24.5 -37t10 -54.5q0 -70 -46.5 -109t-137.5 -39zM303 702q-67 0 -124 -6l-40 -375h141
q130 0 191 49t61 160q0 93 -50 132.5t-179 39.5z" />
    <glyph glyph-name="won" unicode="&#x20a9;" horiz-adv-x="990" 
d="M503 718l58 -266h256l108 266h28l-109 -266h105l-2 -23h-113l-48 -118h148l-2 -23h-155l-118 -288h-28l-63 288h-154l-119 -288h-28l-62 288h-150l3 23h142l-26 118h-104l3 23h96l-57 266h29l57 -266h256l51 125l-30 141h28zM566 429l25 -118h169l48 118h-242zM203 429
l26 -118h167l49 118h-242zM649 47h4l97 241h-154zM285 50h4l98 238h-153zM472 429l-49 -118h140l-26 118h-65zM515 533l-34 -81h51z" />
    <glyph glyph-name="sheqel" unicode="&#x20aa;" horiz-adv-x="796" 
d="M78 0l75 718h165q99 0 152 -49.5t53 -165.5q0 -28 -3 -61l-25 -229h-26l23 219q4 46 4 63q0 107 -46.5 152.5t-134.5 45.5h-137l-73 -693h-27zM740 718l-39 -374q-9 -87 -23.5 -144t-43 -105.5t-77.5 -71.5t-121 -23h-168l52 502h28l-51 -477h140q113 0 165 69t72 253
l39 371h27z" />
    <glyph glyph-name="dong" unicode="&#x20ab;" horiz-adv-x="600" 
d="M498 712l7 63h24l-7 -63h67l-3 -23h-66l-61 -592q-73 -16 -153 -16q-242 0 -242 232q0 143 81 223.5t232 80.5q39 0 110 -9l9 81h-164l3 23h163zM378 594q-145 0 -216.5 -76.5t-71.5 -202.5q0 -210 218 -210q72 0 129 12l48 466q-63 11 -107 11zM47 0l2 23h441l-2 -23
h-441z" />
    <glyph glyph-name="Euro" unicode="&#x20ac;" horiz-adv-x="629" 
d="M159 265v-5h300l-3 -23h-297q13 -220 232 -220q62 0 137 11l-3 -25q-84 -11 -140 -11q-109 0 -177.5 58t-75.5 187h-90l3 23h86v5q0 52 7 93h-83l3 23h84q26 118 107.5 175.5t204.5 57.5q70 0 129 -13l-2 -25q-54 13 -129 13q-234 0 -281 -208h301l-3 -23h-303
q-7 -39 -7 -93z" />
    <glyph glyph-name="uni20AD" unicode="&#x20ad;" horiz-adv-x="644" 
d="M203 718l-35 -333h101l319 333h33l-318 -333h281l-3 -27h-279l256 -358h-32l-258 358h-103l-37 -358h-27l37 358h-92l3 27h92l35 333h27z" />
    <glyph glyph-name="uni20AE" unicode="&#x20ae;" horiz-adv-x="600" 
d="M77 718h533l-3 -26h-253l-27 -266l188 77l-2 -27l-189 -78l-13 -124l189 78l-3 -28l-189 -78l-26 -246h-27l24 235l-193 -79l3 27l193 79l13 125l-193 -79l2 27l194 79l29 278h-252z" />
    <glyph glyph-name="uni20B1" unicode="&#x20b1;" horiz-adv-x="719" 
d="M79 548l2 25h78l16 145h182q116 0 174.5 -36t72.5 -109h97l-2 -25h-91q1 -9 1 -28q0 -47 -11 -84h89l-3 -25h-95q-56 -134 -254 -134h-179l-29 -277h-27l43 411h-78l2 25h78l12 112h-78zM580 518q0 10 -2 30h-394l-12 -112h396q12 37 12 82zM352 692h-153l-13 -119h388
q-13 60 -64.5 89.5t-157.5 29.5zM336 303q171 0 222 108h-388l-12 -108h178z" />
    <glyph glyph-name="uni20B4" unicode="&#x20b4;" horiz-adv-x="611" 
d="M54 279l3 24h74q21 21 57 38t55 22.5t70 18.5q76 20 108 36h-352l2 24h387q51 43 51 121q0 81 -49 111.5t-140 30.5q-75 0 -160 -18l3 27q93 17 162 17q48 0 84 -7t66.5 -25t46.5 -51.5t16 -82.5q0 -78 -42 -123h67l-2 -24h-92q-45 -32 -147 -56q-111 -27 -153 -59h380
l-3 -24h-402q-33 -41 -33 -109q0 -84 49 -119t146 -35q99 0 182 23l-3 -27q-93 -22 -182 -22q-103 0 -162 39t-59 138q0 67 29 112h-57z" />
    <glyph glyph-name="uni20B9" unicode="&#x20b9;" horiz-adv-x="583" 
d="M112 578l3 25h435l-3 -25h-164q66 -33 74 -120h77l-2 -25h-74q-2 -152 -156 -179l150 -254h-31l-148 251q-25 -3 -55 -3h-135l2 26h132q112 0 163 37t51 122h-333l2 25h330q-6 62 -50 91t-146 29h-122z" />
    <glyph glyph-name="uni20BA" unicode="&#x20ba;" horiz-adv-x="571" 
d="M241 718l-21 -196l257 105l-2 -27l-258 -105l-13 -125l258 105l-4 -26l-257 -106l-33 -317h12q151 0 225 61.5t91 224.5h27q-10 -94 -37 -156t-73 -96t-101 -47t-133 -13h-40l34 332l-126 -52l4 27l125 51l13 125l-125 -51l2 27l126 51l22 208h27z" />
    <glyph glyph-name="rubel" unicode="&#x20bd;" horiz-adv-x="636" 
d="M30 123l2 25h113l11 102h-112l3 25h111l47 444q54 9 147 9q136 0 197 -53.5t61 -165.5q0 -53 -13 -96.5t-43.5 -81.5t-87.5 -59.5t-138 -21.5h-145l-11 -102h296l-2 -25h-296l-13 -123h-27l13 123h-113zM347 702q-63 0 -117 -6l-45 -421h143q255 0 255 231
q0 99 -53.5 147.5t-182.5 48.5z" />
    <glyph glyph-name="uni2113" unicode="&#x2113;" horiz-adv-x="373" 
d="M110 521v-208q205 158 205 286q0 46 -25.5 74.5t-70.5 28.5q-109 0 -109 -181zM110 283v-134q0 -67 27 -100.5t86 -33.5q53 0 95 17v-26q-57 -16 -98 -16q-63 0 -100.5 34t-37.5 121v376q0 206 139 206q58 0 89.5 -33t31.5 -89q0 -40 -17.5 -82t-40.5 -74t-59 -67.5
t-59 -54.5t-56 -44z" />
    <glyph glyph-name="uni2116" unicode="&#x2116;" horiz-adv-x="1089" 
d="M727 224l1 23h287l-1 -23h-287zM569 0l-391 668h-3l-70 -668h-27l75 718h27l390 -666h4l68 666h28l-75 -718h-26zM906 709q-75 0 -114.5 -59t-39.5 -159q0 -76 26.5 -116.5t89.5 -40.5q78 0 117 60t39 154q0 161 -118 161zM866 312q-138 0 -138 179q0 109 47.5 174
t132.5 65q141 0 141 -183q0 -111 -50.5 -173t-132.5 -62z" />
    <glyph glyph-name="uni2117" unicode="&#x2117;" horiz-adv-x="740" 
d="M367 -10q-127 0 -214.5 86t-87.5 225t87.5 226t214.5 87q131 0 219.5 -86t88.5 -227q0 -138 -88.5 -224.5t-219.5 -86.5zM367 11q122 0 203.5 80.5t81.5 209.5q0 132 -81 212t-204 80q-119 0 -199.5 -80.5t-80.5 -211.5q0 -130 80.5 -210t199.5 -80zM370 499
q82 0 118.5 -31t36.5 -94q0 -128 -142 -128h-98v-155h-21v408h106zM368 480h-83v-215h98q121 0 121 108q0 53 -30.5 80t-105.5 27z" />
    <glyph glyph-name="servicemark" unicode="&#x2120;" horiz-adv-x="909" 
d="M393 297l53 421h24l152 -390h2l148 390h23l54 -421h-23l-47 376h-2l-143 -376h-22l-148 378h-1l-47 -378h-23zM203 311q123 0 123 99q0 21 -6.5 36.5t-15 24.5t-26 16.5t-28.5 10.5t-33 8q-23 5 -34.5 8t-30 11t-27.5 18t-16 27.5t-7 41.5q0 113 141 113q34 0 92 -10v-21
q-55 10 -92 10q-118 0 -118 -91q0 -24 7.5 -40.5t25 -25.5t30 -12.5t38.5 -8.5q23 -5 33 -7.5t31 -11.5t31 -20t19 -31t9 -47q0 -119 -145 -119q-55 0 -105 14v21q48 -14 104 -14z" />
    <glyph glyph-name="trademark" unicode="&#x2122;" horiz-adv-x="922" 
d="M402 297l54 421h23l153 -390h1l148 390h23l54 -421h-23l-47 376h-2l-143 -376h-21l-149 378h-1l-47 -378h-23zM93 718h315v-20h-145v-401h-23v401h-147v20z" />
    <glyph glyph-name="Omega" unicode="&#x2126;" horiz-adv-x="737" 
d="M403 708q-122 0 -202.5 -84t-80.5 -192q0 -87 60 -150t149 -85l-21 -197h-296l2 24h273l17 155q-38 11 -72.5 31t-66.5 50t-51 74t-19 96q0 123 90.5 212t221.5 89q118 0 194.5 -73.5t76.5 -181.5q0 -60 -23.5 -111t-63.5 -86.5t-84 -59.5t-94 -40l-16 -155h272l-2 -24
h-296l21 197q48 12 92.5 35t83.5 56.5t62.5 81t23.5 101.5q0 97 -69 167t-182 70z" />
    <glyph glyph-name="estimated" unicode="&#x212e;" horiz-adv-x="822" 
d="M783 318h-573q-6 0 -6 -4v-184q0 -10 9 -23q35 -43 90.5 -71t120.5 -28q73 0 138 30t109 82h33q-113 -133 -281 -133q-154 0 -256 98.5t-102 241.5q0 144 101.5 242.5t256.5 98.5t257.5 -98.5t102.5 -242.5v-9zM644 344v184q0 15 -8 24q-29 37 -88.5 66t-123.5 29
t-124 -30.5t-86 -67.5q-10 -16 -10 -25v-180q0 -5 6 -5h431q3 0 3 5z" />
    <glyph glyph-name="onethird" unicode="&#x2153;" horiz-adv-x="775" 
d="M115 0h-28l549 718h28zM615 217v-2q38 -6 61.5 -29.5t23.5 -64.5q0 -61 -42.5 -94t-110.5 -33q-40 0 -80 11l2 22q46 -11 77 -11q61 0 95.5 28t34.5 75q0 83 -121 83h-16l2 21h16q52 0 91 30.5t39 79.5q0 69 -85 69q-47 0 -89 -14l3 22q45 14 88 14q53 0 80 -24.5
t27 -63.5q0 -43 -26 -74.5t-70 -44.5zM151 303l41 391l-121 -14l2 22l128 17h18l-44 -416h-24z" />
    <glyph glyph-name="twothirds" unicode="&#x2154;" horiz-adv-x="804" 
d="M278 634q0 73 -93 73q-39 0 -86 -13l2 22q42 14 87 14q58 0 86.5 -26t28.5 -68q0 -119 -220 -307h209l-2 -23h-243l1 17q230 200 230 311zM158 0h-28l549 718h28zM648 217v-2q38 -6 61.5 -29.5t23.5 -64.5q0 -61 -42.5 -94t-110.5 -33q-40 0 -80 11l2 22q46 -11 77 -11
q61 0 95.5 28t34.5 75q0 83 -121 83h-16l2 21h16q52 0 91 30.5t39 79.5q0 69 -85 69q-47 0 -89 -14l3 22q45 14 88 14q53 0 80 -24.5t27 -63.5q0 -43 -26 -74.5t-70 -44.5z" />
    <glyph glyph-name="uni215B" unicode="&#x215b;" horiz-adv-x="801" 
d="M462 94q0 82 114 128q-79 35 -79 98q0 45 35.5 74.5t91.5 29.5q50 0 80.5 -25t30.5 -65q0 -73 -107 -110q21 -8 35.5 -15.5t31 -20.5t25.5 -32t9 -44q0 -56 -43.5 -87t-102.5 -31q-54 0 -87.5 26.5t-33.5 73.5zM705 112q0 41 -26 61.5t-82 40.5q-62 -29 -83 -51
q-27 -28 -27 -66q0 -36 24.5 -58.5t73.5 -22.5q52 0 86 25t34 71zM521 319q0 -55 85 -87q47 18 76 41t29 59q0 30 -21.5 50t-67.5 20q-52 0 -76.5 -25t-24.5 -58zM124 0h-28l549 718h28zM151 303l41 391l-121 -14l2 22l128 17h18l-44 -416h-24z" />
    <glyph glyph-name="arrowleft" unicode="&#x2190;" horiz-adv-x="759" 
d="M759 311h-593l136 -226h-27l-147 238l149 248h27l-137 -235h592v-25z" />
    <glyph glyph-name="arrowup" unicode="&#x2191;" horiz-adv-x="560" 
d="M267 57v593l-226 -136v27l238 147l248 -149v-27l-235 137v-592h-25z" />
    <glyph glyph-name="arrowright" unicode="&#x2192;" horiz-adv-x="759" 
d="M593 311h-593v25h592l-137 235h27l149 -248l-147 -238h-27z" />
    <glyph glyph-name="arrowdown" unicode="&#x2193;" horiz-adv-x="560" 
d="M267 95v594h25v-593l235 138v-27l-248 -149l-238 147v27z" />
    <glyph glyph-name="uni2196" unicode="&#x2196;" horiz-adv-x="692" 
d="M588 144l-420 420l-63 -256l-19 19l64 272l280 70l20 -19l-264 -70l419 -418z" />
    <glyph glyph-name="uni2197" unicode="&#x2197;" horiz-adv-x="692" 
d="M523 564l-419 -420l-18 18l419 418l-263 70l19 19l280 -70l64 -272l-19 -19z" />
    <glyph glyph-name="uni2198" unicode="&#x2198;" horiz-adv-x="692" 
d="M104 669l419 -419l63 256l19 -20l-64 -272l-280 -70l-19 20l263 69l-419 418z" />
    <glyph glyph-name="uni2199" unicode="&#x2199;" horiz-adv-x="692" 
d="M168 250l420 419l17 -18l-419 -418l264 -69l-20 -20l-280 70l-64 272l19 20z" />
    <glyph glyph-name="partialdiff" unicode="&#x2202;" horiz-adv-x="535" 
d="M291 533q68 0 128 -29q-50 154 -215 247l14 22q262 -138 255 -461q-1 -66 -13.5 -120.5t-39 -101.5t-75.5 -73.5t-116 -26.5q-188 0 -188 232q0 143 61 227t189 84zM446 321q0 80 -17 150q-58 37 -138 37q-221 0 -221 -284q0 -101 36.5 -155t126.5 -54q213 0 213 306z
" />
    <glyph glyph-name="Delta" unicode="&#x2206;" horiz-adv-x="589" 
d="M-1 0l342 750l186 -750h-528zM37 25h458l-162 652z" />
    <glyph glyph-name="product" unicode="&#x220f;" horiz-adv-x="710" 
d="M643 718l-75 -718h-28l72 692h-434l-72 -692h-28l75 718h490z" />
    <glyph glyph-name="summation" unicode="&#x2211;" horiz-adv-x="571" 
d="M306 270l-1 -16l-290 -430h465l-3 -26h-497l3 22l295 442l-204 435l3 21h497l-3 -26h-464z" />
    <glyph glyph-name="minus" unicode="&#x2212;" horiz-adv-x="520" 
d="M82 317l3 26h357l-3 -26h-357z" />
    <glyph glyph-name="radical" unicode="&#x221a;" horiz-adv-x="596" 
d="M193 -72l-156 539h28l145 -502l395 836h29l-414 -873h-27z" />
    <glyph glyph-name="infinity" unicode="&#x221e;" horiz-adv-x="909" 
d="M689 523q71 0 115.5 -48.5t44.5 -124.5q0 -89 -56.5 -150t-136.5 -61q-69 0 -112 45t-87 132q-36 -48 -54.5 -70t-50 -52t-62.5 -42.5t-68 -12.5q-69 0 -113 47t-44 123q0 92 56 153t140 61q70 0 115 -43.5t86 -122.5q29 39 49 63t49 51t61 39.5t68 12.5zM222 163
q24 0 45 5.5t42.5 21.5t34.5 26t36.5 38.5t31 38.5t33.5 45q-21 38 -35.5 61t-37.5 49t-51 38t-62 12q-72 0 -121 -53t-49 -133q0 -67 36 -108t97 -41zM687 498q-60 0 -107.5 -40t-106.5 -121q18 -35 28 -53t28.5 -45.5t35 -41t41 -24t51.5 -10.5q70 0 119 53.5t49 130.5
q0 67 -38 109t-100 42z" />
    <glyph glyph-name="integral" unicode="&#x222b;" horiz-adv-x="401" 
d="M-49 -202l3 26h51q62 0 100 37.5t45 106.5l68 642q10 92 62 137t114 45h53l-3 -26h-52q-60 0 -100 -43t-48 -114l-68 -643q-7 -70 -51 -119t-122 -49h-52z" />
    <glyph glyph-name="approxequal" unicode="&#x2248;" horiz-adv-x="709" 
d="M91 384q63 74 154 74q50 0 135 -37.5t123 -37.5q65 0 141 73l-3 -30q-67 -69 -144 -69q-40 0 -123 37t-132 37q-87 0 -154 -76zM69 174q63 74 154 74q50 0 135 -37.5t123 -37.5q65 0 141 73l-3 -30q-67 -69 -144 -69q-40 0 -123 37t-132 37q-87 0 -154 -76z" />
    <glyph glyph-name="notequal" unicode="&#x2260;" horiz-adv-x="598" 
d="M92 419l3 26h249l81 129h27l-81 -129h157l-3 -26h-170l-116 -187h266l-3 -26h-279l-78 -125h-29l78 125h-125l3 26h139l117 187h-236z" />
    <glyph glyph-name="lessequal" unicode="&#x2264;" horiz-adv-x="445" 
d="M351 63l-291 262l2 19l346 262l-4 -30l-314 -242l264 -240zM27 3l3 25h318l-3 -25h-318z" />
    <glyph glyph-name="greaterequal" unicode="&#x2265;" horiz-adv-x="439" 
d="M390 325l-345 -262l2 31l316 242l-265 240l3 30l290 -262zM358 28l-3 -25h-317l3 25h317z" />
    <glyph glyph-name="uni2460" unicode="&#x2460;" horiz-adv-x="828" 
d="M416 -10q-151 0 -255 102.5t-104 267.5t104 268t255 103q157 0 262 -102t105 -269q0 -164 -105.5 -267t-261.5 -103zM416 11q147 0 246 97.5t99 251.5q0 158 -98.5 254t-246.5 96q-142 0 -239.5 -97t-97.5 -253t97.5 -252.5t239.5 -96.5zM425 150v391l-122 -14v22l128 17
h17v-416h-23z" />
    <glyph glyph-name="uni2461" unicode="&#x2461;" horiz-adv-x="828" 
d="M416 -10q-151 0 -255 102.5t-104 267.5t104 268t255 103q157 0 262 -102t105 -269q0 -164 -105.5 -267t-261.5 -103zM416 11q147 0 246 97.5t99 251.5q0 158 -98.5 254t-246.5 96q-142 0 -239.5 -97t-97.5 -253t97.5 -252.5t239.5 -96.5zM509 465q0 37 -24.5 61.5
t-79.5 24.5q-40 0 -87 -13v22q42 14 89 14q63 0 94.5 -28.5t31.5 -74.5q0 -117 -192 -298h206v-23h-240v17q202 192 202 298z" />
    <glyph glyph-name="uni2462" unicode="&#x2462;" horiz-adv-x="828" 
d="M416 -10q-151 0 -255 102.5t-104 267.5t104 268t255 103q157 0 262 -102t105 -269q0 -164 -105.5 -267t-261.5 -103zM416 11q147 0 246 97.5t99 251.5q0 158 -98.5 254t-246.5 96q-142 0 -239.5 -97t-97.5 -253t97.5 -252.5t239.5 -96.5zM442 367v-2q95 -14 95 -104
q0 -57 -38 -87t-102 -30q-40 0 -84 11v22q47 -11 81 -11q57 0 88.5 25t31.5 70q0 91 -132 91h-16v21h15q50 0 86 28t36 75q0 39 -26.5 57.5t-69.5 18.5q-46 0 -88 -14v22q45 14 90 14q58 0 87.5 -25.5t29.5 -69.5q0 -41 -23 -70.5t-61 -41.5z" />
    <glyph glyph-name="uni2463" unicode="&#x2463;" horiz-adv-x="828" 
d="M416 -10q-151 0 -255 102.5t-104 267.5t104 268t255 103q157 0 262 -102t105 -269q0 -164 -105.5 -267t-261.5 -103zM416 11q147 0 246 97.5t99 251.5q0 158 -98.5 254t-246.5 96q-142 0 -239.5 -97t-97.5 -253t97.5 -252.5t239.5 -96.5zM535 268h-59v-118h-23v118h-212
v20l212 278h23v-275h59v-23zM451 530l-184 -239h186v239h-2z" />
    <glyph glyph-name="uni2464" unicode="&#x2464;" horiz-adv-x="828" 
d="M416 -10q-151 0 -255 102.5t-104 267.5t104 268t255 103q157 0 262 -102t105 -269q0 -164 -105.5 -267t-261.5 -103zM416 11q147 0 246 97.5t99 251.5q0 158 -98.5 254t-246.5 96q-142 0 -239.5 -97t-97.5 -253t97.5 -252.5t239.5 -96.5zM303 177q51 -11 80 -11
q135 0 135 110q0 100 -132 100h-71v190h206v-21h-183v-148h51q152 0 152 -120q0 -61 -38 -97t-118 -36q-38 0 -82 11v22z" />
    <glyph glyph-name="uni2465" unicode="&#x2465;" horiz-adv-x="828" 
d="M416 -10q-151 0 -255 102.5t-104 267.5t104 268t255 103q157 0 262 -102t105 -269q0 -164 -105.5 -267t-261.5 -103zM416 11q147 0 246 97.5t99 251.5q0 158 -98.5 254t-246.5 96q-142 0 -239.5 -97t-97.5 -253t97.5 -252.5t239.5 -96.5zM408 397q56 0 88 -29.5t32 -89.5
q0 -59 -31 -96.5t-94 -37.5q-133 0 -133 186q0 111 45.5 177.5t140.5 66.5q21 0 60 -5v-23q-31 6 -65 6q-70 0 -110 -48t-47 -133q52 26 114 26zM405 166q52 0 76 31.5t24 79.5q0 98 -101 98q-53 0 -112 -25q0 -40 4 -69t15 -57.5t34.5 -43t59.5 -14.5z" />
    <glyph glyph-name="uni2466" unicode="&#x2466;" horiz-adv-x="828" 
d="M416 -10q-151 0 -255 102.5t-104 267.5t104 268t255 103q157 0 262 -102t105 -269q0 -164 -105.5 -267t-261.5 -103zM416 11q147 0 246 97.5t99 251.5q0 158 -98.5 254t-246.5 96q-142 0 -239.5 -97t-97.5 -253t97.5 -252.5t239.5 -96.5zM381 150h-22l145 395h-214v21
h240v-14z" />
    <glyph glyph-name="uni2467" unicode="&#x2467;" horiz-adv-x="828" 
d="M416 -10q-151 0 -255 102.5t-104 267.5t104 268t255 103q157 0 262 -102t105 -269q0 -164 -105.5 -267t-261.5 -103zM416 11q147 0 246 97.5t99 251.5q0 158 -98.5 254t-246.5 96q-142 0 -239.5 -97t-97.5 -253t97.5 -252.5t239.5 -96.5zM284 250q0 26 9.5 47t27.5 35.5
t31 22.5t33 17q-89 34 -89 100q0 43 32.5 72.5t86.5 29.5q52 0 86 -27.5t34 -69.5q0 -68 -95 -102q32 -12 52.5 -22.5t40 -36t19.5 -59.5q0 -53 -39.5 -83t-97.5 -30q-57 0 -94 28t-37 78zM529 258q0 31 -19 52.5t-40 31t-62 22.5q-57 -28 -76 -49q-24 -26 -24 -61
q0 -38 27.5 -63t80.5 -25q51 0 82 24.5t31 67.5zM319 472q0 -58 99 -90q94 38 94 92q0 31 -25.5 54.5t-72.5 23.5q-49 0 -72 -24.5t-23 -55.5z" />
    <glyph glyph-name="uni2468" unicode="&#x2468;" horiz-adv-x="828" 
d="M416 -10q-151 0 -255 102.5t-104 267.5t104 268t255 103q157 0 262 -102t105 -269q0 -164 -105.5 -267t-261.5 -103zM416 11q147 0 246 97.5t99 251.5q0 158 -98.5 254t-246.5 96q-142 0 -239.5 -97t-97.5 -253t97.5 -252.5t239.5 -96.5zM419 321q-57 0 -89 29t-32 89
q0 59 32 96.5t94 37.5q133 0 133 -185q0 -111 -45.5 -177.5t-140.5 -66.5q-21 0 -60 5v22q31 -6 65 -6q70 0 109.5 47.5t46.5 133.5q-50 -25 -113 -25zM534 367q5 79 -20.5 132t-91.5 53q-52 0 -76.5 -32t-24.5 -80q0 -97 102 -97q56 0 111 24z" />
    <glyph glyph-name="uni2469" unicode="&#x2469;" horiz-adv-x="828" 
d="M416 -10q-151 0 -255 102.5t-104 267.5t104 268t255 103q157 0 262 -102t105 -269q0 -164 -105.5 -267t-261.5 -103zM416 11q147 0 246 97.5t99 251.5q0 158 -98.5 254t-246.5 96q-142 0 -239.5 -97t-97.5 -253t97.5 -252.5t239.5 -96.5zM285 150v391l-122 -14v22l128 17
h17v-416h-23zM535 166q60 0 93 54t33 152q0 89 -33 134.5t-91 45.5q-63 0 -96 -52t-33 -147q0 -90 35 -138.5t92 -48.5zM532 144q-73 0 -110 57t-37 153q0 105 39 162.5t115 57.5q71 0 108 -51.5t37 -150.5q0 -109 -39 -168.5t-113 -59.5z" />
    <glyph glyph-name="uni24CA" unicode="&#x24ca;" horiz-adv-x="740" 
d="M367 -10q-127 0 -214.5 86t-87.5 225t87.5 226t214.5 87q131 0 219.5 -86t88.5 -227q0 -138 -88.5 -224.5t-219.5 -86.5zM367 11q122 0 203.5 80.5t81.5 209.5q0 132 -81 212t-204 80q-119 0 -199.5 -80.5t-80.5 -211.5q0 -130 80.5 -210t199.5 -80zM243 256
q0 -66 33 -99.5t92 -33.5q61 0 94.5 37.5t33.5 102.5v214h21v-216q0 -67 -38.5 -112.5t-110.5 -45.5q-63 0 -104.5 36.5t-41.5 114.5v223h21v-221z" />
    <glyph glyph-name="uni24EA" unicode="&#x24ea;" horiz-adv-x="828" 
d="M416 -10q-151 0 -255 102.5t-104 267.5t104 268t255 103q157 0 262 -102t105 -269q0 -164 -105.5 -267t-261.5 -103zM416 11q147 0 246 97.5t99 251.5q0 158 -98.5 254t-246.5 96q-142 0 -239.5 -97t-97.5 -253t97.5 -252.5t239.5 -96.5zM417 166q60 0 93 54t33 152
q0 89 -33 134.5t-91 45.5q-62 0 -95 -52t-33 -147q0 -90 34.5 -138.5t91.5 -48.5zM414 144q-73 0 -110 57t-37 153q0 105 39 162.5t116 57.5q70 0 107.5 -51.5t37.5 -150.5q0 -109 -39.5 -168.5t-113.5 -59.5z" />
    <glyph glyph-name="uni24FF" unicode="&#x24ff;" horiz-adv-x="828" 
d="M416 -10q-151 0 -255 102.5t-104 267.5t104 268t255 103q157 0 262 -102t105 -269q0 -164 -105.5 -267t-261.5 -103zM417 166q-57 0 -91.5 48.5t-34.5 138.5q0 95 33 147t95 52q58 0 91 -45.5t33 -134.5q0 -98 -33 -152t-93 -54zM414 144q74 0 113.5 59.5t39.5 168.5
q0 99 -37.5 150.5t-107.5 51.5q-77 0 -116 -57.5t-39 -162.5q0 -96 37 -153t110 -57z" />
    <glyph glyph-name="uni25B2" unicode="&#x25b2;" horiz-adv-x="664" 
d="M641 23h-603l301 482z" />
    <glyph glyph-name="uni25B6" unicode="&#x25b6;" horiz-adv-x="598" 
d="M99 -37v603l481 -301z" />
    <glyph glyph-name="uni25B8" unicode="&#x25b8;" horiz-adv-x="418" 
d="M400 259l-301 -302v603z" />
    <glyph glyph-name="uni25BA" unicode="&#x25ba;" horiz-adv-x="912" 
d="M912 261l-813 -302v603z" />
    <glyph glyph-name="uni25BC" unicode="&#x25bc;" horiz-adv-x="664" 
d="M37 504h603l-302 -482z" />
    <glyph glyph-name="uni25C0" unicode="&#x25c0;" horiz-adv-x="598" 
d="M499 -37l-481 302l481 301v-603z" />
    <glyph glyph-name="uni25C2" unicode="&#x25c2;" horiz-adv-x="418" 
d="M319 -56l-301 303l301 300v-603z" />
    <glyph glyph-name="uni25C4" unicode="&#x25c4;" horiz-adv-x="912" 
d="M813 -43l-813 301l813 302v-603z" />
    <glyph glyph-name="lozenge" unicode="&#x25ca;" horiz-adv-x="609" 
d="M273 -1l-238 353l314 371l235 -371zM275 37l279 315l-209 332l-280 -332z" />
    <glyph glyph-name="uni2610" unicode="&#x2610;" horiz-adv-x="856" 
d="M68 0v718h720v-718h-720zM92 696v-674h672v674h-672z" />
    <glyph glyph-name="uni2611" unicode="&#x2611;" horiz-adv-x="856" 
d="M68 0v718h720v-718h-720zM92 696v-674h672v674h-672zM393 162l195 428h59l-236 -462h-39l-145 195l43 26z" />
    <glyph glyph-name="uni261A" unicode="&#x261a;" horiz-adv-x="730" 
d="M689 342v-208l-83 -55q-80 -18 -167 -18l-87 5q19 20 19 41q0 8 -2.5 15.5t-4.5 11.5l-3 3q26 18 26 39q0 10 -4.5 19.5t-9.5 14.5l-5 5q19 15 19 37q0 20 -21 41l-282 2q-43 0 -43 36q0 37 43 37h323l32 -68l37 -23l11 9l-37 20l-39 79l-31 18l-116 -25h-6q-36 0 -36 30
q0 7 2 15t4 13l3 4l163 41l66 -12q32 -11 229 -127zM185 281h174q12 -12 12 -30q0 -15 -11 -29h-175q-19 13 -19 29q0 8 5 15.5t9 11.5zM196 207h163q13 -11 13 -29q0 -14 -12 -29h-164q-19 14 -19 28q0 8 4.5 15.5t9.5 11.5zM206 133h140q9 -11 9 -27q0 -19 -14 -33h-96
q-59 0 -59 30q0 8 5 15.5t10 11.5z" />
    <glyph glyph-name="uni261B" unicode="&#x261b;" horiz-adv-x="730" 
d="M41 134v208q197 116 229 127l66 12l163 -41q9 -16 9 -32q0 -30 -36 -30h-6l-116 25l-31 -18l-39 -79l-37 -20l11 -9l37 23l32 68h323q43 0 43 -37q0 -36 -43 -36l-282 -2q-21 -21 -21 -41q0 -10 4.5 -19t9.5 -13l5 -5q-19 -17 -19 -39q0 -21 26 -39q-10 -12 -10 -30
q0 -21 19 -41q-35 -5 -87 -5q-87 0 -167 18zM371 281h174q19 -13 19 -30q0 -16 -19 -29h-175q-11 14 -11 29q0 8 3 15.5t6 11.5zM371 207h163q19 -13 19 -30q0 -14 -19 -28h-164q-12 15 -12 29q0 8 3 15t7 11zM384 133h140q20 -13 20 -30q0 -30 -59 -30h-96q-14 14 -14 33
q0 7 2.5 14t4.5 10z" />
    <glyph glyph-name="uni261C" unicode="&#x261c;" horiz-adv-x="786" 
d="M646 97l75 56l24 -34l-89 -61q-80 -19 -166 -19q-22 0 -53 3t-51 6l-21 2q-13 -2 -61 -2q-36 0 -55.5 10.5t-19.5 39.5q0 18 16 34q-24 18 -24 44q0 19 12 31q-23 19 -23 43q0 13 7 23l-117 1q-59 0 -59 56q0 57 59 57h167q-3 9 -3 21q0 9 4 21.5t8 20.5l3 8l167 44
l66 -13q18 -6 51 -26.5t88.5 -56.5t93.5 -59l-22 -28q-7 5 -67 43q-113 72 -149 87l-59 12q-27 -6 -76.5 -20t-70.5 -19q-1 -9 -1 -14q0 -10 20 -10l116 24l40 -21l36 -81l33 -34l-17 -34l-52 33l-27 62h-349q-23 0 -23 -17q0 -16 23 -16l328 -2q29 -30 29 -61
q0 -21 -11 -37q11 -23 11 -39q0 -22 -18 -45q4 -16 4 -25q0 -13 -4 -24q1 -2 51 -2q74 0 156 18zM404 260h-152q-7 -3 -7 -10q0 -8 7 -9l156 -4q0 17 -4 23zM406 186h-144q-7 -4 -7 -10q0 -5 8 -9l145 -4v8q0 13 -2 15zM390 111h-119q-6 -7 -6 -10q0 -10 39 -10q23 0 34 1
q7 0 19 0.5t17 0.5h15q3 6 3 11q0 3 -2 7z" />
    <glyph glyph-name="uni261D" unicode="&#x261d;" horiz-adv-x="545" 
d="M99 96l56 -75l-34 -24l-61 89q-19 80 -19 166q0 22 3 53t6 51l2 21q-2 13 -2 61q0 36 10.5 55.5t39.5 19.5q18 0 34 -16q18 24 44 24q19 0 31 -12q19 23 43 23q13 0 23 -7l1 117q0 59 56 59q57 0 57 -59v-167q9 3 21 3q9 0 21.5 -4t20.5 -8l8 -3l44 -167l-13 -66
q-6 -18 -26.5 -51t-56.5 -88.5t-59 -93.5l-28 22q5 8 43 67q72 113 87 149l12 59q-6 27 -20 76.5t-19 70.5q-9 1 -14 1q-10 0 -10 -20l24 -116l-21 -40l-81 -36l-34 -33l-34 17l33 52l62 27v349q0 23 -17 23q-16 0 -16 -23l-2 -328q-30 -29 -61 -29q-21 0 -37 11
q-23 -11 -39 -11q-22 0 -45 18q-16 -4 -25 -4q-13 0 -24 4q-2 -1 -2 -51q0 -74 18 -156zM262 338v152q-3 7 -10 7q-8 0 -9 -7l-4 -156q17 0 23 4zM188 336v144q-4 7 -10 7q-5 0 -9 -8l-4 -145h8q13 0 15 2zM113 352v119q-7 6 -10 6q-10 0 -10 -39q0 -23 1 -34q0 -7 0.5 -19
t0.5 -17v-15q6 -3 11 -3q3 0 7 2z" />
    <glyph glyph-name="uni261E" unicode="&#x261e;" horiz-adv-x="786" 
d="M65 153l75 -56q83 -18 156 -18l51 2q-4 11 -4 24l4 25q-18 23 -18 45q0 7 2.5 17t5.5 16l3 6q-11 16 -11 37q0 31 29 61l328 2q23 0 23 16q0 17 -23 17h-349l-27 -62l-52 -33l-17 34l33 34l36 81l40 21l116 -24q20 0 20 10l-1 14q-21 5 -70.5 19t-76.5 20l-59 -12
q-36 -15 -149 -87q-59 -38 -67 -43l-22 28q38 23 93.5 59t88.5 56.5t51 26.5l66 13l167 -44q15 -30 15 -50q0 -12 -3 -21h167q59 0 59 -57q0 -56 -59 -56l-117 -1q7 -10 7 -23q0 -24 -23 -43q12 -12 12 -31q0 -26 -24 -44q16 -16 16 -34q0 -29 -19.5 -39.5t-55.5 -10.5
q-48 0 -61 2q-76 -11 -125 -11q-86 0 -166 19l-89 61zM534 260h-152q-4 -6 -4 -23l156 4q7 1 7 9q0 3 -1.5 5.5t-3.5 3.5zM524 186h-144q-2 -2 -2 -15v-8l145 4q8 4 8 9q0 3 -1.5 5.5t-3.5 3.5zM515 111h-119q-2 -4 -2 -7q0 -5 3 -11h15q5 0 17 -0.5t19 -0.5q11 -1 34 -1
q39 0 39 10z" />
    <glyph glyph-name="uni261F" unicode="&#x261f;" horiz-adv-x="545" 
d="M155 677l-56 -75q-18 -82 -18 -156l2 -51q11 4 24 4l25 -4q23 18 45 18q7 0 17 -2.5t16 -5.5l6 -3q16 11 37 11q31 0 61 -29l2 -328q0 -23 16 -23q17 0 17 23v349l-62 27l-33 52l34 17l34 -33l81 -36l21 -40l-24 -116q0 -20 10 -20l14 1q5 21 19 70.5t20 76.5l-12 59
q-15 36 -87 149q-38 59 -43 67l28 22q23 -38 59 -93.5t56.5 -88.5t26.5 -51l13 -66l-44 -167q-30 -15 -50 -15q-12 0 -21 3v-167q0 -59 -57 -59q-56 0 -56 59l-1 117q-10 -7 -23 -7q-24 0 -43 23q-12 -12 -31 -12q-26 0 -44 24q-16 -16 -34 -16q-29 0 -39.5 19.5t-10.5 55.5
q0 48 2 61q-11 76 -11 125q0 86 19 166l61 89zM262 208v152q-6 4 -23 4l4 -156q1 -7 9 -7q3 0 5.5 1.5t3.5 3.5zM188 218v144q-2 2 -15 2h-8l4 -145q4 -8 9 -8q3 0 5.5 1.5t3.5 3.5zM113 227v119q-4 2 -7 2q-5 0 -11 -3v-15q0 -5 -0.5 -17t-0.5 -19q-1 -11 -1 -34
q0 -39 10 -39z" />
    <glyph glyph-name="uni267E" unicode="&#x267e;" horiz-adv-x="739" 
d="M368 -10q-129 0 -216 86t-87 225q0 140 87.5 226.5t216.5 86.5t217.5 -86t88.5 -225t-88.5 -226t-218.5 -87zM368 11q122 0 203 81t81 211t-81.5 210t-201.5 80t-201 -80.5t-81 -211.5t80.5 -210.5t200.5 -79.5zM509 451q48 0 79.5 -42.5t31.5 -107.5q0 -64 -31 -106
t-79 -42q-44 0 -75 35t-63 100q-37 -69 -66 -102t-72 -33q-47 0 -78 41.5t-31 106.5q0 66 31.5 108t80.5 42q23 0 43 -10t37 -32t28 -40t28 -50q32 64 62.5 98t73.5 34zM235 174q18 0 34 8t26 16.5t24.5 30.5t20 32.5t21.5 41.5q-17 33 -26 49t-25.5 38.5t-34.5 32t-39 9.5
q-41 0 -66 -36.5t-25 -94.5q0 -56 24.5 -91.5t65.5 -35.5zM508 432q-38 0 -64 -31t-61 -98q21 -42 35.5 -65.5t38.5 -43.5t52 -20q41 0 65.5 35.5t24.5 91.5q0 58 -25 94.5t-66 36.5z" />
    <glyph glyph-name="uni2713" unicode="&#x2713;" horiz-adv-x="675" 
d="M310 162l195 428h59l-236 -462h-39l-145 195l43 26z" />
    <glyph glyph-name="uni2776" unicode="&#x2776;" horiz-adv-x="828" 
d="M416 -10q-151 0 -255 102.5t-104 267.5t104 268t255 103q157 0 262 -102t105 -269q0 -164 -105.5 -267t-261.5 -103zM425 541v-391h23v416h-17l-128 -17v-22z" />
    <glyph glyph-name="uni2777" unicode="&#x2777;" horiz-adv-x="828" 
d="M416 -10q-151 0 -255 102.5t-104 267.5t104 268t255 103q157 0 262 -102t105 -269q0 -164 -105.5 -267t-261.5 -103zM503 465q0 -106 -202 -298v-17h240v23h-206q45 42 83 84.5t73.5 104t35.5 109.5q0 46 -31.5 74.5t-94.5 28.5q-48 0 -88 -14v-22q47 13 86 13
q56 0 80 -24.5t24 -61.5z" />
    <glyph glyph-name="uni2778" unicode="&#x2778;" horiz-adv-x="828" 
d="M416 -10q-151 0 -255 102.5t-104 267.5t104 268t255 103q157 0 262 -102t105 -269q0 -164 -105.5 -267t-261.5 -103zM442 365v2q38 12 61 41.5t23 70.5q0 44 -29.5 69.5t-87.5 25.5q-45 0 -90 -14v-22q42 14 88 14q43 0 69.5 -18.5t26.5 -57.5q0 -47 -36 -75t-86 -28h-15
v-21h16q132 0 132 -91q0 -45 -31.5 -70t-88.5 -25q-34 0 -81 11v-22q44 -11 84 -11q64 0 102 30t38 87q0 90 -95 104z" />
    <glyph glyph-name="uni2779" unicode="&#x2779;" horiz-adv-x="828" 
d="M416 -10q-151 0 -255 102.5t-104 267.5t104 268t255 103q157 0 262 -102t105 -269q0 -164 -105.5 -267t-261.5 -103zM476 268h59v23h-59v275h-23l-212 -278v-20h212v-118h23v118zM267 291l184 239h2v-239h-186z" />
    <glyph glyph-name="uni277A" unicode="&#x277a;" horiz-adv-x="828" 
d="M416 -10q-151 0 -255 102.5t-104 267.5t104 268t255 103q157 0 262 -102t105 -269q0 -164 -105.5 -267t-261.5 -103zM303 177v-22q44 -11 82 -11q80 0 118 36t38 97q0 120 -152 120h-51v148h183v21h-206v-190h71q132 0 132 -100q0 -110 -135 -110q-29 0 -80 11z" />
    <glyph glyph-name="uni277B" unicode="&#x277b;" horiz-adv-x="828" 
d="M416 -10q-151 0 -255 102.5t-104 267.5t104 268t255 103q157 0 262 -102t105 -269q0 -164 -105.5 -267t-261.5 -103zM408 397q-62 0 -114 -26q7 85 47 133t110 48q34 0 65 -6v23q-39 5 -60 5q-95 0 -140.5 -66.5t-45.5 -177.5q0 -186 133 -186q63 0 94 37.5t31 96.5
q0 60 -32 89.5t-88 29.5zM405 166q-36 0 -59.5 14.5t-34.5 43t-15 57.5t-4 69q59 25 112 25q101 0 101 -98q0 -48 -24 -79.5t-76 -31.5z" />
    <glyph glyph-name="uni277C" unicode="&#x277c;" horiz-adv-x="828" 
d="M416 -10q-151 0 -255 102.5t-104 267.5t104 268t255 103q157 0 262 -102t105 -269q0 -164 -105.5 -267t-261.5 -103zM359 150h22l149 402v14h-240v-21h214z" />
    <glyph glyph-name="uni277D" unicode="&#x277d;" horiz-adv-x="828" 
d="M416 -10q-151 0 -255 102.5t-104 267.5t104 268t255 103q157 0 262 -102t105 -269q0 -164 -105.5 -267t-261.5 -103zM284 250q0 -50 37 -78t94 -28q58 0 97.5 30t39.5 83q0 34 -19.5 59.5t-40 36t-52.5 22.5q95 34 95 102q0 42 -34 69.5t-86 27.5q-54 0 -86.5 -29.5
t-32.5 -72.5q0 -66 89 -100q-20 -9 -33 -17t-31 -22.5t-27.5 -35.5t-9.5 -47zM529 258q0 -43 -31 -67.5t-82 -24.5q-53 0 -80.5 25t-27.5 63q0 29 17 51.5t34 33t42 22.5q5 2 7 3q41 -13 62 -22.5t40 -31t19 -52.5zM319 472q0 31 23 55.5t72 24.5q47 0 72.5 -23.5
t25.5 -54.5q0 -54 -94 -92q-99 32 -99 90z" />
    <glyph glyph-name="uni277E" unicode="&#x277e;" horiz-adv-x="828" 
d="M416 -10q-151 0 -255 102.5t-104 267.5t104 268t255 103q157 0 262 -102t105 -269q0 -164 -105.5 -267t-261.5 -103zM419 321q63 0 113 25q-7 -86 -46.5 -133.5t-109.5 -47.5q-34 0 -65 6v-22q39 -5 60 -5q95 0 140.5 66.5t45.5 177.5q0 185 -133 185q-62 0 -94 -37.5
t-32 -96.5q0 -60 32 -89t89 -29zM534 367q-55 -24 -111 -24q-102 0 -102 97q0 48 24.5 80t76.5 32q66 0 91.5 -53t20.5 -132z" />
    <glyph glyph-name="uni277F" unicode="&#x277f;" horiz-adv-x="828" 
d="M416 -10q-151 0 -255 102.5t-104 267.5t104 268t255 103q157 0 262 -102t105 -269q0 -164 -105.5 -267t-261.5 -103zM281 541v-391h23v416h-17l-128 -17v-22zM537 166q-57 0 -91.5 48.5t-34.5 138.5q0 95 33 147t96 52q58 0 91 -45.5t33 -134.5q0 -99 -33.5 -152.5
t-93.5 -53.5zM535 144q74 0 113 59.5t39 168.5q0 99 -37.5 150.5t-107.5 51.5q-77 0 -115.5 -57.5t-38.5 -162.5q0 -96 37 -153t110 -57z" />
    <glyph glyph-name="uni301A" unicode="&#x301a;" horiz-adv-x="459" 
d="M86 -117h120l93 886h-120zM56 -140l98 933h318l-3 -24h-142l-93 -886h142l-2 -23h-318z" />
    <glyph glyph-name="uni301B" unicode="&#x301b;" horiz-adv-x="458" 
d="M377 769h-120l-93 -886h120zM407 792l-98 -933h-318l3 24h142l93 886h-142l2 23h318z" />
    <glyph glyph-name="bracketleft.cap" unicode="&#xf4f0;" horiz-adv-x="333" 
d="M75 -34l83 788h183l-3 -24h-155l-78 -740h155l-2 -24h-183z" />
    <glyph glyph-name="bracketright.cap" unicode="&#xf4f1;" horiz-adv-x="333" 
d="M270 754l-83 -788h-183l3 24h155l78 740h-155l2 24h183z" />
    <glyph glyph-name="braceleft.cap" unicode="&#xf4f2;" horiz-adv-x="372" 
d="M102 362q62 -18 52 -105l-14 -133q-8 -74 24 -104t110 -30h26l-3 -24h-27q-78 0 -119 28t-41 99q0 8 2 30l14 138q4 40 -14.5 64.5t-48.5 24.5h-19l3 24h19q30 0 54 25.5t28 66.5l15 136q10 91 58.5 122.5t131.5 31.5h27l-2 -25h-27q-79 0 -116 -28t-44 -101l-14 -131
q-12 -89 -75 -106v-3z" />
    <glyph glyph-name="braceright.cap" unicode="&#xf4f3;" horiz-adv-x="373" 
d="M283 359q-62 18 -52 105l14 133q8 74 -24 104t-110 30h-26l3 24h27q78 0 119 -28t41 -99q0 -8 -2 -30l-14 -138q-4 -40 14.5 -64.5t48.5 -24.5h19l-3 -24h-19q-30 0 -54 -25.5t-28 -66.5l-15 -136q-10 -91 -58.5 -122.5t-131.5 -31.5h-27l2 25h27q79 0 116 28t44 101
l14 131q12 89 75 106v3z" />
    <glyph glyph-name="endash.cap" unicode="&#xf4f4;" horiz-adv-x="589" 
d="M83 370l2 23h435l-2 -23h-435z" />
    <glyph glyph-name="emdash.cap" unicode="&#xf4f5;" horiz-adv-x="1135" 
d="M83 370l2 23h980l-2 -23h-980z" />
    <glyph glyph-name="hyphen.cap" unicode="&#xf4f6;" horiz-adv-x="380" 
d="M87 364l2 27h216l-2 -27h-216z" />
    <glyph glyph-name="exclamdown.cap" unicode="&#xf4f7;" horiz-adv-x="249" 
d="M182 718l-13 -121h-27l12 121h28zM79 0l53 496h25l-50 -496h-28z" />
    <glyph glyph-name="questiondown.cap" unicode="&#xf4f8;" horiz-adv-x="419" 
d="M307 719l-13 -121h-28l13 121h28zM49 112q0 -51 34 -74.5t106 -23.5q88 0 165 24l-2 -25q-78 -25 -167 -25q-164 0 -164 123q0 46 22 82.5t54 60.5t64.5 46.5t57.5 51t29 62.5l8 79h27l-8 -81q-4 -36 -29 -67t-57.5 -54t-64 -47t-53.5 -57.5t-22 -74.5z" />
    <glyph glyph-name="commaaccent" unicode="&#xf6c3;" horiz-adv-x="219" 
d="M47 -249l25 183h25l-27 -183h-23z" />
    <glyph glyph-name="apple" unicode="&#xf8ff;" horiz-adv-x="477" 
d="M240 329h68v4h-68v64h136v-132h-136v64zM100 265v132h136v-132h-66v68h-4v-68h-66z" />
    <glyph glyph-name="CR" horiz-adv-x="225" 
 />
    <glyph glyph-name="zero.zero" horiz-adv-x="608" 
d="M269 -10q-103 0 -153.5 68t-50.5 194q0 73 16.5 137t48.5 115t84.5 80.5t119.5 29.5q107 0 157.5 -72t50.5 -196q0 -155 -72.5 -255.5t-200.5 -100.5zM330 589q-78 0 -133 -47.5t-79.5 -121.5t-24.5 -168q0 -145 66 -200l282 502q-45 35 -111 35zM514 345q0 128 -55 192
l-281 -500q39 -22 94 -22q62 0 110 28t76 75.5t42 105t14 121.5z" />
    <glyph glyph-name="Iacute_Jacute" horiz-adv-x="618" 
d="M176 718l-75 -718h-27l75 718h27zM480 194l55 524h27l-54 -525q-12 -106 -59.5 -155t-138.5 -49q-51 0 -86 7l3 27q29 -7 85 -7q83 0 121 45.5t47 132.5zM157 794l-5 23l206 58l6 -24zM533 794l-5 23l206 58l6 -24z" />
    <glyph glyph-name="iacute_jacute" horiz-adv-x="402" 
d="M137 519l-55 -519h-27l55 519h27zM337 519l-54 -523q-12 -115 -38.5 -160.5t-97.5 -45.5q-24 0 -62 7l3 26q33 -6 59 -6t44 8.5t29 20.5t18 38.5t10.5 48t7.5 63.5l55 523h26zM123 640l-11 20l178 118l13 -21zM319 640l-11 20l178 118l13 -21z" />
    <glyph glyph-name="i.TRK" horiz-adv-x="201" 
d="M123 654l12 116h27l-12 -116h-27zM137 519l-55 -519h-27l55 519h27z" />
    <glyph glyph-name="question.smcp" horiz-adv-x="387" 
d="M112 0l11 104h28l-11 -104h-28zM333 508q0 81 -120 81q-80 0 -143 -20l2 24q65 21 145 21q144 0 144 -104q0 -38 -19 -68.5t-47 -51t-56.5 -39t-49.5 -42.5t-24 -53l-7 -65h-25l6 66q3 31 24 57t49 45.5t55.5 39.5t46.5 47.5t19 61.5z" />
    <glyph glyph-name="questiondown.smcp" horiz-adv-x="387" 
d="M274 603l-11 -104h-28l11 104h28zM53 95q0 -81 120 -81q80 0 143 20l-2 -24q-65 -21 -145 -21q-144 0 -144 104q0 38 19 68.5t47 51t56.5 39t49.5 42.5t24 53l7 65h25l-6 -66q-3 -31 -24 -57t-49 -45.5t-55.5 -39.5t-46.5 -47.5t-19 -61.5z" />
    <glyph glyph-name="exclam.smcp" horiz-adv-x="239" 
d="M74 0l11 104h28l-11 -104h-28zM164 603l-44 -415h-25l42 415h27z" />
    <glyph glyph-name="exclamdown.smcp" horiz-adv-x="239" 
d="M164 603l-11 -104h-28l11 104h28zM74 0l44 415h25l-42 -415h-27z" />
    <glyph glyph-name="uni203D.smcp" horiz-adv-x="425" 
d="M91 591l92 -342q9 24 33 50t50 48.5t51 46.5t41.5 54t16.5 62q0 80 -118 80q-59 0 -108 -16l2 24q53 16 109 16q69 0 106 -26.5t37 -75.5q0 -39 -19.5 -74t-48 -60.5t-57.5 -49.5t-51 -52t-25 -57l-3 -28h-18l-6 -3l-107 395zM153 0l11 104h28l-11 -104h-28z" />
    <glyph glyph-name="slash.smcp" horiz-adv-x="355" 
d="M39 0h-27l305 603h26z" />
    <glyph glyph-name="backslash.smcp" horiz-adv-x="346" 
d="M274 0h-27l-177 603h26z" />
    <glyph glyph-name="parenleft.cap" horiz-adv-x="263" 
d="M184 -40h-26q-46 72 -69 166t-23 183q0 118 48.5 233t140.5 214h27q-103 -118 -146 -226t-43 -223q0 -184 91 -347z" />
    <glyph glyph-name="parenright.cap" horiz-adv-x="263" 
d="M90 756h26q46 -72 69 -166t23 -183q0 -118 -48.5 -233t-140.5 -214h-27q103 118 146 226t43 223q0 184 -91 347z" />
    <glyph glyph-name="uni301A.cap" horiz-adv-x="476" 
d="M105 -10h120l78 740h-120zM75 -34l83 788h325l-3 -24h-149l-78 -740h149l-2 -24h-325z" />
    <glyph glyph-name="uni301B.cap" horiz-adv-x="476" 
d="M383 730h-120l-78 -740h120zM413 754l-83 -788h-325l3 24h149l78 740h-149l2 24h325z" />
    <glyph glyph-name="dblparenleft" horiz-adv-x="416" 
d="M189 -142h-27q-106 177 -106 383q0 290 214 522h26q-212 -236 -212 -520q0 -199 105 -385zM340 -142h-27q-106 177 -106 383q0 290 214 522h26q-212 -236 -212 -520q0 -199 105 -385z" />
    <glyph glyph-name="dblparenleft.cap" horiz-adv-x="404" 
d="M184 -40h-26q-46 72 -69 166t-23 183q0 118 48.5 233t140.5 214h27q-103 -118 -146 -226t-43 -223q0 -184 91 -347zM326 -40h-26q-46 72 -69 166t-23 183q0 118 48.5 233t140.5 214h27q-103 -118 -146 -226t-43 -223q0 -184 91 -347z" />
    <glyph glyph-name="dblparenright" horiz-adv-x="417" 
d="M78 763h27q106 -177 106 -383q0 -290 -214 -522h-26q212 236 212 520q0 199 -105 385zM229 763h27q106 -177 106 -383q0 -290 -214 -522h-26q212 236 212 520q0 199 -105 385z" />
    <glyph glyph-name="dblparenright.cap" horiz-adv-x="401" 
d="M90 756h26q46 -72 69 -166t23 -183q0 -118 -48.5 -233t-140.5 -214h-27q103 118 146 226t43 223q0 184 -91 347zM228 756h26q46 -72 69 -166t23 -183q0 -118 -48.5 -233t-140.5 -214h-27q103 118 146 226t43 223q0 184 -91 347z" />
    <glyph glyph-name="paragraph.smcp" horiz-adv-x="533" 
d="M275 603h57l-63 -605h-27l24 231h-18q-97 0 -146 47t-49 124q0 88 60.5 145.5t161.5 57.5zM369 -2l63 605h26l-63 -605h-26z" />
    <glyph glyph-name="numbersign.pnum_lnum" horiz-adv-x="672" 
d="M346 0l58 236h-201l-59 -236h-25l59 236h-141l7 24h140l52 208h-145l7 24h144l56 226h25l-57 -226h202l56 226h25l-56 -226h155l-8 -24h-153l-52 -208h158l-8 -24h-156l-58 -236h-25zM260 468l-51 -208h201l52 208h-202z" />
    <glyph glyph-name="percent.pnum_lnum" horiz-adv-x="812" 
d="M164 0h-28l530 718h26zM214 363q-79 0 -113.5 38.5t-34.5 115.5q0 100 51.5 157t142.5 57q75 0 109 -40.5t34 -121.5q0 -92 -44.5 -149t-144.5 -57zM214 385q164 0 164 181q0 71 -28.5 106.5t-93.5 35.5q-78 0 -122.5 -50.5t-44.5 -138.5q0 -67 29.5 -100.5t95.5 -33.5z
M568 -10q-80 0 -114.5 38.5t-34.5 114.5q0 102 52 158.5t143 56.5q74 0 108.5 -40.5t34.5 -121.5q0 -92 -44.5 -149t-144.5 -57zM570 12q162 0 162 182q0 70 -29 106t-93 36q-79 0 -123 -50.5t-44 -139.5q0 -67 29.5 -100.5t97.5 -33.5z" />
    <glyph glyph-name="perthousand.pnum_lnum" horiz-adv-x="1193" 
d="M164 0h-28l530 718h26zM214 363q-79 0 -113.5 38.5t-34.5 115.5q0 100 51.5 157t142.5 57q75 0 109 -40.5t34 -121.5q0 -92 -44.5 -149t-144.5 -57zM214 385q164 0 164 181q0 71 -28.5 106.5t-93.5 35.5q-78 0 -122.5 -50.5t-44.5 -138.5q0 -67 29.5 -100.5t95.5 -33.5z
M568 -10q-80 0 -114.5 38.5t-34.5 114.5q0 102 52 158.5t143 56.5q74 0 108.5 -40.5t34.5 -121.5q0 -92 -44.5 -149t-144.5 -57zM570 12q162 0 162 182q0 70 -29 106t-93 36q-79 0 -123 -50.5t-44 -139.5q0 -67 29.5 -100.5t97.5 -33.5zM952 -10q-80 0 -114.5 38.5
t-34.5 114.5q0 102 52 158.5t143 56.5q74 0 108.5 -40.5t34.5 -121.5q0 -92 -44.5 -149t-144.5 -57zM953 12q88 0 125.5 51t37.5 131q0 71 -28.5 106.5t-93.5 35.5q-79 0 -122.5 -50.5t-43.5 -139.5q0 -67 28.5 -100.5t96.5 -33.5z" />
    <glyph glyph-name="ordfeminine.smcp" horiz-adv-x="475" 
d="M383 362l-29 108h-193l-50 -108h-21l187 398h19l109 -398h-22zM283 730l-113 -241h179l-64 241h-2zM58 277l2 22h357l-2 -22h-357z" />
    <glyph glyph-name="quotedblleft.smcp" horiz-adv-x="382" 
d="M85 375q13 122 76 228h25q-62 -113 -74 -228h-27zM255 375q13 122 76 228h25q-62 -113 -74 -228h-27z" />
    <glyph glyph-name="quotedblright.smcp" horiz-adv-x="386" 
d="M178 603q-13 -122 -76 -228h-25q62 113 74 228h27zM349 603q-13 -122 -76 -228h-25q62 113 74 228h27z" />
    <glyph glyph-name="quoteleft.smcp" horiz-adv-x="212" 
d="M85 375q13 122 76 228h25q-62 -113 -74 -228h-27z" />
    <glyph glyph-name="quoteright.smcp" horiz-adv-x="215" 
d="M178 602q-13 -122 -76 -228h-25q62 113 74 228h27z" />
    <glyph glyph-name="guilsinglright.cap" horiz-adv-x="264" 
d="M108 611h24l74 -240l-125 -246h-24l121 246z" />
    <glyph glyph-name="guilsinglleft.cap" horiz-adv-x="264" 
d="M169 125h-24l-73 246l124 240h24l-120 -240z" />
    <glyph glyph-name="guillemotleft.cap" horiz-adv-x="453" 
d="M169 125h-24l-73 246l124 240h24l-120 -240zM358 125h-24l-73 246l124 240h24l-121 -240z" />
    <glyph glyph-name="guillemotright.cap" horiz-adv-x="453" 
d="M270 125h-24l121 246l-70 240h24l74 -240zM81 125h-24l121 246l-70 240h24l74 -240z" />
    <glyph glyph-name="periodcentered.smcp" horiz-adv-x="198" 
d="M81 272l13 122h28l-13 -122h-28z" />
    <glyph glyph-name="f_i" horiz-adv-x="527" 
d="M154 495l-58 -558q-9 -82 -43 -114.5t-93 -32.5q-42 0 -83 16l3 26q39 -17 82 -17q51 0 75.5 28.5t31.5 92.5l59 559h-77l2 24h77l11 102q15 147 149 147q51 0 90 -16l-3 -26q-39 17 -90 17q-57 0 -85 -29t-34 -92l-11 -103h163l-2 -24h-164zM462 519l-55 -519h-27
l55 519h27zM448 654l12 116h27l-12 -116h-27z" />
    <glyph glyph-name="f_l" horiz-adv-x="530" 
d="M154 495l-58 -558q-9 -82 -43 -114.5t-93 -32.5q-42 0 -83 16l3 26q39 -17 82 -17q51 0 75.5 28.5t31.5 92.5l59 559h-77l2 24h77l11 102q15 147 149 147q51 0 90 -16l-3 -26q-39 17 -90 17q-57 0 -85 -29t-34 -92l-11 -103h163l-2 -24h-164zM487 757l-79 -757h-27
l79 757h27z" />
    <glyph glyph-name="acute.cap" horiz-adv-x="296" 
d="M44 794l-5 23l206 58l6 -24z" />
    <glyph glyph-name="breve.cap" horiz-adv-x="315" 
d="M239 799q92 0 103 100h23q-6 -59 -39 -90.5t-90 -31.5q-55 0 -81.5 31t-20.5 91h23q-5 -42 13 -71t69 -29z" />
    <glyph glyph-name="caron.cap" horiz-adv-x="362" 
d="M265 806l132 103l12 -16l-136 -111h-20l-113 109l16 17z" />
    <glyph glyph-name="circumflex.cap" horiz-adv-x="362" 
d="M277 904l-133 -104l-12 18l137 108h20l113 -110l-17 -17z" />
    <glyph glyph-name="dieresis.cap" horiz-adv-x="361" 
d="M162 812l10 95h25l-10 -95h-25zM335 812l10 95h25l-10 -95h-25z" />
    <glyph glyph-name="dotaccent.cap" horiz-adv-x="198" 
d="M171 812l10 94h26l-10 -94h-26z" />
    <glyph glyph-name="hungarumlaut.cap" horiz-adv-x="450" 
d="M207 794l-5 22l206 60l6 -25zM70 793l-15 17l165 136l16 -19z" />
    <glyph glyph-name="grave.cap" horiz-adv-x="296" 
d="M251 816l-6 -22l-207 57l6 23z" />
    <glyph glyph-name="macron.cap" horiz-adv-x="357" 
d="M127 828l2 24h269l-2 -24h-269z" />
    <glyph glyph-name="tilde.cap" horiz-adv-x="400" 
d="M137 828q29 36 76 36q25 0 63.5 -19.5t57.5 -19.5q41 0 73 40l-2 -29q-33 -36 -72 -36q-20 0 -57.5 20t-64.5 20q-41 0 -76 -39z" />
    <glyph glyph-name="ring.cap" horiz-adv-x="278" 
d="M220 768q-47 0 -72.5 24.5t-25.5 69.5q0 52 33 87.5t89 35.5q48 0 73 -27t25 -71q0 -52 -32.5 -85.5t-89.5 -33.5zM223 789q44 0 70.5 27.5t26.5 68.5q0 35 -20.5 57t-58.5 22q-45 0 -70.5 -28.5t-25.5 -70.5q0 -36 20 -56t58 -20z" />
    <glyph glyph-name="caron.alt" horiz-adv-x="162" 
d="M140 718l-31 -208h-24l30 208h25z" />
    <glyph glyph-name="downbreve" horiz-adv-x="313" 
d="M233 739q-51 0 -76 -35t-30 -78h-22q6 61 40 98t89 37q56 0 82 -37.5t20 -97.5h-24q5 45 -12 79t-67 34z" />
    <glyph glyph-name="downbreve.cap" horiz-adv-x="315" 
d="M247 876q-91 0 -102 -99h-23q6 59 39 90.5t88 31.5q56 0 83 -31t21 -91h-24q5 41 -13 70t-69 29z" />
    <glyph glyph-name="horumlaut" horiz-adv-x="466" 
d="M421 659l-16 -19l-154 149l18 19zM270 662l-12 -21l-179 117l13 22z" />
    <glyph glyph-name="horumlaut.cap" horiz-adv-x="450" 
d="M413 812l-16 -19l-165 134l16 19zM266 818l-5 -24l-207 57l6 25z" />
    <glyph glyph-name="zero.smcp_zero" horiz-adv-x="589" 
d="M271 -8q-96 0 -151 71.5t-55 206.5q0 149 65.5 246.5t189.5 97.5q96 0 150.5 -65.5t54.5 -197.5q0 -98 -25.5 -177t-84.5 -130.5t-144 -51.5zM272 15q109 0 167.5 93t58.5 240q0 148 -71 206l-251 -510q41 -29 96 -29zM92 271q0 -149 68 -214l249 510q-39 23 -91 23
q-110 0 -168 -89t-58 -230z" />
    <glyph glyph-name="zero.smcp" horiz-adv-x="589" 
d="M272 15q109 0 167.5 93t58.5 240q0 129 -49.5 185.5t-130.5 56.5q-110 0 -168 -89t-58 -230q0 -132 50.5 -194t129.5 -62zM271 -8q-96 0 -151 71.5t-55 206.5q0 149 65.5 246.5t189.5 97.5q96 0 150.5 -65.5t54.5 -197.5q0 -98 -25.5 -177t-84.5 -130.5t-144 -51.5z" />
    <glyph glyph-name="one.smcp" horiz-adv-x="339" 
d="M174 0l61 575l-188 -20l2 25l197 23h19l-64 -603h-27z" />
    <glyph glyph-name="two.smcp" horiz-adv-x="445" 
d="M365 475q0 49 -34.5 81.5t-113.5 32.5q-63 0 -132 -20l2 25q72 20 134 20q86 0 129 -38t43 -98q0 -169 -340 -453h312l-2 -25h-355l2 18q355 297 355 457z" />
    <glyph glyph-name="three.smcp" horiz-adv-x="450" 
d="M237 314v-2q134 -21 134 -139q0 -87 -62.5 -134t-166.5 -47q-52 0 -120 15l3 24q71 -15 118 -15q96 0 148.5 43t52.5 113q0 62 -45 93t-141 31h-24l2 25h22q79 0 140 45.5t61 117.5q0 105 -133 105q-64 0 -133 -19l3 24q66 20 133 20q157 0 157 -125q0 -64 -41 -110
t-108 -65z" />
    <glyph glyph-name="four.smcp" horiz-adv-x="509" 
d="M456 178h-90l-18 -178h-26l18 178h-322l2 20l364 405h27l-42 -401h89zM377 559l-324 -357h290l37 357h-3z" />
    <glyph glyph-name="five.smcp" horiz-adv-x="473" 
d="M35 31q60 -16 120 -16q110 0 167 48t57 133q0 73 -46 105.5t-141 32.5h-106l28 269h303l-2 -24h-279l-22 -221h83q208 0 208 -158q0 -92 -62.5 -150t-187.5 -58q-63 0 -123 15z" />
    <glyph glyph-name="six.smcp" horiz-adv-x="512" 
d="M274 353q168 0 168 -152q0 -86 -51.5 -147.5t-149.5 -61.5q-181 0 -181 233q0 75 19 142.5t55.5 124t98 89.5t140.5 33q34 0 92 -8l-3 -25q-55 9 -95 9q-113 0 -183 -76t-90 -200q81 39 180 39zM87 225q0 -209 156 -209q60 0 100.5 29t56 68.5t15.5 85.5q0 131 -146 131
q-90 0 -179 -40q-3 -31 -3 -65z" />
    <glyph glyph-name="seven.smcp" horiz-adv-x="408" 
d="M122 0h-26l282 579h-329l3 24h358l-2 -18z" />
    <glyph glyph-name="eight.smcp" horiz-adv-x="525" 
d="M48 138q0 33 13.5 62t30 46.5t44.5 35t44 24.5t41 17q-121 46 -121 138q0 65 54 109t135 44q73 0 120.5 -37t47.5 -95q0 -106 -167 -158q33 -11 54 -20.5t48.5 -27.5t41.5 -46t14 -64q0 -81 -65.5 -127.5t-154.5 -46.5q-79 0 -129.5 38.5t-50.5 107.5zM421 165
q0 22 -5.5 40t-20.5 32.5t-26 23.5t-37.5 20.5t-38.5 16t-45 15.5q-82 -34 -113 -57q-60 -46 -60 -111q0 -55 39 -92t117 -37q81 0 135.5 41.5t54.5 107.5zM127 463q0 -81 135 -130q167 56 167 146q0 45 -36 78t-107 33q-78 0 -118.5 -39.5t-40.5 -87.5z" />
    <glyph glyph-name="nine.smcp" horiz-adv-x="511" 
d="M238 253q-167 0 -167 152q0 86 51 147.5t149 61.5q181 0 181 -233q0 -75 -19 -142.5t-55.5 -124t-98 -89.5t-140.5 -33q-33 0 -92 8l3 25q56 -9 95 -9q113 0 183.5 76t90.5 200q-83 -39 -181 -39zM426 383q0 207 -157 207q-87 0 -129.5 -55t-42.5 -129q0 -130 146 -130
q90 0 179 39q4 44 4 68z" />
    <glyph glyph-name="zero.pnum_lnum_zero" horiz-adv-x="653" 
d="M292 -10q-111 0 -167 82t-56 233q0 186 81 306t226 120q221 0 221 -302q0 -193 -83.5 -316t-221.5 -123zM294 15q125 0 200.5 115t75.5 298q0 180 -83 244l-292 -631q40 -26 99 -26zM97 307q0 -181 78 -251l291 629q-40 21 -93 21q-132 0 -204 -111t-72 -288z" />
    <glyph glyph-name="zero.pnum_lnum" horiz-adv-x="653" 
d="M294 15q125 0 200.5 115t75.5 298q0 278 -197 278q-132 0 -204 -111t-72 -288q0 -149 52 -220.5t145 -71.5zM292 -10q-111 0 -167 82t-56 233q0 186 81 306t226 120q221 0 221 -302q0 -193 -83.5 -316t-221.5 -123z" />
    <glyph glyph-name="one.pnum_lnum" horiz-adv-x="376" 
d="M207 0l72 689l-213 -23l3 25l219 27h21l-76 -718h-26z" />
    <glyph glyph-name="two.pnum_lnum" horiz-adv-x="487" 
d="M417 566q0 59 -39.5 99t-132.5 40q-69 0 -150 -24l3 26q78 24 153 24q98 0 146.5 -45.5t48.5 -116.5q0 -202 -397 -543h363l-2 -26h-406l2 18q411 355 411 548z" />
    <glyph glyph-name="three.pnum_lnum" horiz-adv-x="497" 
d="M265 373v-3q156 -22 156 -165q0 -100 -71.5 -157.5t-188.5 -57.5q-60 0 -138 19l2 25q75 -19 136 -19q112 0 172.5 51.5t60.5 135.5q0 152 -214 152h-29l2 25h27q92 0 163 56t71 144q0 65 -41.5 96t-112.5 31q-74 0 -153 -24l2 25q80 24 154 24q91 0 135 -40t44 -109
q0 -79 -50.5 -133.5t-126.5 -75.5z" />
    <glyph glyph-name="four.pnum_lnum" horiz-adv-x="562" 
d="M521 214h-105l-22 -214h-27l22 214h-371l2 21l422 483h27l-50 -479h104zM433 671l-377 -432h336l45 432h-4z" />
    <glyph glyph-name="five.pnum_lnum" horiz-adv-x="522" 
d="M35 34q74 -19 137 -19q125 0 193 58.5t68 161.5q0 87 -53 126.5t-161 39.5h-123l33 317h347l-2 -25h-321l-28 -268h98q238 0 238 -188q0 -109 -72 -178t-215 -69q-67 0 -141 18z" />
    <glyph glyph-name="six.pnum_lnum" horiz-adv-x="565" 
d="M303 420q91 0 144 -43.5t53 -137.5q0 -101 -59.5 -175t-172.5 -74q-204 0 -204 272q0 92 22 174.5t64.5 149t113 106t159.5 39.5q41 0 106 -10l-3 -25q-58 11 -107 11q-131 0 -214 -93t-106 -242q94 48 204 48zM91 262q0 -52 7.5 -92t25.5 -77t55 -57.5t91 -20.5
q102 0 152.5 67t50.5 155q0 158 -176 158q-97 0 -202 -48q-4 -37 -4 -85z" />
    <glyph glyph-name="seven.pnum_lnum" horiz-adv-x="456" 
d="M137 0h-29l332 693h-381l2 25h411l-1 -20z" />
    <glyph glyph-name="eight.pnum_lnum" horiz-adv-x="580" 
d="M49 167q0 39 15 72t35 55t50.5 41.5t52 29.5t49.5 20q-142 59 -142 170q0 76 62 126t154 50q85 0 138 -44t53 -113q0 -125 -192 -188q37 -13 64.5 -27t57 -37t45.5 -56t16 -75q0 -65 -38 -112.5t-93 -68t-117 -20.5q-93 0 -151.5 48t-58.5 129zM480 190q0 32 -12 58.5
t-27.5 43t-47 33.5t-52.5 25.5t-63 23.5q-87 -36 -119 -59q-82 -58 -82 -145q0 -64 47.5 -109.5t136.5 -45.5q95 0 157 46.5t62 128.5zM137 553q0 -54 44.5 -94t115.5 -64q192 65 192 175q0 54 -42 94.5t-125 40.5q-92 0 -138.5 -47t-46.5 -105z" />
    <glyph glyph-name="nine.pnum_lnum" horiz-adv-x="567" 
d="M275 301q-91 0 -144 43.5t-53 137.5q0 101 59.5 175t172.5 74q204 0 204 -272q0 -92 -22 -174.5t-64.5 -149t-113 -106t-159.5 -39.5q-41 0 -106 10l3 25q58 -11 107 -11q131 0 213.5 92t106.5 242q-98 -47 -204 -47zM487 459q0 52 -7.5 92t-25.5 77t-55 57.5t-91 20.5
q-53 0 -94 -20t-64 -53t-34 -71t-11 -78q0 -158 176 -158q98 0 201 48q5 45 5 85z" />
    <glyph glyph-name="zero.tnum_lnum_zero" horiz-adv-x="600" 
d="M265 -10q-111 0 -167 82t-56 233q0 186 81 306t226 120q221 0 221 -302q0 -193 -83.5 -316t-221.5 -123zM267 15q125 0 200.5 115t75.5 298q0 180 -83 244l-292 -631q40 -26 99 -26zM70 307q0 -181 78 -251l291 629q-41 21 -93 21q-132 0 -204 -111t-72 -288z" />
    <glyph glyph-name="zero.tnum_lnum" horiz-adv-x="600" 
d="M267 15q125 0 200.5 115t75.5 298q0 278 -197 278q-132 0 -204 -111t-72 -288q0 -149 52 -220.5t145 -71.5zM265 -10q-111 0 -167 82t-56 233q0 186 81 306t226 120q221 0 221 -302q0 -193 -83.5 -316t-221.5 -123z" />
    <glyph glyph-name="one.tnum_lnum" horiz-adv-x="600" 
d="M283 25l71 664l-215 -23l2 25l222 27h21l-74 -693h189l-2 -25h-401l3 25h184z" />
    <glyph glyph-name="two.tnum_lnum" horiz-adv-x="600" 
d="M473 566q0 59 -39.5 99t-132.5 40q-69 0 -150 -24l3 26q78 24 153 24q98 0 146.5 -45.5t48.5 -116.5q0 -202 -397 -543h363l-2 -26h-406l2 18q411 355 411 548z" />
    <glyph glyph-name="three.tnum_lnum" horiz-adv-x="600" 
d="M317 373v-3q156 -22 156 -165q0 -100 -71.5 -157.5t-188.5 -57.5q-60 0 -138 19l2 25q75 -19 136 -19q112 0 172.5 51.5t60.5 135.5q0 152 -214 152h-29l2 25h27q92 0 163 56t71 144q0 65 -41.5 96t-112.5 31q-74 0 -153 -24l2 25q80 24 154 24q91 0 135 -40t44 -109
q0 -79 -50.5 -133.5t-126.5 -75.5z" />
    <glyph glyph-name="four.tnum_lnum" horiz-adv-x="600" 
d="M541 214h-105l-22 -214h-27l22 214h-371l2 21l422 483h27l-50 -479h104zM453 671l-377 -432h336l45 432h-4z" />
    <glyph glyph-name="five.tnum_lnum" horiz-adv-x="600" 
d="M73 34q74 -19 137 -19q125 0 193 58.5t68 161.5q0 87 -53 126.5t-161 39.5h-123l33 317h347l-2 -25h-321l-28 -268h98q238 0 238 -188q0 -109 -72 -178t-215 -69q-67 0 -141 18z" />
    <glyph glyph-name="six.tnum_lnum" horiz-adv-x="600" 
d="M321 420q91 0 144 -43.5t53 -137.5q0 -101 -59.5 -175t-172.5 -74q-204 0 -204 272q0 92 22 174.5t64.5 149t113 106t159.5 39.5q41 0 106 -10l-3 -25q-58 11 -107 11q-131 0 -214 -93t-106 -242q94 48 204 48zM109 262q0 -52 7.5 -92t25.5 -77t55 -57.5t91 -20.5
q102 0 152.5 67t50.5 155q0 158 -176 158q-97 0 -202 -48q-4 -37 -4 -85z" />
    <glyph glyph-name="seven.tnum_lnum" horiz-adv-x="600" 
d="M209 0h-29l332 693h-381l2 25h411l-1 -20z" />
    <glyph glyph-name="eight.tnum_lnum" horiz-adv-x="600" 
d="M59 167q0 39 15 72t35 55t50.5 41.5t52 29.5t49.5 20q-142 59 -142 170q0 76 62 126t154 50q85 0 138 -44t53 -113q0 -125 -192 -188q37 -13 64.5 -27t57 -37t45.5 -56t16 -75q0 -65 -38 -112.5t-93 -68t-117 -20.5q-93 0 -151.5 48t-58.5 129zM490 190q0 32 -12 58.5
t-27.5 43t-47 33.5t-52.5 25.5t-63 23.5q-87 -36 -119 -59q-82 -58 -82 -145q0 -64 47.5 -109.5t136.5 -45.5q95 0 157 46.5t62 128.5zM147 553q0 -54 44.5 -94t115.5 -64q192 65 192 175q0 54 -42 94.5t-125 40.5q-92 0 -138.5 -47t-46.5 -105z" />
    <glyph glyph-name="nine.tnum_lnum" horiz-adv-x="600" 
d="M292 301q-91 0 -144 43.5t-53 137.5q0 101 59.5 175t172.5 74q204 0 204 -272q0 -92 -22 -174.5t-64.5 -149t-113 -106t-159.5 -39.5q-41 0 -106 10l3 25q58 -11 107 -11q131 0 213.5 92t106.5 242q-98 -47 -204 -47zM504 459q0 52 -7.5 92t-25.5 77t-55 57.5t-91 20.5
q-53 0 -94 -20t-64 -53t-34 -71t-11 -78q0 -158 176 -158q98 0 201 48q5 45 5 85z" />
    <glyph glyph-name="zero.tnum_onum_zero" horiz-adv-x="600" 
d="M266 -10q-103 0 -153.5 68t-50.5 194q0 73 16.5 137t48.5 115t84.5 80.5t119.5 29.5q107 0 157.5 -72t50.5 -196q0 -155 -72.5 -255.5t-200.5 -100.5zM327 589q-78 0 -133 -47.5t-79.5 -121.5t-24.5 -168q0 -145 66 -200l282 502q-45 35 -111 35zM511 345q0 128 -55 192
l-281 -500q39 -22 94 -22q62 0 110 28t76 75.5t42 105t14 121.5z" />
    <glyph glyph-name="zero.tnum_onum" horiz-adv-x="600" 
d="M327 589q-78 0 -133 -47.5t-79.5 -121.5t-24.5 -168q0 -237 179 -237q62 0 110 28t76 75.5t42 105t14 121.5q0 113 -44.5 178.5t-139.5 65.5zM266 -10q-103 0 -153.5 68t-50.5 194q0 73 16.5 137t48.5 115t84.5 80.5t119.5 29.5q107 0 157.5 -72t50.5 -196
q0 -155 -72.5 -255.5t-200.5 -100.5z" />
    <glyph glyph-name="one.tnum_onum" horiz-adv-x="600" 
d="M282 26l58 550l-176 -17l2 25l184 19h20l-61 -577h184l-2 -26h-399l1 26h189z" />
    <glyph glyph-name="two.tnum_onum" horiz-adv-x="600" 
d="M78 0l3 22q67 51 118 95t113 107.5t97 129.5t35 125q0 53 -32 81.5t-106 28.5q-60 0 -138 -24l3 25q79 24 138 24q163 0 163 -132q0 -191 -352 -457h348l-3 -25h-387z" />
    <glyph glyph-name="three.tnum_onum" horiz-adv-x="600" 
d="M317 257v-3q134 -24 134 -160q0 -106 -67.5 -163.5t-184.5 -57.5q-45 0 -125 19l2 25q76 -19 125 -19q112 0 167.5 53t55.5 141q0 74 -44.5 109.5t-147.5 35.5h-29l2 26h26q89 0 151 53.5t62 144.5q0 128 -147 128q-59 0 -138 -24l2 25q80 24 139 24q171 0 171 -151
q0 -76 -41 -130t-113 -76z" />
    <glyph glyph-name="four.tnum_onum" horiz-adv-x="600" 
d="M516 95h-105l-22 -211h-28l22 211h-347l2 21l400 492h27l-52 -487h105zM428 559l-356 -438h313l47 438h-4z" />
    <glyph glyph-name="five.tnum_onum" horiz-adv-x="600" 
d="M70 -81q69 -19 136 -19q119 0 179 57.5t60 156.5q0 91 -50.5 131t-161.5 40h-103l34 318h324l-3 -25h-297l-28 -268h77q130 0 182.5 -51.5t52.5 -140.5q0 -49 -14 -91t-43.5 -77t-83 -55t-126.5 -20q-62 0 -138 18z" />
    <glyph glyph-name="six.tnum_onum" horiz-adv-x="600" 
d="M330 420q179 0 179 -177q0 -46 -11.5 -88.5t-36 -80.5t-69.5 -61t-105 -23q-47 0 -82.5 15t-56.5 39.5t-33.5 60.5t-17 72.5t-4.5 81.5q0 70 10 134.5t34.5 127t62.5 108.5t98.5 74t136.5 28q43 0 100 -10l-3 -26q-51 11 -107 11q-68 0 -122 -26.5t-89 -73.5
t-56.5 -105.5t-30.5 -129.5q96 49 203 49zM120 259q0 -42 3.5 -75t14.5 -66t29.5 -54.5t49.5 -35t73 -13.5q54 0 94 21.5t60 56.5t29 72t9 76q0 80 -38 117t-121 37q-96 0 -199 -48q-4 -39 -4 -88z" />
    <glyph glyph-name="seven.tnum_onum" horiz-adv-x="600" 
d="M213 -115h-27l313 693h-367l2 25h396l-2 -20z" />
    <glyph glyph-name="eight.tnum_onum" horiz-adv-x="600" 
d="M74 158q0 41 14.5 76t33 57.5t48.5 43t48.5 29.5t45.5 20q-129 51 -129 161q0 78 53.5 132t146.5 54q83 0 129 -42.5t46 -111.5q0 -133 -177 -192q38 -14 60 -24t51.5 -31.5t44 -54.5t14.5 -77q0 -97 -68.5 -152.5t-170.5 -55.5q-87 0 -138.5 42.5t-51.5 125.5zM475 198
q0 32 -9.5 56.5t-22.5 40.5t-41 31.5t-48.5 24t-62.5 23.5q-28 -12 -46 -20.5t-48.5 -28t-48.5 -40.5t-32 -54t-14 -71q0 -63 40 -104t126 -41q93 0 150 50.5t57 132.5zM162 545q0 -55 37 -89.5t108 -60.5q176 62 176 180q0 55 -35.5 92.5t-114.5 37.5q-48 0 -83.5 -16
t-53.5 -41.5t-26 -51t-8 -51.5z" />
    <glyph glyph-name="nine.tnum_onum" horiz-adv-x="600" 
d="M270 184q-179 0 -179 177q0 46 11.5 88.5t36 80.5t69.5 61t105 23q58 0 98 -21.5t60 -62t28 -84.5t8 -101q0 -70 -10 -134.5t-34.5 -127t-62.5 -108.5t-98.5 -74t-136.5 -28q-43 0 -100 10l3 26q51 -11 107 -11q132 0 205 92.5t93 241.5q-96 -48 -203 -48zM480 345
q0 42 -3.5 75t-14.5 66t-29.5 54.5t-49.5 35t-73 13.5q-54 0 -94 -21.5t-60 -56.5t-29 -72t-9 -76q0 -80 38 -117t120 -37q98 0 199 48q5 48 5 88z" />
    <glyph glyph-name="zero.numr" horiz-adv-x="400" 
d="M205 320q66 0 105 64t39 168q0 154 -111 154q-69 0 -106 -61t-37 -164q0 -81 30 -121t80 -40zM202 298q-63 0 -97 48t-34 134q0 109 43.5 178.5t126.5 69.5q62 0 97 -44t35 -130q0 -110 -45 -183t-126 -73z" />
    <glyph glyph-name="one.numr" horiz-adv-x="243" 
d="M144 298l41 391l-121 -14l2 22l128 17h18l-44 -416h-24z" />
    <glyph glyph-name="two.numr" horiz-adv-x="315" 
d="M266 632q0 73 -93 73q-39 0 -86 -13l2 22q42 14 87 14q58 0 86.5 -26t28.5 -68q0 -119 -220 -307h209l-2 -23h-243l1 17q230 200 230 311z" />
    <glyph glyph-name="three.numr" horiz-adv-x="316" 
d="M194 521v-2q38 -6 61.5 -29.5t23.5 -64.5q0 -61 -42.5 -94t-110.5 -33q-40 0 -80 11l2 22q46 -11 77 -11q61 0 95.5 28t34.5 75q0 83 -121 83h-16l2 21h16q52 0 91 30.5t39 79.5q0 69 -85 69q-47 0 -89 -14l3 22q45 14 88 14q53 0 80 -24.5t27 -63.5q0 -43 -26 -74.5
t-70 -44.5z" />
    <glyph glyph-name="four.numr" horiz-adv-x="354" 
d="M331 416h-58l-12 -118h-23l12 118h-209l2 20l239 278h23l-29 -275h57zM276 677l-206 -238h183l25 238h-2z" />
    <glyph glyph-name="five.numr" horiz-adv-x="328" 
d="M53 324q46 -11 77 -11q71 0 108 31t37 88q0 49 -29.5 70t-89.5 21h-70l20 190h202l-3 -22h-179l-15 -147h50q137 0 137 -110q0 -64 -41.5 -103.5t-124.5 -39.5q-40 0 -82 11z" />
    <glyph glyph-name="six.numr" horiz-adv-x="353" 
d="M216 551q50 0 78 -27t28 -78q0 -61 -34.5 -104.5t-100.5 -43.5q-118 0 -118 158q0 116 54 194t160 78q19 0 57 -5l-2 -23q-30 6 -63 6q-73 0 -119 -49.5t-59 -132.5q58 27 119 27zM92 457q0 -137 98 -137q54 0 81.5 36.5t27.5 86.5q0 87 -90 87q-57 0 -115 -26
q-2 -30 -2 -47z" />
    <glyph glyph-name="seven.numr" horiz-adv-x="294" 
d="M116 297h-23l184 395h-211l2 21h237l-2 -14z" />
    <glyph glyph-name="eight.numr" horiz-adv-x="363" 
d="M59 398q0 82 114 128q-79 35 -79 98q0 45 35.5 74.5t91.5 29.5q50 0 80.5 -25t30.5 -65q0 -73 -107 -110q21 -8 35.5 -15.5t31 -20.5t25.5 -32t9 -44q0 -56 -43.5 -87t-102.5 -31q-54 0 -87.5 26.5t-33.5 73.5zM302 416q0 41 -26 61.5t-82 40.5q-62 -29 -83 -51
q-27 -28 -27 -66q0 -36 24.5 -58.5t73.5 -22.5q52 0 86 25t34 71zM118 623q0 -55 85 -87q47 18 76 41t29 59q0 30 -21.5 50t-67.5 20q-52 0 -76.5 -25t-24.5 -58z" />
    <glyph glyph-name="nine.numr" horiz-adv-x="354" 
d="M183 473q-50 0 -78.5 27t-28.5 78q0 61 34.5 104.5t100.5 43.5q118 0 118 -158q0 -116 -53.5 -194t-159.5 -78q-20 0 -57 5l2 23q30 -6 62 -6q72 0 118 49.5t60 131.5q-55 -26 -118 -26zM306 567q0 137 -97 137q-55 0 -82 -36.5t-27 -86.5q0 -87 89 -87q60 0 114 26
q3 22 3 47z" />
    <glyph glyph-name="copyright.pnum_lnum" horiz-adv-x="828" 
d="M416 -10q-151 0 -255 102.5t-104 267.5t104 268t255 103q157 0 262 -102t105 -269q0 -164 -105.5 -267t-261.5 -103zM416 11q146 0 245 97.5t99 251.5q0 158 -98.5 254t-245.5 96q-142 0 -239 -97t-97 -253t97 -252.5t239 -96.5zM226 361q0 109 57 164t148 55q40 0 88 -9
v-125h-21v108q-30 5 -66 5q-85 0 -134 -50t-49 -147q0 -191 181 -191q43 0 91 8v-20q-59 -9 -92 -9q-41 0 -75 10t-64 33t-47 66t-17 102z" />
    <glyph glyph-name="uni2117.pnum_lnum" horiz-adv-x="828" 
d="M416 -10q-151 0 -255 102.5t-104 267.5t104 268t255 103q157 0 262 -102t105 -269q0 -164 -105.5 -267t-261.5 -103zM416 11q146 0 245 97.5t99 251.5q0 158 -98.5 254t-245.5 96q-142 0 -239 -97t-97 -253t97 -252.5t239 -96.5zM420 563q85 0 122 -32t37 -96
q0 -131 -145 -131h-100v-157h-22v416h108zM419 543h-85v-219h99q124 0 124 110q0 54 -31 81.5t-107 27.5z" />
    <glyph glyph-name="uni267E.pnum_lnum" horiz-adv-x="828" 
d="M416 -10q-151 0 -255 102.5t-104 267.5t104 268t255 103q157 0 262 -102t105 -269q0 -164 -105.5 -267t-261.5 -103zM416 11q146 0 245 97.5t99 251.5q0 158 -98.5 254t-245.5 96q-142 0 -239 -97t-97 -253t97 -252.5t239 -96.5zM560 511q49 0 80.5 -42.5t31.5 -107.5
q0 -64 -31 -106t-79 -42q-44 0 -75 34.5t-64 100.5q-36 -69 -65 -102t-72 -33q-48 0 -78.5 41.5t-30.5 106.5q0 66 31 108t80 42q31 0 58 -21t42 -45t36 -66q33 65 63 98.5t73 33.5zM287 234q22 0 39 9t34 31.5t25.5 38t27.5 50.5q-17 33 -26 49t-25.5 38.5t-34.5 32
t-39 9.5q-41 0 -66 -36.5t-25 -94.5q0 -56 24.5 -91.5t65.5 -35.5zM560 492q-39 0 -64.5 -30.5t-60.5 -98.5q21 -42 35.5 -65.5t38.5 -43.5t52 -20q41 0 65.5 35.5t24.5 91.5q0 58 -25.5 94.5t-65.5 36.5z" />
    <glyph glyph-name="uni24CA.pnum_lnum" horiz-adv-x="828" 
d="M416 -10q-151 0 -255 102.5t-104 267.5t104 268t255 103q157 0 262 -102t105 -269q0 -164 -105.5 -267t-261.5 -103zM416 11q146 0 245 97.5t99 251.5q0 158 -98.5 254t-245.5 96q-142 0 -239 -97t-97 -253t97 -252.5t239 -96.5zM287 291q0 -68 33.5 -102t93.5 -34
q62 0 96 38.5t34 104.5v258h22v-261q0 -69 -38.5 -115t-113.5 -46q-64 0 -106.5 37t-42.5 117v268h22v-265z" />
    <glyph glyph-name="Euro.pnum_lnum" horiz-adv-x="686" 
d="M174 311v-2h347l-2 -24h-345q6 -144 77.5 -207.5t200.5 -63.5q69 0 147 15l-3 -25q-78 -15 -148 -15q-290 0 -302 296h-103l3 24h100q0 65 9 119h-96l2 24h99q31 140 124 209.5t233 69.5q80 0 148 -16l-2 -26q-59 16 -146 16q-272 0 -329 -253h349l-3 -24h-351
q-9 -54 -9 -117z" />
    <glyph glyph-name="dollar.pnum_lnum" horiz-adv-x="524" 
d="M198 16q18 0 27 1l36 344h-1q-44 9 -70.5 18t-54 27t-40 47.5t-12.5 73.5q0 96 60 145t157 57l11 106h25l-11 -105q2 0 7.5 0.5t8.5 0.5q65 0 152 -17l-3 -27q-80 18 -149 18q-3 0 -9.5 -0.5t-9.5 -0.5l-34 -321q32 -7 52.5 -13.5t46.5 -19.5t40.5 -30.5t25 -46
t10.5 -66.5q0 -100 -59.5 -152t-156.5 -62l-10 -98h-25l10 96q-8 -1 -24 -1q-84 0 -174 22l3 26q79 -22 171 -22zM435 206q0 71 -35.5 101t-114.5 48l-35 -336q86 10 135.5 56t49.5 131zM111 531q0 -37 10.5 -62.5t33.5 -41t46.5 -23.5t62.5 -16l33 315q-186 -17 -186 -172z
" />
    <glyph glyph-name="cent.pnum_lnum" horiz-adv-x="504" 
d="M470 581q-63 20 -121 20h-18l-51 -492h14q56 0 134 23l-4 -25q-73 -24 -138 -24h-9l-10 -95h-24l10 96q-91 10 -140 72t-49 165q0 282 246 303l11 104h24l-11 -102h15q68 0 124 -20zM92 325q0 -193 164 -214l51 488q-215 -21 -215 -274z" />
    <glyph glyph-name="sterling.pnum_lnum" horiz-adv-x="609" 
d="M423 705q-97 0 -155.5 -52t-68.5 -148l-13 -113h285l-3 -25h-284l-15 -141q-15 -146 -99 -200h447l-2 -26h-501l3 27q46 0 81 58t44 136l15 146h-97l3 25h96l12 114q12 106 77 165.5t178 59.5q86 0 164 -26l-3 -28q-79 28 -164 28z" />
    <glyph glyph-name="florin.pnum_lnum" horiz-adv-x="411" 
d="M29 306l3 25h143l20 137q20 137 63.5 200t125.5 63q49 0 105 -14l-3 -26q-55 14 -104 14q-70 0 -106.5 -60t-53.5 -181l-19 -133h181l-3 -25h-182l-35 -245q-7 -51 -13.5 -84t-19 -70.5t-29 -59t-42.5 -36t-61 -14.5q-29 0 -77 8l2 26q44 -8 70 -8q70 0 97 53.5t46 184.5
l35 245h-143z" />
    <glyph glyph-name="yen.pnum_lnum" horiz-adv-x="586" 
d="M109 718l182 -417h4l268 417h30l-276 -427h180l-3 -24h-190l-13 -117h191l-3 -23h-190l-13 -127h-27l13 127h-196l2 23h196l13 117h-196l2 24h184l-188 427h30z" />
    <glyph glyph-name="uni20B9.pnum_lnum" horiz-adv-x="624" 
d="M113 692l3 26h500l-3 -26h-187q80 -38 84 -149h88l-3 -26h-84q-5 -180 -181 -212l176 -305h-33l-173 300q-30 -3 -65 -3h-157l3 26h152q127 0 187.5 47t62.5 147h-388l3 26h384q-4 81 -54 115t-174 34h-141z" />
    <glyph glyph-name="threesup_fraction_eightinf" horiz-adv-x="808" 
d="M474 94q0 82 114 128q-79 35 -79 98q0 45 35.5 74.5t91.5 29.5q50 0 80.5 -25t30.5 -65q0 -73 -107 -110q21 -8 35.5 -15.5t31 -20.5t25.5 -32t9 -44q0 -56 -43.5 -87t-102.5 -31q-54 0 -87.5 26.5t-33.5 73.5zM717 112q0 41 -26 61.5t-82 40.5q-62 -29 -83 -51
q-27 -28 -27 -66q0 -36 24.5 -58.5t73.5 -22.5q52 0 86 25t34 71zM533 319q0 -55 85 -87q47 18 76 41t29 59q0 30 -21.5 50t-67.5 20q-52 0 -76.5 -25t-24.5 -58zM138 0h-28l549 718h28zM203 524v-2q38 -6 61.5 -29.5t23.5 -64.5q0 -61 -42.5 -94t-110.5 -33q-40 0 -80 11
l2 22q46 -11 77 -11q61 0 95.5 28t34.5 75q0 83 -121 83h-16l2 21h16q52 0 91 30.5t39 79.5q0 69 -85 69q-47 0 -89 -14l3 22q45 14 88 14q53 0 80 -24.5t27 -63.5q0 -43 -26 -74.5t-70 -44.5z" />
    <glyph glyph-name="fivesup_fraction_eightinf" horiz-adv-x="813" 
d="M479 94q0 82 114 128q-79 35 -79 98q0 45 35.5 74.5t91.5 29.5q50 0 80.5 -25t30.5 -65q0 -73 -107 -110q21 -8 35.5 -15.5t31 -20.5t25.5 -32t9 -44q0 -56 -43.5 -87t-102.5 -31q-54 0 -87.5 26.5t-33.5 73.5zM722 112q0 41 -26 61.5t-82 40.5q-62 -29 -83 -51
q-27 -28 -27 -66q0 -36 24.5 -58.5t73.5 -22.5q52 0 86 25t34 71zM538 319q0 -55 85 -87q47 18 76 41t29 59q0 30 -21.5 50t-67.5 20q-52 0 -76.5 -25t-24.5 -58zM63 329q46 -11 77 -11q71 0 108 31t37 88q0 49 -29.5 70t-89.5 21h-70l20 190h202l-3 -22h-179l-15 -147h50
q137 0 137 -110q0 -64 -41.5 -103.5t-124.5 -39.5q-40 0 -82 11zM145 0h-28l549 718h28z" />
    <glyph glyph-name="sevensup_fraction_eightinf" horiz-adv-x="756" 
d="M421 94q0 82 114 128q-79 35 -79 98q0 45 35.5 74.5t91.5 29.5q50 0 80.5 -25t30.5 -65q0 -73 -107 -110q21 -8 35.5 -15.5t31 -20.5t25.5 -32t9 -44q0 -56 -43.5 -87t-102.5 -31q-54 0 -87.5 26.5t-33.5 73.5zM664 112q0 41 -26 61.5t-82 40.5q-62 -29 -83 -51
q-27 -28 -27 -66q0 -36 24.5 -58.5t73.5 -22.5q52 0 86 25t34 71zM480 319q0 -55 85 -87q47 18 76 41t29 59q0 30 -21.5 50t-67.5 20q-52 0 -76.5 -25t-24.5 -58zM80 0h-28l549 718h28zM124 302h-23l184 395h-211l2 21h237l-2 -14z" />
    <glyph glyph-name="a.smcp" horiz-adv-x="552" 
d="M456 0l-46 168h-296l-79 -168h-28l285 603h28l164 -603h-28zM301 566l-176 -373h279l-100 373h-3z" />
    <glyph glyph-name="b.smcp" horiz-adv-x="572" 
d="M133 603h189q100 0 142 -37t42 -94t-34.5 -100t-91.5 -55l-1 -3q57 -7 86 -44t29 -94q0 -83 -61 -129.5t-181 -46.5h-182zM99 25h157q109 0 160 39.5t51 108.5q0 60 -36.5 93t-104.5 33h-199zM130 324h193q19 0 43 7.5t50.5 22.5t44.5 45.5t18 69.5q0 109 -158 109h-165z
" />
    <glyph glyph-name="c.smcp" horiz-adv-x="548" 
d="M88 268q0 -132 68 -191.5t184 -59.5q73 0 137 11l-3 -25q-84 -11 -137 -11q-56 0 -103 13t-87.5 42.5t-63.5 85t-23 133.5q0 168 96.5 258t252.5 90q64 0 124 -13l-2 -25q-54 13 -121 13q-149 0 -235.5 -85t-86.5 -236z" />
    <glyph glyph-name="d.smcp" horiz-adv-x="647" 
d="M585 343q0 -52 -9.5 -98t-35 -92t-66 -79t-106.5 -53.5t-152 -20.5h-146l63 603h157q160 0 227.5 -66t67.5 -194zM284 578h-127l-58 -553h121q92 0 159 24t105 68.5t56 100t18 124.5q0 121 -62.5 178.5t-211.5 57.5z" />
    <glyph glyph-name="e.smcp" 
d="M133 603h375l-2 -25h-349l-26 -246h315l-3 -25h-314l-30 -282h348l-2 -25h-375z" />
    <glyph glyph-name="f.smcp" horiz-adv-x="492" 
d="M487 603l-2 -25h-328l-30 -286h297l-3 -25h-296l-28 -267h-27l63 603h354z" />
    <glyph glyph-name="g.smcp" horiz-adv-x="600" 
d="M345 299h182l-30 -286v-1h-2q-80 -20 -158 -20q-55 0 -101 12.5t-87.5 42t-65 85t-23.5 133.5q0 167 99 258t250 91q75 0 142 -15l-3 -25q-56 15 -140 15q-141 0 -231 -84t-90 -237q0 -69 19.5 -119t55.5 -78t80 -41t99 -13q68 0 131 14l25 244h-155z" />
    <glyph glyph-name="h.smcp" horiz-adv-x="637" 
d="M567 603l-63 -603h-27l31 299h-381l-31 -299h-26l63 603h26l-30 -279h381l30 279h27z" />
    <glyph glyph-name="i.smcp" horiz-adv-x="229" 
d="M159 603l-63 -603h-26l63 603h26z" />
    <glyph glyph-name="j.smcp" horiz-adv-x="351" 
d="M213 164l47 439h26l-46 -440q-9 -90 -54.5 -131t-132.5 -41q-28 0 -61 6l2 25q32 -6 63 -6q68 0 107.5 33.5t48.5 114.5z" />
    <glyph glyph-name="k.smcp" horiz-adv-x="522" 
d="M160 603l-30 -279h88l272 279h33l-284 -290l230 -313h-32l-221 299h-88l-31 -299h-27l63 603h27z" />
    <glyph glyph-name="l.smcp" horiz-adv-x="470" 
d="M160 603l-61 -578h322l-2 -25h-349l63 603h27z" />
    <glyph glyph-name="m.smcp" horiz-adv-x="796" 
d="M33 0l142 603h27l172 -565h2l278 565h29l16 -603h-27l-15 548h-2l-271 -548h-27l-167 551h-1l-129 -551h-27z" />
    <glyph glyph-name="n.smcp" horiz-adv-x="654" 
d="M497 0l-340 556h-3l-58 -556h-26l63 603h26l338 -554h3l58 554h27l-63 -603h-25z" />
    <glyph glyph-name="o.smcp" horiz-adv-x="675" 
d="M307 17q127 0 203.5 86t76.5 233q0 129 -59.5 191t-162.5 62q-130 0 -203.5 -91t-73.5 -234q0 -128 58.5 -187.5t160.5 -59.5zM305 -8q-106 0 -175.5 64t-69.5 205q0 154 83.5 253.5t224.5 99.5q115 0 180.5 -70.5t65.5 -206.5q0 -159 -87 -252t-222 -93z" />
    <glyph glyph-name="p.smcp" horiz-adv-x="546" 
d="M292 603q118 0 169.5 -41.5t51.5 -127.5q0 -39 -11 -72.5t-36 -64t-74 -48.5t-118 -18h-153l-24 -231h-27l63 603h159zM288 578h-131l-34 -322h152q210 0 210 178q0 73 -43.5 108.5t-153.5 35.5z" />
    <glyph glyph-name="q.smcp" horiz-adv-x="675" 
d="M305 -8q-106 0 -175.5 64t-69.5 205q0 154 83.5 253.5t224.5 99.5q115 0 180.5 -70.5t65.5 -206.5q0 -116 -47.5 -198t-129.5 -120l53 -116h-27l-49 107q-56 -18 -109 -18zM307 17q51 0 97 16l-70 157h27l66 -148q75 34 117.5 110.5t42.5 183.5q0 129 -59.5 191
t-162.5 62q-130 0 -203.5 -91t-73.5 -234q0 -128 58.5 -187.5t160.5 -59.5z" />
    <glyph glyph-name="r.smcp" horiz-adv-x="558" 
d="M437 0l-120 255q-12 -1 -36 -1h-158l-26 -254h-27l63 603h161q115 0 163.5 -39t48.5 -118q0 -70 -37 -121t-124 -66l122 -259h-30zM290 578h-133l-31 -299h154q199 0 199 165q0 69 -40.5 101.5t-148.5 32.5z" />
    <glyph glyph-name="s.smcp" horiz-adv-x="483" 
d="M184 17q94 0 148 37.5t54 116.5q0 22 -3.5 39t-14.5 30t-20 21t-31 16t-36.5 12.5t-45.5 12.5q-36 9 -52 14t-40.5 16t-35.5 24t-19.5 35t-8.5 51q0 90 63.5 131t160.5 41q56 0 135 -15l-3 -26q-75 15 -134 15q-194 0 -194 -146q0 -29 7.5 -47.5t28.5 -31t41.5 -19.5
t63.5 -18q37 -10 54.5 -15.5t43 -17.5t37.5 -26.5t21 -38.5t9 -56q0 -95 -64.5 -137.5t-167.5 -42.5q-76 0 -151 18l2 26q66 -19 152 -19z" />
    <glyph glyph-name="t.smcp" horiz-adv-x="505" 
d="M51 603h465l-3 -25h-219l-60 -578h-27l60 578h-218z" />
    <glyph glyph-name="u.smcp" horiz-adv-x="638" 
d="M112 215q-9 -97 42 -147.5t143 -50.5q94 0 147.5 55.5t64.5 153.5l40 377h27l-40 -380q-11 -100 -70.5 -165.5t-169.5 -65.5q-90 0 -151.5 46t-61.5 143q0 10 2 32l41 390h27z" />
    <glyph glyph-name="v.smcp" horiz-adv-x="551" 
d="M95 603l151 -562h3l269 562h28l-288 -603h-28l-163 603h28z" />
    <glyph glyph-name="w.smcp" horiz-adv-x="813" 
d="M410 603l127 -563h4l233 563h28l-253 -603h-28l-102 439l-187 -439h-28l-135 603h28l124 -563h3l186 439l-28 124h28z" />
    <glyph glyph-name="x.smcp" horiz-adv-x="498" 
d="M27 0h-29l237 308l-166 295h29l153 -275l212 275h29l-228 -295l174 -308h-29l-162 287z" />
    <glyph glyph-name="y.smcp" horiz-adv-x="520" 
d="M94 603l159 -348h3l231 348h28l-250 -378l-23 -225h-27l23 228l-173 375h29z" />
    <glyph glyph-name="z.smcp" horiz-adv-x="493" 
d="M81 578l2 25h397l-2 -21l-438 -556h381l-2 -26h-416l2 21l438 557h-362z" />
    <glyph glyph-name="ae.smcp" horiz-adv-x="747" 
d="M725 603l-2 -25h-311l-26 -244h269l-3 -25h-268l-30 -284h310l-2 -25h-337l17 168h-225l-110 -168h-30l397 603h351zM133 193h212l40 384z" />
    <glyph glyph-name="oe.smcp" horiz-adv-x="880" 
d="M487 603h370l-2 -25h-349l-26 -246h315l-3 -25h-314l-30 -282h348l-2 -25h-375q-43 -8 -91 -8q-122 0 -195 63.5t-73 205.5q0 160 90 256.5t226 96.5q62 0 111 -11zM332 17q52 0 89 9l58 552q-48 11 -100 11q-132 0 -211.5 -89t-79.5 -237q0 -246 244 -246z" />
    <glyph glyph-name="eth.smcp" horiz-adv-x="653" 
d="M592 343q0 -52 -9.5 -98t-35 -92t-66 -79t-106.5 -53.5t-152 -20.5h-146l31 299h-90l3 24h89l30 280h157q160 0 227.5 -66t67.5 -194zM275 299h-140l-29 -274h121q92 0 159 24t105 68.5t56 100t18 124.5q0 121 -62.5 178.5t-211.5 57.5h-127l-27 -255h140z" />
    </font>
</defs>
</svg>
